<svg xmlns="http://www.w3.org/2000/svg" version="1.1" xmlns:xlink="http://www.w3.org/1999/xlink" xmlns:svgjs="http://svgjs.dev/svgjs" width="1500" height="800" preserveAspectRatio="none" viewBox="0 0 1500 800"><g mask="url(&quot;#SvgjsMask1073&quot;)" fill="none"><rect width="1500" height="800" x="0" y="0" fill="rgba(5, 4, 8, 1)"></rect><g mask="url(&quot;#SvgjsMask1074&quot;)"><path d="M876 780L660 564L660 516L468 324" stroke-width="4" stroke="rgba(46, 30, 57, 0.53)"></path><path d="M870 780 a6 6 0 1 0 12 0 a6 6 0 1 0 -12 0zM462 324 a6 6 0 1 0 12 0 a6 6 0 1 0 -12 0z" fill="rgba(46, 30, 57, 0.53)"></path><path d="M1188 660L1404 444L1452 444L1500 492L1500 636" stroke-width="4" stroke="rgba(46, 30, 57, 0.53)"></path><path d="M1182 660 a6 6 0 1 0 12 0 a6 6 0 1 0 -12 0zM1494 636 a6 6 0 1 0 12 0 a6 6 0 1 0 -12 0z" fill="rgba(46, 30, 57, 0.53)"></path><path d="M564 396L588 372L588 12" stroke-width="4" stroke="rgba(46, 30, 57, 0.53)"></path><path d="M558 396 a6 6 0 1 0 12 0 a6 6 0 1 0 -12 0zM582 12 a6 6 0 1 0 12 0 a6 6 0 1 0 -12 0z" fill="rgba(46, 30, 57, 0.53)"></path><path d="M276 348L132 492L36 492L12 516L12 708" stroke-width="4" stroke="rgba(46, 30, 57, 0.53)"></path><path d="M270 348 a6 6 0 1 0 12 0 a6 6 0 1 0 -12 0zM6 708 a6 6 0 1 0 12 0 a6 6 0 1 0 -12 0z" fill="rgba(46, 30, 57, 0.53)"></path><path d="M828 468L900 396L1068 396L1212 540L1284 540" stroke-width="4" stroke="rgba(46, 30, 57, 0.53)"></path><path d="M822 468 a6 6 0 1 0 12 0 a6 6 0 1 0 -12 0zM1278 540 a6 6 0 1 0 12 0 a6 6 0 1 0 -12 0z" fill="rgba(46, 30, 57, 0.53)"></path><path d="M108 444L108 324L36 252L12 252" stroke-width="4" stroke="rgba(46, 30, 57, 0.53)"></path><path d="M102 444 a6 6 0 1 0 12 0 a6 6 0 1 0 -12 0zM6 252 a6 6 0 1 0 12 0 a6 6 0 1 0 -12 0z" fill="rgba(46, 30, 57, 0.53)"></path><path d="M420 540L420 516L276 372" stroke-width="4" stroke="rgba(46, 30, 57, 0.53)"></path><path d="M414 540 a6 6 0 1 0 12 0 a6 6 0 1 0 -12 0zM270 372 a6 6 0 1 0 12 0 a6 6 0 1 0 -12 0z" fill="rgba(46, 30, 57, 0.53)"></path><path d="M492 588L516 612L516 756L564 804L660 804L756 708L756 684L732 660" stroke-width="4" stroke="rgba(46, 30, 57, 0.53)"></path><path d="M486 588 a6 6 0 1 0 12 0 a6 6 0 1 0 -12 0zM726 660 a6 6 0 1 0 12 0 a6 6 0 1 0 -12 0z" fill="rgba(46, 30, 57, 0.53)"></path><path d="M612 108L612 396L588 420" stroke-width="4" stroke="rgba(46, 30, 57, 0.53)"></path><path d="M606 108 a6 6 0 1 0 12 0 a6 6 0 1 0 -12 0zM582 420 a6 6 0 1 0 12 0 a6 6 0 1 0 -12 0z" fill="rgba(46, 30, 57, 0.53)"></path><path d="M1404 420L1308 516L1212 516L996 300L948 300" stroke-width="4" stroke="rgba(46, 30, 57, 0.53)"></path><path d="M1398 420 a6 6 0 1 0 12 0 a6 6 0 1 0 -12 0zM942 300 a6 6 0 1 0 12 0 a6 6 0 1 0 -12 0z" fill="rgba(46, 30, 57, 0.53)"></path><path d="M420 324L420 276L156 12L12 12" stroke-width="4" stroke="rgba(46, 30, 57, 0.53)"></path><path d="M414 324 a6 6 0 1 0 12 0 a6 6 0 1 0 -12 0zM6 12 a6 6 0 1 0 12 0 a6 6 0 1 0 -12 0z" fill="rgba(46, 30, 57, 0.53)"></path><path d="M1116 468L1068 420L900 420L732 588L708 588L684 564L684 540" stroke-width="4" stroke="rgba(46, 30, 57, 0.53)"></path><path d="M1110 468 a6 6 0 1 0 12 0 a6 6 0 1 0 -12 0zM678 540 a6 6 0 1 0 12 0 a6 6 0 1 0 -12 0z" fill="rgba(46, 30, 57, 0.53)"></path><path d="M180 756L132 804L12 804" stroke-width="4" stroke="rgba(46, 30, 57, 0.53)"></path><path d="M174 756 a6 6 0 1 0 12 0 a6 6 0 1 0 -12 0zM6 804 a6 6 0 1 0 12 0 a6 6 0 1 0 -12 0z" fill="rgba(46, 30, 57, 0.53)"></path><path d="M372 636L492 636" stroke-width="4" stroke="rgba(46, 30, 57, 0.53)"></path><path d="M366 636 a6 6 0 1 0 12 0 a6 6 0 1 0 -12 0zM486 636 a6 6 0 1 0 12 0 a6 6 0 1 0 -12 0z" fill="rgba(46, 30, 57, 0.53)"></path><path d="M1452 252L1500 252" stroke-width="4" stroke="rgba(46, 30, 57, 0.53)"></path><path d="M1446 252 a6 6 0 1 0 12 0 a6 6 0 1 0 -12 0zM1494 252 a6 6 0 1 0 12 0 a6 6 0 1 0 -12 0z" fill="rgba(46, 30, 57, 0.53)"></path><path d="M636 564L588 564L540 612L540 684L612 756L684 756L708 732" stroke-width="4" stroke="rgba(46, 30, 57, 0.53)"></path><path d="M630 564 a6 6 0 1 0 12 0 a6 6 0 1 0 -12 0zM702 732 a6 6 0 1 0 12 0 a6 6 0 1 0 -12 0z" fill="rgba(46, 30, 57, 0.53)"></path><path d="M996 36L1332 372L1332 396L1356 420L1356 444L1308 492" stroke-width="4" stroke="rgba(46, 30, 57, 0.53)"></path><path d="M990 36 a6 6 0 1 0 12 0 a6 6 0 1 0 -12 0zM1302 492 a6 6 0 1 0 12 0 a6 6 0 1 0 -12 0z" fill="rgba(46, 30, 57, 0.53)"></path><path d="M1116 132L1380 396L1380 420" stroke-width="4" stroke="rgba(46, 30, 57, 0.53)"></path><path d="M1110 132 a6 6 0 1 0 12 0 a6 6 0 1 0 -12 0zM1374 420 a6 6 0 1 0 12 0 a6 6 0 1 0 -12 0z" fill="rgba(46, 30, 57, 0.53)"></path><path d="M804 108L804 252L612 444" stroke-width="4" stroke="rgba(46, 30, 57, 0.53)"></path><path d="M798 108 a6 6 0 1 0 12 0 a6 6 0 1 0 -12 0zM606 444 a6 6 0 1 0 12 0 a6 6 0 1 0 -12 0z" fill="rgba(46, 30, 57, 0.53)"></path><path d="M468 36L564 36" stroke-width="4" stroke="rgba(46, 30, 57, 0.53)"></path><path d="M462 36 a6 6 0 1 0 12 0 a6 6 0 1 0 -12 0zM558 36 a6 6 0 1 0 12 0 a6 6 0 1 0 -12 0z" fill="rgba(46, 30, 57, 0.53)"></path><path d="M1236 228L1260 252L1380 252L1500 132L1500 12" stroke-width="4" stroke="rgba(46, 30, 57, 0.53)"></path><path d="M1230 228 a6 6 0 1 0 12 0 a6 6 0 1 0 -12 0zM1494 12 a6 6 0 1 0 12 0 a6 6 0 1 0 -12 0z" fill="rgba(46, 30, 57, 0.53)"></path><path d="M348 12L348 180L444 276L564 276" stroke-width="4" stroke="rgba(46, 30, 57, 0.53)"></path><path d="M342 12 a6 6 0 1 0 12 0 a6 6 0 1 0 -12 0zM558 276 a6 6 0 1 0 12 0 a6 6 0 1 0 -12 0z" fill="rgba(46, 30, 57, 0.53)"></path><path d="M1284 468L1308 468L1332 444L1332 420L1116 204L1044 204L948 108" stroke-width="4" stroke="rgba(46, 30, 57, 0.53)"></path><path d="M1278 468 a6 6 0 1 0 12 0 a6 6 0 1 0 -12 0zM942 108 a6 6 0 1 0 12 0 a6 6 0 1 0 -12 0z" fill="rgba(46, 30, 57, 0.53)"></path><path d="M1044 36L1020 36L996 12L612 12" stroke-width="4" stroke="rgba(46, 30, 57, 0.53)"></path><path d="M1038 36 a6 6 0 1 0 12 0 a6 6 0 1 0 -12 0zM606 12 a6 6 0 1 0 12 0 a6 6 0 1 0 -12 0z" fill="rgba(46, 30, 57, 0.53)"></path><path d="M924 804L1188 540" stroke-width="4" stroke="rgba(46, 30, 57, 0.53)"></path><path d="M918 804 a6 6 0 1 0 12 0 a6 6 0 1 0 -12 0zM1182 540 a6 6 0 1 0 12 0 a6 6 0 1 0 -12 0z" fill="rgba(46, 30, 57, 0.53)"></path><path d="M732 564L732 372L780 324L900 324L996 228" stroke-width="4" stroke="rgba(46, 30, 57, 0.53)"></path><path d="M726 564 a6 6 0 1 0 12 0 a6 6 0 1 0 -12 0zM990 228 a6 6 0 1 0 12 0 a6 6 0 1 0 -12 0z" fill="rgba(46, 30, 57, 0.53)"></path><path d="M468 756L492 756L540 804" stroke-width="4" stroke="rgba(46, 30, 57, 0.53)"></path><path d="M462 756 a6 6 0 1 0 12 0 a6 6 0 1 0 -12 0zM534 804 a6 6 0 1 0 12 0 a6 6 0 1 0 -12 0z" fill="rgba(46, 30, 57, 0.53)"></path><path d="M1068 468L1092 468L1140 516L1164 516" stroke-width="4" stroke="rgba(46, 30, 57, 0.53)"></path><path d="M1062 468 a6 6 0 1 0 12 0 a6 6 0 1 0 -12 0zM1158 516 a6 6 0 1 0 12 0 a6 6 0 1 0 -12 0z" fill="rgba(46, 30, 57, 0.53)"></path><path d="M420 12L540 132L564 132" stroke-width="4" stroke="rgba(46, 30, 57, 0.53)"></path><path d="M414 12 a6 6 0 1 0 12 0 a6 6 0 1 0 -12 0zM558 132 a6 6 0 1 0 12 0 a6 6 0 1 0 -12 0z" fill="rgba(46, 30, 57, 0.53)"></path><path d="M444 780L468 804L516 804" stroke-width="4" stroke="rgba(46, 30, 57, 0.53)"></path><path d="M438 780 a6 6 0 1 0 12 0 a6 6 0 1 0 -12 0zM510 804 a6 6 0 1 0 12 0 a6 6 0 1 0 -12 0z" fill="rgba(46, 30, 57, 0.53)"></path><path d="M276 204L12 204" stroke-width="4" stroke="rgba(46, 30, 57, 0.53)"></path><path d="M270 204 a6 6 0 1 0 12 0 a6 6 0 1 0 -12 0zM6 204 a6 6 0 1 0 12 0 a6 6 0 1 0 -12 0z" fill="rgba(46, 30, 57, 0.53)"></path><path d="M444 468L468 468L564 564" stroke-width="4" stroke="rgba(46, 30, 57, 0.53)"></path><path d="M438 468 a6 6 0 1 0 12 0 a6 6 0 1 0 -12 0zM558 564 a6 6 0 1 0 12 0 a6 6 0 1 0 -12 0z" fill="rgba(46, 30, 57, 0.53)"></path><path d="M924 756L924 780L900 804L876 804L780 708" stroke-width="4" stroke="rgba(46, 30, 57, 0.53)"></path><path d="M918 756 a6 6 0 1 0 12 0 a6 6 0 1 0 -12 0zM774 708 a6 6 0 1 0 12 0 a6 6 0 1 0 -12 0z" fill="rgba(46, 30, 57, 0.53)"></path><path d="M1428 612L1428 804" stroke-width="4" stroke="rgba(46, 30, 57, 0.53)"></path><path d="M1422 612 a6 6 0 1 0 12 0 a6 6 0 1 0 -12 0zM1422 804 a6 6 0 1 0 12 0 a6 6 0 1 0 -12 0z" fill="rgba(46, 30, 57, 0.53)"></path><path d="M684 348L780 252L780 60L804 36L948 36" stroke-width="4" stroke="rgba(46, 30, 57, 0.53)"></path><path d="M678 348 a6 6 0 1 0 12 0 a6 6 0 1 0 -12 0zM942 36 a6 6 0 1 0 12 0 a6 6 0 1 0 -12 0z" fill="rgba(46, 30, 57, 0.53)"></path><path d="M1044 588L1116 588L1164 540" stroke-width="4" stroke="rgba(46, 30, 57, 0.53)"></path><path d="M1038 588 a6 6 0 1 0 12 0 a6 6 0 1 0 -12 0zM1158 540 a6 6 0 1 0 12 0 a6 6 0 1 0 -12 0z" fill="rgba(46, 30, 57, 0.53)"></path><path d="M300 372L396 276" stroke-width="4" stroke="rgba(46, 30, 57, 0.53)"></path><path d="M294 372 a6 6 0 1 0 12 0 a6 6 0 1 0 -12 0zM390 276 a6 6 0 1 0 12 0 a6 6 0 1 0 -12 0z" fill="rgba(46, 30, 57, 0.53)"></path><path d="M996 468L996 492L1068 564L1116 564L1140 540" stroke-width="4" stroke="rgba(46, 30, 57, 0.53)"></path><path d="M990 468 a6 6 0 1 0 12 0 a6 6 0 1 0 -12 0zM1134 540 a6 6 0 1 0 12 0 a6 6 0 1 0 -12 0z" fill="rgba(46, 30, 57, 0.53)"></path><path d="M564 252L444 252L372 180L372 132L444 60" stroke-width="4" stroke="rgba(46, 30, 57, 0.53)"></path><path d="M558 252 a6 6 0 1 0 12 0 a6 6 0 1 0 -12 0zM438 60 a6 6 0 1 0 12 0 a6 6 0 1 0 -12 0z" fill="rgba(46, 30, 57, 0.53)"></path><path d="M996 636L972 612L972 588L876 492L852 492L828 516L828 540L756 612L756 636L900 780" stroke-width="4" stroke="rgba(46, 30, 57, 0.53)"></path><path d="M990 636 a6 6 0 1 0 12 0 a6 6 0 1 0 -12 0zM894 780 a6 6 0 1 0 12 0 a6 6 0 1 0 -12 0z" fill="rgba(46, 30, 57, 0.53)"></path><path d="M276 252L276 324L300 348" stroke-width="4" stroke="rgba(46, 30, 57, 0.53)"></path><path d="M270 252 a6 6 0 1 0 12 0 a6 6 0 1 0 -12 0zM294 348 a6 6 0 1 0 12 0 a6 6 0 1 0 -12 0z" fill="rgba(46, 30, 57, 0.53)"></path><path d="M1068 612L1044 612L972 684L972 732L948 756" stroke-width="4" stroke="rgba(46, 30, 57, 0.53)"></path><path d="M1062 612 a6 6 0 1 0 12 0 a6 6 0 1 0 -12 0zM942 756 a6 6 0 1 0 12 0 a6 6 0 1 0 -12 0z" fill="rgba(46, 30, 57, 0.53)"></path><path d="M444 396L444 300" stroke-width="4" stroke="rgba(46, 30, 57, 0.53)"></path><path d="M438 396 a6 6 0 1 0 12 0 a6 6 0 1 0 -12 0zM438 300 a6 6 0 1 0 12 0 a6 6 0 1 0 -12 0z" fill="rgba(46, 30, 57, 0.53)"></path><path d="M1236 588L1212 612L1140 612L948 804" stroke-width="4" stroke="rgba(46, 30, 57, 0.53)"></path><path d="M1230 588 a6 6 0 1 0 12 0 a6 6 0 1 0 -12 0zM942 804 a6 6 0 1 0 12 0 a6 6 0 1 0 -12 0z" fill="rgba(46, 30, 57, 0.53)"></path><path d="M420 756L156 492" stroke-width="4" stroke="rgba(46, 30, 57, 0.53)"></path><path d="M414 756 a6 6 0 1 0 12 0 a6 6 0 1 0 -12 0zM150 492 a6 6 0 1 0 12 0 a6 6 0 1 0 -12 0z" fill="rgba(46, 30, 57, 0.53)"></path><path d="M1356 228L1380 228L1476 132L1476 36" stroke-width="4" stroke="rgba(46, 30, 57, 0.53)"></path><path d="M1350 228 a6 6 0 1 0 12 0 a6 6 0 1 0 -12 0zM1470 36 a6 6 0 1 0 12 0 a6 6 0 1 0 -12 0z" fill="rgba(46, 30, 57, 0.53)"></path><path d="M684 324L756 252L756 36" stroke-width="4" stroke="rgba(46, 30, 57, 0.53)"></path><path d="M678 324 a6 6 0 1 0 12 0 a6 6 0 1 0 -12 0zM750 36 a6 6 0 1 0 12 0 a6 6 0 1 0 -12 0z" fill="rgba(46, 30, 57, 0.53)"></path><path d="M1044 252L1044 228L876 60L804 60" stroke-width="4" stroke="rgba(46, 30, 57, 0.53)"></path><path d="M1038 252 a6 6 0 1 0 12 0 a6 6 0 1 0 -12 0zM798 60 a6 6 0 1 0 12 0 a6 6 0 1 0 -12 0z" fill="rgba(46, 30, 57, 0.53)"></path><path d="M348 588L324 612L300 612L180 492L180 468L252 396L276 396L396 516L396 540L420 564" stroke-width="4" stroke="rgba(46, 30, 57, 0.53)"></path><path d="M342 588 a6 6 0 1 0 12 0 a6 6 0 1 0 -12 0zM414 564 a6 6 0 1 0 12 0 a6 6 0 1 0 -12 0z" fill="rgba(46, 30, 57, 0.53)"></path><path d="M1284 588L1332 636L1332 804" stroke-width="4" stroke="rgba(46, 30, 57, 0.53)"></path><path d="M1278 588 a6 6 0 1 0 12 0 a6 6 0 1 0 -12 0zM1326 804 a6 6 0 1 0 12 0 a6 6 0 1 0 -12 0z" fill="rgba(46, 30, 57, 0.53)"></path><path d="M156 756L132 756L108 780L12 780" stroke-width="4" stroke="rgba(46, 30, 57, 0.53)"></path><path d="M150 756 a6 6 0 1 0 12 0 a6 6 0 1 0 -12 0zM6 780 a6 6 0 1 0 12 0 a6 6 0 1 0 -12 0z" fill="rgba(46, 30, 57, 0.53)"></path><path d="M708 420L708 372" stroke-width="4" stroke="rgba(46, 30, 57, 0.53)"></path><path d="M702 420 a6 6 0 1 0 12 0 a6 6 0 1 0 -12 0zM702 372 a6 6 0 1 0 12 0 a6 6 0 1 0 -12 0z" fill="rgba(46, 30, 57, 0.53)"></path><path d="M252 84L180 12" stroke-width="4" stroke="rgba(46, 30, 57, 0.53)"></path><path d="M246 84 a6 6 0 1 0 12 0 a6 6 0 1 0 -12 0zM174 12 a6 6 0 1 0 12 0 a6 6 0 1 0 -12 0z" fill="rgba(46, 30, 57, 0.53)"></path><path d="M1356 564L1356 804" stroke-width="4" stroke="rgba(46, 30, 57, 0.53)"></path><path d="M1350 564 a6 6 0 1 0 12 0 a6 6 0 1 0 -12 0zM1350 804 a6 6 0 1 0 12 0 a6 6 0 1 0 -12 0z" fill="rgba(46, 30, 57, 0.53)"></path><path d="M372 444L420 396L420 348L396 324L396 300" stroke-width="4" stroke="rgba(46, 30, 57, 0.53)"></path><path d="M366 444 a6 6 0 1 0 12 0 a6 6 0 1 0 -12 0zM390 300 a6 6 0 1 0 12 0 a6 6 0 1 0 -12 0z" fill="rgba(46, 30, 57, 0.53)"></path><path d="M1428 564L1476 564" stroke-width="4" stroke="rgba(46, 30, 57, 0.53)"></path><path d="M1422 564 a6 6 0 1 0 12 0 a6 6 0 1 0 -12 0zM1470 564 a6 6 0 1 0 12 0 a6 6 0 1 0 -12 0z" fill="rgba(46, 30, 57, 0.53)"></path><path d="M1476 636L1476 684L1500 708L1500 804" stroke-width="4" stroke="rgba(46, 30, 57, 0.53)"></path><path d="M1470 636 a6 6 0 1 0 12 0 a6 6 0 1 0 -12 0zM1494 804 a6 6 0 1 0 12 0 a6 6 0 1 0 -12 0z" fill="rgba(46, 30, 57, 0.53)"></path><path d="M1044 636L1044 660L996 708" stroke-width="4" stroke="rgba(46, 30, 57, 0.53)"></path><path d="M1038 636 a6 6 0 1 0 12 0 a6 6 0 1 0 -12 0zM990 708 a6 6 0 1 0 12 0 a6 6 0 1 0 -12 0z" fill="rgba(46, 30, 57, 0.53)"></path><path d="M948 492L1020 564L1020 612" stroke-width="4" stroke="rgba(46, 30, 57, 0.53)"></path><path d="M942 492 a6 6 0 1 0 12 0 a6 6 0 1 0 -12 0zM1014 612 a6 6 0 1 0 12 0 a6 6 0 1 0 -12 0z" fill="rgba(46, 30, 57, 0.53)"></path><path d="M1236 780L1260 804L1308 804" stroke-width="4" stroke="rgba(46, 30, 57, 0.53)"></path><path d="M1230 780 a6 6 0 1 0 12 0 a6 6 0 1 0 -12 0zM1302 804 a6 6 0 1 0 12 0 a6 6 0 1 0 -12 0z" fill="rgba(46, 30, 57, 0.53)"></path><path d="M468 108L492 108L564 180L564 228" stroke-width="4" stroke="rgba(46, 30, 57, 0.53)"></path><path d="M462 108 a6 6 0 1 0 12 0 a6 6 0 1 0 -12 0zM558 228 a6 6 0 1 0 12 0 a6 6 0 1 0 -12 0z" fill="rgba(46, 30, 57, 0.53)"></path><path d="M1404 708L1380 732L1380 804" stroke-width="4" stroke="rgba(46, 30, 57, 0.53)"></path><path d="M1398 708 a6 6 0 1 0 12 0 a6 6 0 1 0 -12 0zM1374 804 a6 6 0 1 0 12 0 a6 6 0 1 0 -12 0z" fill="rgba(46, 30, 57, 0.53)"></path><path d="M468 588L372 588L324 636" stroke-width="4" stroke="rgba(46, 30, 57, 0.53)"></path><path d="M462 588 a6 6 0 1 0 12 0 a6 6 0 1 0 -12 0zM318 636 a6 6 0 1 0 12 0 a6 6 0 1 0 -12 0z" fill="rgba(46, 30, 57, 0.53)"></path><path d="M468 444L396 444" stroke-width="4" stroke="rgba(46, 30, 57, 0.53)"></path><path d="M462 444 a6 6 0 1 0 12 0 a6 6 0 1 0 -12 0zM390 444 a6 6 0 1 0 12 0 a6 6 0 1 0 -12 0z" fill="rgba(46, 30, 57, 0.53)"></path><path d="M1332 540L1404 468L1452 468L1476 492L1476 540" stroke-width="4" stroke="rgba(46, 30, 57, 0.53)"></path><path d="M1326 540 a6 6 0 1 0 12 0 a6 6 0 1 0 -12 0zM1470 540 a6 6 0 1 0 12 0 a6 6 0 1 0 -12 0z" fill="rgba(46, 30, 57, 0.53)"></path><path d="M252 804L156 804" stroke-width="4" stroke="rgba(46, 30, 57, 0.53)"></path><path d="M246 804 a6 6 0 1 0 12 0 a6 6 0 1 0 -12 0zM150 804 a6 6 0 1 0 12 0 a6 6 0 1 0 -12 0z" fill="rgba(46, 30, 57, 0.53)"></path><path d="M1092 324L1092 372L1212 492L1284 492" stroke-width="4" stroke="rgba(46, 30, 57, 0.53)"></path><path d="M1086 324 a6 6 0 1 0 12 0 a6 6 0 1 0 -12 0zM1278 492 a6 6 0 1 0 12 0 a6 6 0 1 0 -12 0z" fill="rgba(46, 30, 57, 0.53)"></path><path d="M900 636L900 756" stroke-width="4" stroke="rgba(46, 30, 57, 0.53)"></path><path d="M894 636 a6 6 0 1 0 12 0 a6 6 0 1 0 -12 0zM894 756 a6 6 0 1 0 12 0 a6 6 0 1 0 -12 0z" fill="rgba(46, 30, 57, 0.53)"></path><path d="M828 228L828 84" stroke-width="4" stroke="rgba(46, 30, 57, 0.53)"></path><path d="M822 228 a6 6 0 1 0 12 0 a6 6 0 1 0 -12 0zM822 84 a6 6 0 1 0 12 0 a6 6 0 1 0 -12 0z" fill="rgba(46, 30, 57, 0.53)"></path><path d="M1164 684L1236 756L1308 756" stroke-width="4" stroke="rgba(46, 30, 57, 0.53)"></path><path d="M1158 684 a6 6 0 1 0 12 0 a6 6 0 1 0 -12 0zM1302 756 a6 6 0 1 0 12 0 a6 6 0 1 0 -12 0z" fill="rgba(46, 30, 57, 0.53)"></path><path d="M516 12L444 12" stroke-width="4" stroke="rgba(46, 30, 57, 0.53)"></path><path d="M510 12 a6 6 0 1 0 12 0 a6 6 0 1 0 -12 0zM438 12 a6 6 0 1 0 12 0 a6 6 0 1 0 -12 0z" fill="rgba(46, 30, 57, 0.53)"></path><path d="M492 156L396 156" stroke-width="4" stroke="rgba(46, 30, 57, 0.53)"></path><path d="M486 156 a6 6 0 1 0 12 0 a6 6 0 1 0 -12 0zM390 156 a6 6 0 1 0 12 0 a6 6 0 1 0 -12 0z" fill="rgba(46, 30, 57, 0.53)"></path><path d="M132 84L228 180L300 180L372 252L372 276L348 300" stroke-width="4" stroke="rgba(46, 30, 57, 0.53)"></path><path d="M126 84 a6 6 0 1 0 12 0 a6 6 0 1 0 -12 0zM342 300 a6 6 0 1 0 12 0 a6 6 0 1 0 -12 0z" fill="rgba(46, 30, 57, 0.53)"></path><path d="M252 636L276 636L300 660L300 804" stroke-width="4" stroke="rgba(46, 30, 57, 0.53)"></path><path d="M246 636 a6 6 0 1 0 12 0 a6 6 0 1 0 -12 0zM294 804 a6 6 0 1 0 12 0 a6 6 0 1 0 -12 0z" fill="rgba(46, 30, 57, 0.53)"></path><path d="M156 228L156 396L180 420" stroke-width="4" stroke="rgba(46, 30, 57, 0.53)"></path><path d="M150 228 a6 6 0 1 0 12 0 a6 6 0 1 0 -12 0zM174 420 a6 6 0 1 0 12 0 a6 6 0 1 0 -12 0z" fill="rgba(46, 30, 57, 0.53)"></path><path d="M156 636L36 756L12 756" stroke-width="4" stroke="rgba(46, 30, 57, 0.53)"></path><path d="M150 636 a6 6 0 1 0 12 0 a6 6 0 1 0 -12 0zM6 756 a6 6 0 1 0 12 0 a6 6 0 1 0 -12 0z" fill="rgba(46, 30, 57, 0.53)"></path><path d="M996 348L1020 372L1044 372" stroke-width="4" stroke="rgba(46, 30, 57, 0.53)"></path><path d="M990 348 a6 6 0 1 0 12 0 a6 6 0 1 0 -12 0zM1038 372 a6 6 0 1 0 12 0 a6 6 0 1 0 -12 0z" fill="rgba(46, 30, 57, 0.53)"></path><path d="M516 444L516 396L468 348" stroke-width="4" stroke="rgba(46, 30, 57, 0.53)"></path><path d="M510 444 a6 6 0 1 0 12 0 a6 6 0 1 0 -12 0zM462 348 a6 6 0 1 0 12 0 a6 6 0 1 0 -12 0z" fill="rgba(46, 30, 57, 0.53)"></path><path d="M564 492L612 492L636 516L636 540" stroke-width="4" stroke="rgba(46, 30, 57, 0.53)"></path><path d="M558 492 a6 6 0 1 0 12 0 a6 6 0 1 0 -12 0zM630 540 a6 6 0 1 0 12 0 a6 6 0 1 0 -12 0z" fill="rgba(46, 30, 57, 0.53)"></path><path d="M636 612L708 684" stroke-width="4" stroke="rgba(46, 30, 57, 0.53)"></path><path d="M630 612 a6 6 0 1 0 12 0 a6 6 0 1 0 -12 0zM702 684 a6 6 0 1 0 12 0 a6 6 0 1 0 -12 0z" fill="rgba(46, 30, 57, 0.53)"></path><path d="M36 612L36 516" stroke-width="4" stroke="rgba(46, 30, 57, 0.53)"></path><path d="M30 612 a6 6 0 1 0 12 0 a6 6 0 1 0 -12 0zM30 516 a6 6 0 1 0 12 0 a6 6 0 1 0 -12 0z" fill="rgba(46, 30, 57, 0.53)"></path><path d="M540 564L468 492L420 492L396 468" stroke-width="4" stroke="rgba(46, 30, 57, 0.53)"></path><path d="M534 564 a6 6 0 1 0 12 0 a6 6 0 1 0 -12 0zM390 468 a6 6 0 1 0 12 0 a6 6 0 1 0 -12 0z" fill="rgba(46, 30, 57, 0.53)"></path><path d="M564 684L612 732L684 732" stroke-width="4" stroke="rgba(46, 30, 57, 0.53)"></path><path d="M558 684 a6 6 0 1 0 12 0 a6 6 0 1 0 -12 0zM678 732 a6 6 0 1 0 12 0 a6 6 0 1 0 -12 0z" fill="rgba(46, 30, 57, 0.53)"></path><path d="M132 708L132 732L108 756L60 756" stroke-width="4" stroke="rgba(46, 30, 57, 0.53)"></path><path d="M126 708 a6 6 0 1 0 12 0 a6 6 0 1 0 -12 0zM54 756 a6 6 0 1 0 12 0 a6 6 0 1 0 -12 0z" fill="rgba(46, 30, 57, 0.53)"></path><path d="M252 516L228 516L204 492L204 468L252 420L276 420L372 516L372 564" stroke-width="4" stroke="rgba(46, 30, 57, 0.53)"></path><path d="M246 516 a6 6 0 1 0 12 0 a6 6 0 1 0 -12 0zM366 564 a6 6 0 1 0 12 0 a6 6 0 1 0 -12 0z" fill="rgba(46, 30, 57, 0.53)"></path><path d="M1260 444L1308 444" stroke-width="4" stroke="rgba(46, 30, 57, 0.53)"></path><path d="M1254 444 a6 6 0 1 0 12 0 a6 6 0 1 0 -12 0zM1302 444 a6 6 0 1 0 12 0 a6 6 0 1 0 -12 0z" fill="rgba(46, 30, 57, 0.53)"></path><path d="M1452 492L1404 492L1356 540" stroke-width="4" stroke="rgba(46, 30, 57, 0.53)"></path><path d="M1446 492 a6 6 0 1 0 12 0 a6 6 0 1 0 -12 0zM1350 540 a6 6 0 1 0 12 0 a6 6 0 1 0 -12 0z" fill="rgba(46, 30, 57, 0.53)"></path><path d="M1044 516L1044 444" stroke-width="4" stroke="rgba(46, 30, 57, 0.53)"></path><path d="M1038 516 a6 6 0 1 0 12 0 a6 6 0 1 0 -12 0zM1038 444 a6 6 0 1 0 12 0 a6 6 0 1 0 -12 0z" fill="rgba(46, 30, 57, 0.53)"></path><path d="M180 84L180 108L228 156L276 156" stroke-width="4" stroke="rgba(46, 30, 57, 0.53)"></path><path d="M174 84 a6 6 0 1 0 12 0 a6 6 0 1 0 -12 0zM270 156 a6 6 0 1 0 12 0 a6 6 0 1 0 -12 0z" fill="rgba(46, 30, 57, 0.53)"></path><path d="M1428 324L1428 228L1500 156" stroke-width="4" stroke="rgba(46, 30, 57, 0.53)"></path><path d="M1422 324 a6 6 0 1 0 12 0 a6 6 0 1 0 -12 0zM1494 156 a6 6 0 1 0 12 0 a6 6 0 1 0 -12 0z" fill="rgba(46, 30, 57, 0.53)"></path><path d="M948 228L852 228L804 276L804 300" stroke-width="4" stroke="rgba(46, 30, 57, 0.53)"></path><path d="M942 228 a6 6 0 1 0 12 0 a6 6 0 1 0 -12 0zM798 300 a6 6 0 1 0 12 0 a6 6 0 1 0 -12 0z" fill="rgba(46, 30, 57, 0.53)"></path><path d="M420 804L420 780L324 684" stroke-width="4" stroke="rgba(46, 30, 57, 0.53)"></path><path d="M414 804 a6 6 0 1 0 12 0 a6 6 0 1 0 -12 0zM318 684 a6 6 0 1 0 12 0 a6 6 0 1 0 -12 0z" fill="rgba(46, 30, 57, 0.53)"></path><path d="M108 60L12 156L12 180" stroke-width="4" stroke="rgba(46, 30, 57, 0.53)"></path><path d="M102 60 a6 6 0 1 0 12 0 a6 6 0 1 0 -12 0zM6 180 a6 6 0 1 0 12 0 a6 6 0 1 0 -12 0z" fill="rgba(46, 30, 57, 0.53)"></path><path d="M1116 276L1116 372L1212 468" stroke-width="4" stroke="rgba(46, 30, 57, 0.53)"></path><path d="M1110 276 a6 6 0 1 0 12 0 a6 6 0 1 0 -12 0zM1206 468 a6 6 0 1 0 12 0 a6 6 0 1 0 -12 0z" fill="rgba(46, 30, 57, 0.53)"></path><path d="M708 108L732 132L732 252L636 348L636 396" stroke-width="4" stroke="rgba(46, 30, 57, 0.53)"></path><path d="M702 108 a6 6 0 1 0 12 0 a6 6 0 1 0 -12 0zM630 396 a6 6 0 1 0 12 0 a6 6 0 1 0 -12 0z" fill="rgba(46, 30, 57, 0.53)"></path><path d="M180 348L180 252" stroke-width="4" stroke="rgba(46, 30, 57, 0.53)"></path><path d="M174 348 a6 6 0 1 0 12 0 a6 6 0 1 0 -12 0zM174 252 a6 6 0 1 0 12 0 a6 6 0 1 0 -12 0z" fill="rgba(46, 30, 57, 0.53)"></path><path d="M876 300L924 252L948 252" stroke-width="4" stroke="rgba(46, 30, 57, 0.53)"></path><path d="M870 300 a6 6 0 1 0 12 0 a6 6 0 1 0 -12 0zM942 252 a6 6 0 1 0 12 0 a6 6 0 1 0 -12 0z" fill="rgba(46, 30, 57, 0.53)"></path><path d="M324 252L324 228L300 204" stroke-width="4" stroke="rgba(46, 30, 57, 0.53)"></path><path d="M318 252 a6 6 0 1 0 12 0 a6 6 0 1 0 -12 0zM294 204 a6 6 0 1 0 12 0 a6 6 0 1 0 -12 0z" fill="rgba(46, 30, 57, 0.53)"></path><path d="M1452 36L1380 108L1092 108L1068 84L1068 12" stroke-width="4" stroke="rgba(46, 30, 57, 0.53)"></path><path d="M1446 36 a6 6 0 1 0 12 0 a6 6 0 1 0 -12 0zM1062 12 a6 6 0 1 0 12 0 a6 6 0 1 0 -12 0z" fill="rgba(46, 30, 57, 0.53)"></path><path d="M876 684L852 660L804 660L780 636L780 612L876 516" stroke-width="4" stroke="rgba(46, 30, 57, 0.53)"></path><path d="M870 684 a6 6 0 1 0 12 0 a6 6 0 1 0 -12 0zM870 516 a6 6 0 1 0 12 0 a6 6 0 1 0 -12 0z" fill="rgba(46, 30, 57, 0.53)"></path><path d="M1404 636L1404 516" stroke-width="4" stroke="rgba(46, 30, 57, 0.53)"></path><path d="M1398 636 a6 6 0 1 0 12 0 a6 6 0 1 0 -12 0zM1398 516 a6 6 0 1 0 12 0 a6 6 0 1 0 -12 0z" fill="rgba(46, 30, 57, 0.53)"></path><path d="M348 804L372 780L396 780" stroke-width="4" stroke="rgba(46, 30, 57, 0.53)"></path><path d="M342 804 a6 6 0 1 0 12 0 a6 6 0 1 0 -12 0zM390 780 a6 6 0 1 0 12 0 a6 6 0 1 0 -12 0z" fill="rgba(46, 30, 57, 0.53)"></path><path d="M1020 132L948 60L900 60" stroke-width="4" stroke="rgba(46, 30, 57, 0.53)"></path><path d="M1014 132 a6 6 0 1 0 12 0 a6 6 0 1 0 -12 0zM894 60 a6 6 0 1 0 12 0 a6 6 0 1 0 -12 0z" fill="rgba(46, 30, 57, 0.53)"></path><path d="M828 636L852 636L876 660" stroke-width="4" stroke="rgba(46, 30, 57, 0.53)"></path><path d="M822 636 a6 6 0 1 0 12 0 a6 6 0 1 0 -12 0zM870 660 a6 6 0 1 0 12 0 a6 6 0 1 0 -12 0z" fill="rgba(46, 30, 57, 0.53)"></path><path d="M132 132L132 108L108 84" stroke-width="4" stroke="rgba(46, 30, 57, 0.53)"></path><path d="M126 132 a6 6 0 1 0 12 0 a6 6 0 1 0 -12 0zM102 84 a6 6 0 1 0 12 0 a6 6 0 1 0 -12 0z" fill="rgba(46, 30, 57, 0.53)"></path><path d="M852 804L780 732" stroke-width="4" stroke="rgba(46, 30, 57, 0.53)"></path><path d="M846 804 a6 6 0 1 0 12 0 a6 6 0 1 0 -12 0zM774 732 a6 6 0 1 0 12 0 a6 6 0 1 0 -12 0z" fill="rgba(46, 30, 57, 0.53)"></path><path d="M1068 276L1044 276L1020 300" stroke-width="4" stroke="rgba(46, 30, 57, 0.53)"></path><path d="M1062 276 a6 6 0 1 0 12 0 a6 6 0 1 0 -12 0zM1014 300 a6 6 0 1 0 12 0 a6 6 0 1 0 -12 0z" fill="rgba(46, 30, 57, 0.53)"></path><path d="M468 84L444 84L396 132" stroke-width="4" stroke="rgba(46, 30, 57, 0.53)"></path><path d="M462 84 a6 6 0 1 0 12 0 a6 6 0 1 0 -12 0zM390 132 a6 6 0 1 0 12 0 a6 6 0 1 0 -12 0z" fill="rgba(46, 30, 57, 0.53)"></path><path d="M1332 84L1404 12L1428 12" stroke-width="4" stroke="rgba(46, 30, 57, 0.53)"></path><path d="M1326 84 a6 6 0 1 0 12 0 a6 6 0 1 0 -12 0zM1422 12 a6 6 0 1 0 12 0 a6 6 0 1 0 -12 0z" fill="rgba(46, 30, 57, 0.53)"></path><path d="M1380 564L1380 708" stroke-width="4" stroke="rgba(46, 30, 57, 0.53)"></path><path d="M1374 564 a6 6 0 1 0 12 0 a6 6 0 1 0 -12 0zM1374 708 a6 6 0 1 0 12 0 a6 6 0 1 0 -12 0z" fill="rgba(46, 30, 57, 0.53)"></path><path d="M708 132L708 252L636 324" stroke-width="4" stroke="rgba(46, 30, 57, 0.53)"></path><path d="M702 132 a6 6 0 1 0 12 0 a6 6 0 1 0 -12 0zM630 324 a6 6 0 1 0 12 0 a6 6 0 1 0 -12 0z" fill="rgba(46, 30, 57, 0.53)"></path><path d="M1068 156L1092 180L1116 180" stroke-width="4" stroke="rgba(46, 30, 57, 0.53)"></path><path d="M1062 156 a6 6 0 1 0 12 0 a6 6 0 1 0 -12 0zM1110 180 a6 6 0 1 0 12 0 a6 6 0 1 0 -12 0z" fill="rgba(46, 30, 57, 0.53)"></path><path d="M1380 324L1404 324L1428 348L1500 348" stroke-width="4" stroke="rgba(46, 30, 57, 0.53)"></path><path d="M1374 324 a6 6 0 1 0 12 0 a6 6 0 1 0 -12 0zM1494 348 a6 6 0 1 0 12 0 a6 6 0 1 0 -12 0z" fill="rgba(46, 30, 57, 0.53)"></path><path d="M1452 684L1476 708L1476 804" stroke-width="4" stroke="rgba(46, 30, 57, 0.53)"></path><path d="M1446 684 a6 6 0 1 0 12 0 a6 6 0 1 0 -12 0zM1470 804 a6 6 0 1 0 12 0 a6 6 0 1 0 -12 0z" fill="rgba(46, 30, 57, 0.53)"></path><path d="M900 372L996 372" stroke-width="4" stroke="rgba(46, 30, 57, 0.53)"></path><path d="M894 372 a6 6 0 1 0 12 0 a6 6 0 1 0 -12 0zM990 372 a6 6 0 1 0 12 0 a6 6 0 1 0 -12 0z" fill="rgba(46, 30, 57, 0.53)"></path><path d="M660 156L660 36" stroke-width="4" stroke="rgba(46, 30, 57, 0.53)"></path><path d="M654 156 a6 6 0 1 0 12 0 a6 6 0 1 0 -12 0zM654 36 a6 6 0 1 0 12 0 a6 6 0 1 0 -12 0z" fill="rgba(46, 30, 57, 0.53)"></path><path d="M1140 324L1140 372L1212 444L1236 444L1284 396" stroke-width="4" stroke="rgba(46, 30, 57, 0.53)"></path><path d="M1134 324 a6 6 0 1 0 12 0 a6 6 0 1 0 -12 0zM1278 396 a6 6 0 1 0 12 0 a6 6 0 1 0 -12 0z" fill="rgba(46, 30, 57, 0.53)"></path><path d="M108 156L180 156L204 180" stroke-width="4" stroke="rgba(46, 30, 57, 0.53)"></path><path d="M102 156 a6 6 0 1 0 12 0 a6 6 0 1 0 -12 0zM198 180 a6 6 0 1 0 12 0 a6 6 0 1 0 -12 0z" fill="rgba(46, 30, 57, 0.53)"></path><path d="M948 612L948 588L900 540L876 540L804 612L804 636" stroke-width="4" stroke="rgba(46, 30, 57, 0.53)"></path><path d="M942 612 a6 6 0 1 0 12 0 a6 6 0 1 0 -12 0zM798 636 a6 6 0 1 0 12 0 a6 6 0 1 0 -12 0z" fill="rgba(46, 30, 57, 0.53)"></path><path d="M468 732L492 708L492 660" stroke-width="4" stroke="rgba(46, 30, 57, 0.53)"></path><path d="M462 732 a6 6 0 1 0 12 0 a6 6 0 1 0 -12 0zM486 660 a6 6 0 1 0 12 0 a6 6 0 1 0 -12 0z" fill="rgba(46, 30, 57, 0.53)"></path><path d="M1236 372L1212 396L1188 396L1164 372L1164 276L1116 228L1068 228" stroke-width="4" stroke="rgba(46, 30, 57, 0.53)"></path><path d="M1230 372 a6 6 0 1 0 12 0 a6 6 0 1 0 -12 0zM1062 228 a6 6 0 1 0 12 0 a6 6 0 1 0 -12 0z" fill="rgba(46, 30, 57, 0.53)"></path><path d="M228 756L204 780L180 780" stroke-width="4" stroke="rgba(46, 30, 57, 0.53)"></path><path d="M222 756 a6 6 0 1 0 12 0 a6 6 0 1 0 -12 0zM174 780 a6 6 0 1 0 12 0 a6 6 0 1 0 -12 0z" fill="rgba(46, 30, 57, 0.53)"></path><path d="M1164 36L1116 84L1092 84" stroke-width="4" stroke="rgba(46, 30, 57, 0.53)"></path><path d="M1158 36 a6 6 0 1 0 12 0 a6 6 0 1 0 -12 0zM1086 84 a6 6 0 1 0 12 0 a6 6 0 1 0 -12 0z" fill="rgba(46, 30, 57, 0.53)"></path><path d="M1188 684L1236 732L1308 732" stroke-width="4" stroke="rgba(46, 30, 57, 0.53)"></path><path d="M1182 684 a6 6 0 1 0 12 0 a6 6 0 1 0 -12 0zM1302 732 a6 6 0 1 0 12 0 a6 6 0 1 0 -12 0z" fill="rgba(46, 30, 57, 0.53)"></path><path d="M1260 204L1332 132L1452 132" stroke-width="4" stroke="rgba(46, 30, 57, 0.53)"></path><path d="M1254 204 a6 6 0 1 0 12 0 a6 6 0 1 0 -12 0zM1446 132 a6 6 0 1 0 12 0 a6 6 0 1 0 -12 0z" fill="rgba(46, 30, 57, 0.53)"></path><path d="M324 84L300 108L300 132L324 156" stroke-width="4" stroke="rgba(46, 30, 57, 0.53)"></path><path d="M318 84 a6 6 0 1 0 12 0 a6 6 0 1 0 -12 0zM318 156 a6 6 0 1 0 12 0 a6 6 0 1 0 -12 0z" fill="rgba(46, 30, 57, 0.53)"></path><path d="M756 444L756 396L804 348L852 348L876 372L876 396L756 516L756 540" stroke-width="4" stroke="rgba(46, 30, 57, 0.53)"></path><path d="M750 444 a6 6 0 1 0 12 0 a6 6 0 1 0 -12 0zM750 540 a6 6 0 1 0 12 0 a6 6 0 1 0 -12 0z" fill="rgba(46, 30, 57, 0.53)"></path><path d="M396 60L396 12" stroke-width="4" stroke="rgba(46, 30, 57, 0.53)"></path><path d="M390 60 a6 6 0 1 0 12 0 a6 6 0 1 0 -12 0zM390 12 a6 6 0 1 0 12 0 a6 6 0 1 0 -12 0z" fill="rgba(46, 30, 57, 0.53)"></path><path d="M228 732L156 660" stroke-width="4" stroke="rgba(46, 30, 57, 0.53)"></path><path d="M222 732 a6 6 0 1 0 12 0 a6 6 0 1 0 -12 0zM150 660 a6 6 0 1 0 12 0 a6 6 0 1 0 -12 0z" fill="rgba(46, 30, 57, 0.53)"></path><path d="M540 228L540 180L516 156" stroke-width="4" stroke="rgba(46, 30, 57, 0.53)"></path><path d="M534 228 a6 6 0 1 0 12 0 a6 6 0 1 0 -12 0zM510 156 a6 6 0 1 0 12 0 a6 6 0 1 0 -12 0z" fill="rgba(46, 30, 57, 0.53)"></path><path d="M564 612L660 708L684 708" stroke-width="4" stroke="rgba(46, 30, 57, 0.53)"></path><path d="M558 612 a6 6 0 1 0 12 0 a6 6 0 1 0 -12 0zM678 708 a6 6 0 1 0 12 0 a6 6 0 1 0 -12 0z" fill="rgba(46, 30, 57, 0.53)"></path><path d="M1404 180L1380 204L1284 204L1260 228" stroke-width="4" stroke="rgba(46, 30, 57, 0.53)"></path><path d="M1398 180 a6 6 0 1 0 12 0 a6 6 0 1 0 -12 0zM1254 228 a6 6 0 1 0 12 0 a6 6 0 1 0 -12 0z" fill="rgba(46, 30, 57, 0.53)"></path><path d="M444 204L420 180L396 180" stroke-width="4" stroke="rgba(46, 30, 57, 0.53)"></path><path d="M438 204 a6 6 0 1 0 12 0 a6 6 0 1 0 -12 0zM390 180 a6 6 0 1 0 12 0 a6 6 0 1 0 -12 0z" fill="rgba(46, 30, 57, 0.53)"></path><path d="M12 732L36 732L204 564" stroke-width="4" stroke="rgba(46, 30, 57, 0.53)"></path><path d="M6 732 a6 6 0 1 0 12 0 a6 6 0 1 0 -12 0zM198 564 a6 6 0 1 0 12 0 a6 6 0 1 0 -12 0z" fill="rgba(46, 30, 57, 0.53)"></path><path d="M1332 612L1332 564" stroke-width="4" stroke="rgba(46, 30, 57, 0.53)"></path><path d="M1326 612 a6 6 0 1 0 12 0 a6 6 0 1 0 -12 0zM1326 564 a6 6 0 1 0 12 0 a6 6 0 1 0 -12 0z" fill="rgba(46, 30, 57, 0.53)"></path><path d="M852 108L876 132L924 132L996 204" stroke-width="4" stroke="rgba(46, 30, 57, 0.53)"></path><path d="M846 108 a6 6 0 1 0 12 0 a6 6 0 1 0 -12 0zM990 204 a6 6 0 1 0 12 0 a6 6 0 1 0 -12 0z" fill="rgba(46, 30, 57, 0.53)"></path><path d="M108 636L180 564L180 540L156 516L60 516" stroke-width="4" stroke="rgba(46, 30, 57, 0.53)"></path><path d="M102 636 a6 6 0 1 0 12 0 a6 6 0 1 0 -12 0zM54 516 a6 6 0 1 0 12 0 a6 6 0 1 0 -12 0z" fill="rgba(46, 30, 57, 0.53)"></path><path d="M276 228L204 300" stroke-width="4" stroke="rgba(46, 30, 57, 0.53)"></path><path d="M270 228 a6 6 0 1 0 12 0 a6 6 0 1 0 -12 0zM198 300 a6 6 0 1 0 12 0 a6 6 0 1 0 -12 0z" fill="rgba(46, 30, 57, 0.53)"></path><path d="M924 684L972 636" stroke-width="4" stroke="rgba(46, 30, 57, 0.53)"></path><path d="M918 684 a6 6 0 1 0 12 0 a6 6 0 1 0 -12 0zM966 636 a6 6 0 1 0 12 0 a6 6 0 1 0 -12 0z" fill="rgba(46, 30, 57, 0.53)"></path><path d="M708 516L708 444L684 420L684 396" stroke-width="4" stroke="rgba(46, 30, 57, 0.53)"></path><path d="M702 516 a6 6 0 1 0 12 0 a6 6 0 1 0 -12 0zM678 396 a6 6 0 1 0 12 0 a6 6 0 1 0 -12 0z" fill="rgba(46, 30, 57, 0.53)"></path><path d="M684 804L732 756L756 756L780 780" stroke-width="4" stroke="rgba(46, 30, 57, 0.53)"></path><path d="M678 804 a6 6 0 1 0 12 0 a6 6 0 1 0 -12 0zM774 780 a6 6 0 1 0 12 0 a6 6 0 1 0 -12 0z" fill="rgba(46, 30, 57, 0.53)"></path><path d="M1092 36L1140 36L1164 12L1380 12" stroke-width="4" stroke="rgba(46, 30, 57, 0.53)"></path><path d="M1086 36 a6 6 0 1 0 12 0 a6 6 0 1 0 -12 0zM1374 12 a6 6 0 1 0 12 0 a6 6 0 1 0 -12 0z" fill="rgba(46, 30, 57, 0.53)"></path><path d="M276 564L300 564L348 516" stroke-width="4" stroke="rgba(46, 30, 57, 0.53)"></path><path d="M270 564 a6 6 0 1 0 12 0 a6 6 0 1 0 -12 0zM342 516 a6 6 0 1 0 12 0 a6 6 0 1 0 -12 0z" fill="rgba(46, 30, 57, 0.53)"></path><path d="M108 228L60 228" stroke-width="4" stroke="rgba(46, 30, 57, 0.53)"></path><path d="M102 228 a6 6 0 1 0 12 0 a6 6 0 1 0 -12 0zM54 228 a6 6 0 1 0 12 0 a6 6 0 1 0 -12 0z" fill="rgba(46, 30, 57, 0.53)"></path><path d="M972 444L924 444L900 468L876 468" stroke-width="4" stroke="rgba(46, 30, 57, 0.53)"></path><path d="M966 444 a6 6 0 1 0 12 0 a6 6 0 1 0 -12 0zM870 468 a6 6 0 1 0 12 0 a6 6 0 1 0 -12 0z" fill="rgba(46, 30, 57, 0.53)"></path><path d="M540 372L540 300" stroke-width="4" stroke="rgba(46, 30, 57, 0.53)"></path><path d="M534 372 a6 6 0 1 0 12 0 a6 6 0 1 0 -12 0zM534 300 a6 6 0 1 0 12 0 a6 6 0 1 0 -12 0z" fill="rgba(46, 30, 57, 0.53)"></path><path d="M1068 780L1092 756L1140 756L1188 804L1236 804" stroke-width="4" stroke="rgba(46, 30, 57, 0.53)"></path><path d="M1062 780 a6 6 0 1 0 12 0 a6 6 0 1 0 -12 0zM1230 804 a6 6 0 1 0 12 0 a6 6 0 1 0 -12 0z" fill="rgba(46, 30, 57, 0.53)"></path><path d="M1068 252L1092 276L1092 300L1068 324L1068 348" stroke-width="4" stroke="rgba(46, 30, 57, 0.53)"></path><path d="M1062 252 a6 6 0 1 0 12 0 a6 6 0 1 0 -12 0zM1062 348 a6 6 0 1 0 12 0 a6 6 0 1 0 -12 0z" fill="rgba(46, 30, 57, 0.53)"></path><path d="M1452 276L1500 276" stroke-width="4" stroke="rgba(46, 30, 57, 0.53)"></path><path d="M1446 276 a6 6 0 1 0 12 0 a6 6 0 1 0 -12 0zM1494 276 a6 6 0 1 0 12 0 a6 6 0 1 0 -12 0z" fill="rgba(46, 30, 57, 0.53)"></path><path d="M1284 612L1212 684" stroke-width="4" stroke="rgba(46, 30, 57, 0.53)"></path><path d="M1278 612 a6 6 0 1 0 12 0 a6 6 0 1 0 -12 0zM1206 684 a6 6 0 1 0 12 0 a6 6 0 1 0 -12 0z" fill="rgba(46, 30, 57, 0.53)"></path><path d="M1068 756L1020 756L972 804" stroke-width="4" stroke="rgba(46, 30, 57, 0.53)"></path><path d="M1062 756 a6 6 0 1 0 12 0 a6 6 0 1 0 -12 0zM966 804 a6 6 0 1 0 12 0 a6 6 0 1 0 -12 0z" fill="rgba(46, 30, 57, 0.53)"></path><path d="M1308 300L1428 420L1500 420" stroke-width="4" stroke="rgba(46, 30, 57, 0.53)"></path><path d="M1302 300 a6 6 0 1 0 12 0 a6 6 0 1 0 -12 0zM1494 420 a6 6 0 1 0 12 0 a6 6 0 1 0 -12 0z" fill="rgba(46, 30, 57, 0.53)"></path><path d="M564 348L564 300" stroke-width="4" stroke="rgba(46, 30, 57, 0.53)"></path><path d="M558 348 a6 6 0 1 0 12 0 a6 6 0 1 0 -12 0zM558 300 a6 6 0 1 0 12 0 a6 6 0 1 0 -12 0z" fill="rgba(46, 30, 57, 0.53)"></path><path d="M1212 84L1140 84" stroke-width="4" stroke="rgba(46, 30, 57, 0.53)"></path><path d="M1206 84 a6 6 0 1 0 12 0 a6 6 0 1 0 -12 0zM1134 84 a6 6 0 1 0 12 0 a6 6 0 1 0 -12 0z" fill="rgba(46, 30, 57, 0.53)"></path><path d="M252 228L228 228L204 252L204 276" stroke-width="4" stroke="rgba(46, 30, 57, 0.53)"></path><path d="M246 228 a6 6 0 1 0 12 0 a6 6 0 1 0 -12 0zM198 276 a6 6 0 1 0 12 0 a6 6 0 1 0 -12 0z" fill="rgba(46, 30, 57, 0.53)"></path><path d="M684 228L684 252L636 300" stroke-width="4" stroke="rgba(46, 30, 57, 0.53)"></path><path d="M678 228 a6 6 0 1 0 12 0 a6 6 0 1 0 -12 0zM630 300 a6 6 0 1 0 12 0 a6 6 0 1 0 -12 0z" fill="rgba(46, 30, 57, 0.53)"></path><path d="M588 684L564 660L564 636" stroke-width="4" stroke="rgba(46, 30, 57, 0.53)"></path><path d="M582 684 a6 6 0 1 0 12 0 a6 6 0 1 0 -12 0zM558 636 a6 6 0 1 0 12 0 a6 6 0 1 0 -12 0z" fill="rgba(46, 30, 57, 0.53)"></path><path d="M444 420L468 396L468 372" stroke-width="4" stroke="rgba(46, 30, 57, 0.53)"></path><path d="M438 420 a6 6 0 1 0 12 0 a6 6 0 1 0 -12 0zM462 372 a6 6 0 1 0 12 0 a6 6 0 1 0 -12 0z" fill="rgba(46, 30, 57, 0.53)"></path><path d="M1068 732L1068 708L1140 636L1188 636" stroke-width="4" stroke="rgba(46, 30, 57, 0.53)"></path><path d="M1062 732 a6 6 0 1 0 12 0 a6 6 0 1 0 -12 0zM1182 636 a6 6 0 1 0 12 0 a6 6 0 1 0 -12 0z" fill="rgba(46, 30, 57, 0.53)"></path><path d="M1212 60L1308 60L1332 36L1356 36" stroke-width="4" stroke="rgba(46, 30, 57, 0.53)"></path><path d="M1206 60 a6 6 0 1 0 12 0 a6 6 0 1 0 -12 0zM1350 36 a6 6 0 1 0 12 0 a6 6 0 1 0 -12 0z" fill="rgba(46, 30, 57, 0.53)"></path><path d="M84 588L36 636L36 708" stroke-width="4" stroke="rgba(46, 30, 57, 0.53)"></path><path d="M78 588 a6 6 0 1 0 12 0 a6 6 0 1 0 -12 0zM30 708 a6 6 0 1 0 12 0 a6 6 0 1 0 -12 0z" fill="rgba(46, 30, 57, 0.53)"></path><path d="M60 300L36 276L12 276" stroke-width="4" stroke="rgba(46, 30, 57, 0.53)"></path><path d="M54 300 a6 6 0 1 0 12 0 a6 6 0 1 0 -12 0zM6 276 a6 6 0 1 0 12 0 a6 6 0 1 0 -12 0z" fill="rgba(46, 30, 57, 0.53)"></path><path d="M636 252L636 204L684 156L684 60L708 36L732 36" stroke-width="4" stroke="rgba(46, 30, 57, 0.53)"></path><path d="M630 252 a6 6 0 1 0 12 0 a6 6 0 1 0 -12 0zM726 36 a6 6 0 1 0 12 0 a6 6 0 1 0 -12 0z" fill="rgba(46, 30, 57, 0.53)"></path><path d="M84 612L156 540" stroke-width="4" stroke="rgba(46, 30, 57, 0.53)"></path><path d="M78 612 a6 6 0 1 0 12 0 a6 6 0 1 0 -12 0zM150 540 a6 6 0 1 0 12 0 a6 6 0 1 0 -12 0z" fill="rgba(46, 30, 57, 0.53)"></path><path d="M156 180L84 180" stroke-width="4" stroke="rgba(46, 30, 57, 0.53)"></path><path d="M150 180 a6 6 0 1 0 12 0 a6 6 0 1 0 -12 0zM78 180 a6 6 0 1 0 12 0 a6 6 0 1 0 -12 0z" fill="rgba(46, 30, 57, 0.53)"></path><path d="M252 492L252 444" stroke-width="4" stroke="rgba(46, 30, 57, 0.53)"></path><path d="M246 492 a6 6 0 1 0 12 0 a6 6 0 1 0 -12 0zM246 444 a6 6 0 1 0 12 0 a6 6 0 1 0 -12 0z" fill="rgba(46, 30, 57, 0.53)"></path><path d="M492 60L516 60L564 108" stroke-width="4" stroke="rgba(46, 30, 57, 0.53)"></path><path d="M486 60 a6 6 0 1 0 12 0 a6 6 0 1 0 -12 0zM558 108 a6 6 0 1 0 12 0 a6 6 0 1 0 -12 0z" fill="rgba(46, 30, 57, 0.53)"></path><path d="M852 132L852 204" stroke-width="4" stroke="rgba(46, 30, 57, 0.53)"></path><path d="M846 132 a6 6 0 1 0 12 0 a6 6 0 1 0 -12 0zM846 204 a6 6 0 1 0 12 0 a6 6 0 1 0 -12 0z" fill="rgba(46, 30, 57, 0.53)"></path><path d="M36 36L156 36L180 60" stroke-width="4" stroke="rgba(46, 30, 57, 0.53)"></path><path d="M30 36 a6 6 0 1 0 12 0 a6 6 0 1 0 -12 0zM174 60 a6 6 0 1 0 12 0 a6 6 0 1 0 -12 0z" fill="rgba(46, 30, 57, 0.53)"></path><path d="M540 492L540 420" stroke-width="4" stroke="rgba(46, 30, 57, 0.53)"></path><path d="M534 492 a6 6 0 1 0 12 0 a6 6 0 1 0 -12 0zM534 420 a6 6 0 1 0 12 0 a6 6 0 1 0 -12 0z" fill="rgba(46, 30, 57, 0.53)"></path><path d="M252 132L204 84" stroke-width="4" stroke="rgba(46, 30, 57, 0.53)"></path><path d="M246 132 a6 6 0 1 0 12 0 a6 6 0 1 0 -12 0zM198 84 a6 6 0 1 0 12 0 a6 6 0 1 0 -12 0z" fill="rgba(46, 30, 57, 0.53)"></path><path d="M372 324L372 348L396 372L396 396L372 420L348 420L324 396L324 372" stroke-width="4" stroke="rgba(46, 30, 57, 0.53)"></path><path d="M366 324 a6 6 0 1 0 12 0 a6 6 0 1 0 -12 0zM318 372 a6 6 0 1 0 12 0 a6 6 0 1 0 -12 0z" fill="rgba(46, 30, 57, 0.53)"></path><path d="M924 492L948 468L972 468" stroke-width="4" stroke="rgba(46, 30, 57, 0.53)"></path><path d="M918 492 a6 6 0 1 0 12 0 a6 6 0 1 0 -12 0zM966 468 a6 6 0 1 0 12 0 a6 6 0 1 0 -12 0z" fill="rgba(46, 30, 57, 0.53)"></path><path d="M444 564L444 516" stroke-width="4" stroke="rgba(46, 30, 57, 0.53)"></path><path d="M438 564 a6 6 0 1 0 12 0 a6 6 0 1 0 -12 0zM438 516 a6 6 0 1 0 12 0 a6 6 0 1 0 -12 0z" fill="rgba(46, 30, 57, 0.53)"></path><path d="M588 612L636 660L660 660" stroke-width="4" stroke="rgba(46, 30, 57, 0.53)"></path><path d="M582 612 a6 6 0 1 0 12 0 a6 6 0 1 0 -12 0zM654 660 a6 6 0 1 0 12 0 a6 6 0 1 0 -12 0z" fill="rgba(46, 30, 57, 0.53)"></path><path d="M300 492L300 468L276 444" stroke-width="4" stroke="rgba(46, 30, 57, 0.53)"></path><path d="M294 492 a6 6 0 1 0 12 0 a6 6 0 1 0 -12 0zM270 444 a6 6 0 1 0 12 0 a6 6 0 1 0 -12 0z" fill="rgba(46, 30, 57, 0.53)"></path><path d="M276 540L276 468" stroke-width="4" stroke="rgba(46, 30, 57, 0.53)"></path><path d="M270 540 a6 6 0 1 0 12 0 a6 6 0 1 0 -12 0zM270 468 a6 6 0 1 0 12 0 a6 6 0 1 0 -12 0z" fill="rgba(46, 30, 57, 0.53)"></path><path d="M132 396L132 228" stroke-width="4" stroke="rgba(46, 30, 57, 0.53)"></path><path d="M126 396 a6 6 0 1 0 12 0 a6 6 0 1 0 -12 0zM126 228 a6 6 0 1 0 12 0 a6 6 0 1 0 -12 0z" fill="rgba(46, 30, 57, 0.53)"></path><path d="M1092 780L1116 804L1140 804" stroke-width="4" stroke="rgba(46, 30, 57, 0.53)"></path><path d="M1086 780 a6 6 0 1 0 12 0 a6 6 0 1 0 -12 0zM1134 804 a6 6 0 1 0 12 0 a6 6 0 1 0 -12 0z" fill="rgba(46, 30, 57, 0.53)"></path><path d="M1212 324L1188 348L1188 372" stroke-width="4" stroke="rgba(46, 30, 57, 0.53)"></path><path d="M1206 324 a6 6 0 1 0 12 0 a6 6 0 1 0 -12 0zM1182 372 a6 6 0 1 0 12 0 a6 6 0 1 0 -12 0z" fill="rgba(46, 30, 57, 0.53)"></path><path d="M84 540L60 564L60 588" stroke-width="4" stroke="rgba(46, 30, 57, 0.53)"></path><path d="M78 540 a6 6 0 1 0 12 0 a6 6 0 1 0 -12 0zM54 588 a6 6 0 1 0 12 0 a6 6 0 1 0 -12 0z" fill="rgba(46, 30, 57, 0.53)"></path><path d="M276 60L324 12" stroke-width="4" stroke="rgba(46, 30, 57, 0.53)"></path><path d="M270 60 a6 6 0 1 0 12 0 a6 6 0 1 0 -12 0zM318 12 a6 6 0 1 0 12 0 a6 6 0 1 0 -12 0z" fill="rgba(46, 30, 57, 0.53)"></path><path d="M396 708L348 660L348 636" stroke-width="4" stroke="rgba(46, 30, 57, 0.53)"></path><path d="M390 708 a6 6 0 1 0 12 0 a6 6 0 1 0 -12 0zM342 636 a6 6 0 1 0 12 0 a6 6 0 1 0 -12 0z" fill="rgba(46, 30, 57, 0.53)"></path><path d="M276 660L228 660L204 684" stroke-width="4" stroke="rgba(46, 30, 57, 0.53)"></path><path d="M270 660 a6 6 0 1 0 12 0 a6 6 0 1 0 -12 0zM198 684 a6 6 0 1 0 12 0 a6 6 0 1 0 -12 0z" fill="rgba(46, 30, 57, 0.53)"></path><path d="M324 60L276 108" stroke-width="4" stroke="rgba(46, 30, 57, 0.53)"></path><path d="M318 60 a6 6 0 1 0 12 0 a6 6 0 1 0 -12 0zM270 108 a6 6 0 1 0 12 0 a6 6 0 1 0 -12 0z" fill="rgba(46, 30, 57, 0.53)"></path><path d="M972 228L948 204L948 180" stroke-width="4" stroke="rgba(46, 30, 57, 0.53)"></path><path d="M966 228 a6 6 0 1 0 12 0 a6 6 0 1 0 -12 0zM942 180 a6 6 0 1 0 12 0 a6 6 0 1 0 -12 0z" fill="rgba(46, 30, 57, 0.53)"></path><path d="M12 348L12 444L36 468L132 468L156 444L156 420" stroke-width="4" stroke="rgba(46, 30, 57, 0.53)"></path><path d="M6 348 a6 6 0 1 0 12 0 a6 6 0 1 0 -12 0zM150 420 a6 6 0 1 0 12 0 a6 6 0 1 0 -12 0z" fill="rgba(46, 30, 57, 0.53)"></path><path d="M444 660L468 684L468 708L444 732L444 756" stroke-width="4" stroke="rgba(46, 30, 57, 0.53)"></path><path d="M438 660 a6 6 0 1 0 12 0 a6 6 0 1 0 -12 0zM438 756 a6 6 0 1 0 12 0 a6 6 0 1 0 -12 0z" fill="rgba(46, 30, 57, 0.53)"></path><path d="M636 84L636 156" stroke-width="4" stroke="rgba(46, 30, 57, 0.53)"></path><path d="M630 84 a6 6 0 1 0 12 0 a6 6 0 1 0 -12 0zM630 156 a6 6 0 1 0 12 0 a6 6 0 1 0 -12 0z" fill="rgba(46, 30, 57, 0.53)"></path><path d="M60 324L36 348L36 444" stroke-width="4" stroke="rgba(46, 30, 57, 0.53)"></path><path d="M54 324 a6 6 0 1 0 12 0 a6 6 0 1 0 -12 0zM30 444 a6 6 0 1 0 12 0 a6 6 0 1 0 -12 0z" fill="rgba(46, 30, 57, 0.53)"></path><path d="M1164 708L1140 732L1092 732" stroke-width="4" stroke="rgba(46, 30, 57, 0.53)"></path><path d="M1158 708 a6 6 0 1 0 12 0 a6 6 0 1 0 -12 0zM1086 732 a6 6 0 1 0 12 0 a6 6 0 1 0 -12 0z" fill="rgba(46, 30, 57, 0.53)"></path><path d="M1260 684L1284 684L1308 708" stroke-width="4" stroke="rgba(46, 30, 57, 0.53)"></path><path d="M1254 684 a6 6 0 1 0 12 0 a6 6 0 1 0 -12 0zM1302 708 a6 6 0 1 0 12 0 a6 6 0 1 0 -12 0z" fill="rgba(46, 30, 57, 0.53)"></path><path d="M876 564L876 636" stroke-width="4" stroke="rgba(46, 30, 57, 0.53)"></path><path d="M870 564 a6 6 0 1 0 12 0 a6 6 0 1 0 -12 0zM870 636 a6 6 0 1 0 12 0 a6 6 0 1 0 -12 0z" fill="rgba(46, 30, 57, 0.53)"></path><path d="M1404 156L1380 180L1356 180" stroke-width="4" stroke="rgba(46, 30, 57, 0.53)"></path><path d="M1398 156 a6 6 0 1 0 12 0 a6 6 0 1 0 -12 0zM1350 180 a6 6 0 1 0 12 0 a6 6 0 1 0 -12 0z" fill="rgba(46, 30, 57, 0.53)"></path><path d="M564 756L588 780L612 780" stroke-width="4" stroke="rgba(46, 30, 57, 0.53)"></path><path d="M558 756 a6 6 0 1 0 12 0 a6 6 0 1 0 -12 0zM606 780 a6 6 0 1 0 12 0 a6 6 0 1 0 -12 0z" fill="rgba(46, 30, 57, 0.53)"></path><path d="M1260 132L1308 132" stroke-width="4" stroke="rgba(46, 30, 57, 0.53)"></path><path d="M1254 132 a6 6 0 1 0 12 0 a6 6 0 1 0 -12 0zM1302 132 a6 6 0 1 0 12 0 a6 6 0 1 0 -12 0z" fill="rgba(46, 30, 57, 0.53)"></path><path d="M84 372L60 396L60 420L84 444" stroke-width="4" stroke="rgba(46, 30, 57, 0.53)"></path><path d="M78 372 a6 6 0 1 0 12 0 a6 6 0 1 0 -12 0zM78 444 a6 6 0 1 0 12 0 a6 6 0 1 0 -12 0z" fill="rgba(46, 30, 57, 0.53)"></path><path d="M108 132L60 132" stroke-width="4" stroke="rgba(46, 30, 57, 0.53)"></path><path d="M102 132 a6 6 0 1 0 12 0 a6 6 0 1 0 -12 0zM54 132 a6 6 0 1 0 12 0 a6 6 0 1 0 -12 0z" fill="rgba(46, 30, 57, 0.53)"></path><path d="M1236 36L1308 36" stroke-width="4" stroke="rgba(46, 30, 57, 0.53)"></path><path d="M1230 36 a6 6 0 1 0 12 0 a6 6 0 1 0 -12 0zM1302 36 a6 6 0 1 0 12 0 a6 6 0 1 0 -12 0z" fill="rgba(46, 30, 57, 0.53)"></path><path d="M1140 684L1116 684L1092 708" stroke-width="4" stroke="rgba(46, 30, 57, 0.53)"></path><path d="M1134 684 a6 6 0 1 0 12 0 a6 6 0 1 0 -12 0zM1086 708 a6 6 0 1 0 12 0 a6 6 0 1 0 -12 0z" fill="rgba(46, 30, 57, 0.53)"></path><path d="M372 12L372 108" stroke-width="4" stroke="rgba(46, 30, 57, 0.53)"></path><path d="M366 12 a6 6 0 1 0 12 0 a6 6 0 1 0 -12 0zM366 108 a6 6 0 1 0 12 0 a6 6 0 1 0 -12 0z" fill="rgba(46, 30, 57, 0.53)"></path><path d="M1068 132L972 36" stroke-width="4" stroke="rgba(46, 30, 57, 0.53)"></path><path d="M1062 132 a6 6 0 1 0 12 0 a6 6 0 1 0 -12 0zM966 36 a6 6 0 1 0 12 0 a6 6 0 1 0 -12 0z" fill="rgba(46, 30, 57, 0.53)"></path><path d="M468 132L420 132" stroke-width="4" stroke="rgba(46, 30, 57, 0.53)"></path><path d="M462 132 a6 6 0 1 0 12 0 a6 6 0 1 0 -12 0zM414 132 a6 6 0 1 0 12 0 a6 6 0 1 0 -12 0z" fill="rgba(46, 30, 57, 0.53)"></path><path d="M804 420L828 420L852 396L852 372" stroke-width="4" stroke="rgba(46, 30, 57, 0.53)"></path><path d="M798 420 a6 6 0 1 0 12 0 a6 6 0 1 0 -12 0zM846 372 a6 6 0 1 0 12 0 a6 6 0 1 0 -12 0z" fill="rgba(46, 30, 57, 0.53)"></path><path d="M84 324L60 348L60 372" stroke-width="4" stroke="rgba(46, 30, 57, 0.53)"></path><path d="M78 324 a6 6 0 1 0 12 0 a6 6 0 1 0 -12 0zM54 372 a6 6 0 1 0 12 0 a6 6 0 1 0 -12 0z" fill="rgba(46, 30, 57, 0.53)"></path><path d="M660 468L660 492L684 516" stroke-width="4" stroke="rgba(46, 30, 57, 0.53)"></path><path d="M654 468 a6 6 0 1 0 12 0 a6 6 0 1 0 -12 0zM678 516 a6 6 0 1 0 12 0 a6 6 0 1 0 -12 0z" fill="rgba(46, 30, 57, 0.53)"></path><path d="M60 60L12 108" stroke-width="4" stroke="rgba(46, 30, 57, 0.53)"></path><path d="M54 60 a6 6 0 1 0 12 0 a6 6 0 1 0 -12 0zM6 108 a6 6 0 1 0 12 0 a6 6 0 1 0 -12 0z" fill="rgba(46, 30, 57, 0.53)"></path><path d="M1068 492L1068 540" stroke-width="4" stroke="rgba(46, 30, 57, 0.53)"></path><path d="M1062 492 a6 6 0 1 0 12 0 a6 6 0 1 0 -12 0zM1062 540 a6 6 0 1 0 12 0 a6 6 0 1 0 -12 0z" fill="rgba(46, 30, 57, 0.53)"></path><path d="M444 612L372 612" stroke-width="4" stroke="rgba(46, 30, 57, 0.53)"></path><path d="M438 612 a6 6 0 1 0 12 0 a6 6 0 1 0 -12 0zM366 612 a6 6 0 1 0 12 0 a6 6 0 1 0 -12 0z" fill="rgba(46, 30, 57, 0.53)"></path><path d="M204 396L252 348" stroke-width="4" stroke="rgba(46, 30, 57, 0.53)"></path><path d="M198 396 a6 6 0 1 0 12 0 a6 6 0 1 0 -12 0zM246 348 a6 6 0 1 0 12 0 a6 6 0 1 0 -12 0z" fill="rgba(46, 30, 57, 0.53)"></path><path d="M660 588L612 588" stroke-width="4" stroke="rgba(46, 30, 57, 0.53)"></path><path d="M654 588 a6 6 0 1 0 12 0 a6 6 0 1 0 -12 0zM606 588 a6 6 0 1 0 12 0 a6 6 0 1 0 -12 0z" fill="rgba(46, 30, 57, 0.53)"></path><path d="M1404 804L1404 732" stroke-width="4" stroke="rgba(46, 30, 57, 0.53)"></path><path d="M1398 804 a6 6 0 1 0 12 0 a6 6 0 1 0 -12 0zM1398 732 a6 6 0 1 0 12 0 a6 6 0 1 0 -12 0z" fill="rgba(46, 30, 57, 0.53)"></path><path d="M252 612L204 612" stroke-width="4" stroke="rgba(46, 30, 57, 0.53)"></path><path d="M246 612 a6 6 0 1 0 12 0 a6 6 0 1 0 -12 0zM198 612 a6 6 0 1 0 12 0 a6 6 0 1 0 -12 0z" fill="rgba(46, 30, 57, 0.53)"></path></g></g><defs><mask id="SvgjsMask1073"><rect width="1500" height="800" fill="#ffffff"></rect></mask><mask id="SvgjsMask1074"><rect width="1500" height="800" fill="white"></rect><path d="M873 780 a3 3 0 1 0 6 0 a3 3 0 1 0 -6 0zM465 324 a3 3 0 1 0 6 0 a3 3 0 1 0 -6 0z" fill="black"></path><path d="M1185 660 a3 3 0 1 0 6 0 a3 3 0 1 0 -6 0zM1497 636 a3 3 0 1 0 6 0 a3 3 0 1 0 -6 0z" fill="black"></path><path d="M561 396 a3 3 0 1 0 6 0 a3 3 0 1 0 -6 0zM585 12 a3 3 0 1 0 6 0 a3 3 0 1 0 -6 0z" fill="black"></path><path d="M273 348 a3 3 0 1 0 6 0 a3 3 0 1 0 -6 0zM9 708 a3 3 0 1 0 6 0 a3 3 0 1 0 -6 0z" fill="black"></path><path d="M825 468 a3 3 0 1 0 6 0 a3 3 0 1 0 -6 0zM1281 540 a3 3 0 1 0 6 0 a3 3 0 1 0 -6 0z" fill="black"></path><path d="M105 444 a3 3 0 1 0 6 0 a3 3 0 1 0 -6 0zM9 252 a3 3 0 1 0 6 0 a3 3 0 1 0 -6 0z" fill="black"></path><path d="M417 540 a3 3 0 1 0 6 0 a3 3 0 1 0 -6 0zM273 372 a3 3 0 1 0 6 0 a3 3 0 1 0 -6 0z" fill="black"></path><path d="M489 588 a3 3 0 1 0 6 0 a3 3 0 1 0 -6 0zM729 660 a3 3 0 1 0 6 0 a3 3 0 1 0 -6 0z" fill="black"></path><path d="M609 108 a3 3 0 1 0 6 0 a3 3 0 1 0 -6 0zM585 420 a3 3 0 1 0 6 0 a3 3 0 1 0 -6 0z" fill="black"></path><path d="M1401 420 a3 3 0 1 0 6 0 a3 3 0 1 0 -6 0zM945 300 a3 3 0 1 0 6 0 a3 3 0 1 0 -6 0z" fill="black"></path><path d="M417 324 a3 3 0 1 0 6 0 a3 3 0 1 0 -6 0zM9 12 a3 3 0 1 0 6 0 a3 3 0 1 0 -6 0z" fill="black"></path><path d="M1113 468 a3 3 0 1 0 6 0 a3 3 0 1 0 -6 0zM681 540 a3 3 0 1 0 6 0 a3 3 0 1 0 -6 0z" fill="black"></path><path d="M177 756 a3 3 0 1 0 6 0 a3 3 0 1 0 -6 0zM9 804 a3 3 0 1 0 6 0 a3 3 0 1 0 -6 0z" fill="black"></path><path d="M369 636 a3 3 0 1 0 6 0 a3 3 0 1 0 -6 0zM489 636 a3 3 0 1 0 6 0 a3 3 0 1 0 -6 0z" fill="black"></path><path d="M1449 252 a3 3 0 1 0 6 0 a3 3 0 1 0 -6 0zM1497 252 a3 3 0 1 0 6 0 a3 3 0 1 0 -6 0z" fill="black"></path><path d="M633 564 a3 3 0 1 0 6 0 a3 3 0 1 0 -6 0zM705 732 a3 3 0 1 0 6 0 a3 3 0 1 0 -6 0z" fill="black"></path><path d="M993 36 a3 3 0 1 0 6 0 a3 3 0 1 0 -6 0zM1305 492 a3 3 0 1 0 6 0 a3 3 0 1 0 -6 0z" fill="black"></path><path d="M1113 132 a3 3 0 1 0 6 0 a3 3 0 1 0 -6 0zM1377 420 a3 3 0 1 0 6 0 a3 3 0 1 0 -6 0z" fill="black"></path><path d="M801 108 a3 3 0 1 0 6 0 a3 3 0 1 0 -6 0zM609 444 a3 3 0 1 0 6 0 a3 3 0 1 0 -6 0z" fill="black"></path><path d="M465 36 a3 3 0 1 0 6 0 a3 3 0 1 0 -6 0zM561 36 a3 3 0 1 0 6 0 a3 3 0 1 0 -6 0z" fill="black"></path><path d="M1233 228 a3 3 0 1 0 6 0 a3 3 0 1 0 -6 0zM1497 12 a3 3 0 1 0 6 0 a3 3 0 1 0 -6 0z" fill="black"></path><path d="M345 12 a3 3 0 1 0 6 0 a3 3 0 1 0 -6 0zM561 276 a3 3 0 1 0 6 0 a3 3 0 1 0 -6 0z" fill="black"></path><path d="M1281 468 a3 3 0 1 0 6 0 a3 3 0 1 0 -6 0zM945 108 a3 3 0 1 0 6 0 a3 3 0 1 0 -6 0z" fill="black"></path><path d="M1041 36 a3 3 0 1 0 6 0 a3 3 0 1 0 -6 0zM609 12 a3 3 0 1 0 6 0 a3 3 0 1 0 -6 0z" fill="black"></path><path d="M921 804 a3 3 0 1 0 6 0 a3 3 0 1 0 -6 0zM1185 540 a3 3 0 1 0 6 0 a3 3 0 1 0 -6 0z" fill="black"></path><path d="M729 564 a3 3 0 1 0 6 0 a3 3 0 1 0 -6 0zM993 228 a3 3 0 1 0 6 0 a3 3 0 1 0 -6 0z" fill="black"></path><path d="M465 756 a3 3 0 1 0 6 0 a3 3 0 1 0 -6 0zM537 804 a3 3 0 1 0 6 0 a3 3 0 1 0 -6 0z" fill="black"></path><path d="M1065 468 a3 3 0 1 0 6 0 a3 3 0 1 0 -6 0zM1161 516 a3 3 0 1 0 6 0 a3 3 0 1 0 -6 0z" fill="black"></path><path d="M417 12 a3 3 0 1 0 6 0 a3 3 0 1 0 -6 0zM561 132 a3 3 0 1 0 6 0 a3 3 0 1 0 -6 0z" fill="black"></path><path d="M441 780 a3 3 0 1 0 6 0 a3 3 0 1 0 -6 0zM513 804 a3 3 0 1 0 6 0 a3 3 0 1 0 -6 0z" fill="black"></path><path d="M273 204 a3 3 0 1 0 6 0 a3 3 0 1 0 -6 0zM9 204 a3 3 0 1 0 6 0 a3 3 0 1 0 -6 0z" fill="black"></path><path d="M441 468 a3 3 0 1 0 6 0 a3 3 0 1 0 -6 0zM561 564 a3 3 0 1 0 6 0 a3 3 0 1 0 -6 0z" fill="black"></path><path d="M921 756 a3 3 0 1 0 6 0 a3 3 0 1 0 -6 0zM777 708 a3 3 0 1 0 6 0 a3 3 0 1 0 -6 0z" fill="black"></path><path d="M1425 612 a3 3 0 1 0 6 0 a3 3 0 1 0 -6 0zM1425 804 a3 3 0 1 0 6 0 a3 3 0 1 0 -6 0z" fill="black"></path><path d="M681 348 a3 3 0 1 0 6 0 a3 3 0 1 0 -6 0zM945 36 a3 3 0 1 0 6 0 a3 3 0 1 0 -6 0z" fill="black"></path><path d="M1041 588 a3 3 0 1 0 6 0 a3 3 0 1 0 -6 0zM1161 540 a3 3 0 1 0 6 0 a3 3 0 1 0 -6 0z" fill="black"></path><path d="M297 372 a3 3 0 1 0 6 0 a3 3 0 1 0 -6 0zM393 276 a3 3 0 1 0 6 0 a3 3 0 1 0 -6 0z" fill="black"></path><path d="M993 468 a3 3 0 1 0 6 0 a3 3 0 1 0 -6 0zM1137 540 a3 3 0 1 0 6 0 a3 3 0 1 0 -6 0z" fill="black"></path><path d="M561 252 a3 3 0 1 0 6 0 a3 3 0 1 0 -6 0zM441 60 a3 3 0 1 0 6 0 a3 3 0 1 0 -6 0z" fill="black"></path><path d="M993 636 a3 3 0 1 0 6 0 a3 3 0 1 0 -6 0zM897 780 a3 3 0 1 0 6 0 a3 3 0 1 0 -6 0z" fill="black"></path><path d="M273 252 a3 3 0 1 0 6 0 a3 3 0 1 0 -6 0zM297 348 a3 3 0 1 0 6 0 a3 3 0 1 0 -6 0z" fill="black"></path><path d="M1065 612 a3 3 0 1 0 6 0 a3 3 0 1 0 -6 0zM945 756 a3 3 0 1 0 6 0 a3 3 0 1 0 -6 0z" fill="black"></path><path d="M441 396 a3 3 0 1 0 6 0 a3 3 0 1 0 -6 0zM441 300 a3 3 0 1 0 6 0 a3 3 0 1 0 -6 0z" fill="black"></path><path d="M1233 588 a3 3 0 1 0 6 0 a3 3 0 1 0 -6 0zM945 804 a3 3 0 1 0 6 0 a3 3 0 1 0 -6 0z" fill="black"></path><path d="M417 756 a3 3 0 1 0 6 0 a3 3 0 1 0 -6 0zM153 492 a3 3 0 1 0 6 0 a3 3 0 1 0 -6 0z" fill="black"></path><path d="M1353 228 a3 3 0 1 0 6 0 a3 3 0 1 0 -6 0zM1473 36 a3 3 0 1 0 6 0 a3 3 0 1 0 -6 0z" fill="black"></path><path d="M681 324 a3 3 0 1 0 6 0 a3 3 0 1 0 -6 0zM753 36 a3 3 0 1 0 6 0 a3 3 0 1 0 -6 0z" fill="black"></path><path d="M1041 252 a3 3 0 1 0 6 0 a3 3 0 1 0 -6 0zM801 60 a3 3 0 1 0 6 0 a3 3 0 1 0 -6 0z" fill="black"></path><path d="M345 588 a3 3 0 1 0 6 0 a3 3 0 1 0 -6 0zM417 564 a3 3 0 1 0 6 0 a3 3 0 1 0 -6 0z" fill="black"></path><path d="M1281 588 a3 3 0 1 0 6 0 a3 3 0 1 0 -6 0zM1329 804 a3 3 0 1 0 6 0 a3 3 0 1 0 -6 0z" fill="black"></path><path d="M153 756 a3 3 0 1 0 6 0 a3 3 0 1 0 -6 0zM9 780 a3 3 0 1 0 6 0 a3 3 0 1 0 -6 0z" fill="black"></path><path d="M705 420 a3 3 0 1 0 6 0 a3 3 0 1 0 -6 0zM705 372 a3 3 0 1 0 6 0 a3 3 0 1 0 -6 0z" fill="black"></path><path d="M249 84 a3 3 0 1 0 6 0 a3 3 0 1 0 -6 0zM177 12 a3 3 0 1 0 6 0 a3 3 0 1 0 -6 0z" fill="black"></path><path d="M1353 564 a3 3 0 1 0 6 0 a3 3 0 1 0 -6 0zM1353 804 a3 3 0 1 0 6 0 a3 3 0 1 0 -6 0z" fill="black"></path><path d="M369 444 a3 3 0 1 0 6 0 a3 3 0 1 0 -6 0zM393 300 a3 3 0 1 0 6 0 a3 3 0 1 0 -6 0z" fill="black"></path><path d="M1425 564 a3 3 0 1 0 6 0 a3 3 0 1 0 -6 0zM1473 564 a3 3 0 1 0 6 0 a3 3 0 1 0 -6 0z" fill="black"></path><path d="M1473 636 a3 3 0 1 0 6 0 a3 3 0 1 0 -6 0zM1497 804 a3 3 0 1 0 6 0 a3 3 0 1 0 -6 0z" fill="black"></path><path d="M1041 636 a3 3 0 1 0 6 0 a3 3 0 1 0 -6 0zM993 708 a3 3 0 1 0 6 0 a3 3 0 1 0 -6 0z" fill="black"></path><path d="M945 492 a3 3 0 1 0 6 0 a3 3 0 1 0 -6 0zM1017 612 a3 3 0 1 0 6 0 a3 3 0 1 0 -6 0z" fill="black"></path><path d="M1233 780 a3 3 0 1 0 6 0 a3 3 0 1 0 -6 0zM1305 804 a3 3 0 1 0 6 0 a3 3 0 1 0 -6 0z" fill="black"></path><path d="M465 108 a3 3 0 1 0 6 0 a3 3 0 1 0 -6 0zM561 228 a3 3 0 1 0 6 0 a3 3 0 1 0 -6 0z" fill="black"></path><path d="M1401 708 a3 3 0 1 0 6 0 a3 3 0 1 0 -6 0zM1377 804 a3 3 0 1 0 6 0 a3 3 0 1 0 -6 0z" fill="black"></path><path d="M465 588 a3 3 0 1 0 6 0 a3 3 0 1 0 -6 0zM321 636 a3 3 0 1 0 6 0 a3 3 0 1 0 -6 0z" fill="black"></path><path d="M465 444 a3 3 0 1 0 6 0 a3 3 0 1 0 -6 0zM393 444 a3 3 0 1 0 6 0 a3 3 0 1 0 -6 0z" fill="black"></path><path d="M1329 540 a3 3 0 1 0 6 0 a3 3 0 1 0 -6 0zM1473 540 a3 3 0 1 0 6 0 a3 3 0 1 0 -6 0z" fill="black"></path><path d="M249 804 a3 3 0 1 0 6 0 a3 3 0 1 0 -6 0zM153 804 a3 3 0 1 0 6 0 a3 3 0 1 0 -6 0z" fill="black"></path><path d="M1089 324 a3 3 0 1 0 6 0 a3 3 0 1 0 -6 0zM1281 492 a3 3 0 1 0 6 0 a3 3 0 1 0 -6 0z" fill="black"></path><path d="M897 636 a3 3 0 1 0 6 0 a3 3 0 1 0 -6 0zM897 756 a3 3 0 1 0 6 0 a3 3 0 1 0 -6 0z" fill="black"></path><path d="M825 228 a3 3 0 1 0 6 0 a3 3 0 1 0 -6 0zM825 84 a3 3 0 1 0 6 0 a3 3 0 1 0 -6 0z" fill="black"></path><path d="M1161 684 a3 3 0 1 0 6 0 a3 3 0 1 0 -6 0zM1305 756 a3 3 0 1 0 6 0 a3 3 0 1 0 -6 0z" fill="black"></path><path d="M513 12 a3 3 0 1 0 6 0 a3 3 0 1 0 -6 0zM441 12 a3 3 0 1 0 6 0 a3 3 0 1 0 -6 0z" fill="black"></path><path d="M489 156 a3 3 0 1 0 6 0 a3 3 0 1 0 -6 0zM393 156 a3 3 0 1 0 6 0 a3 3 0 1 0 -6 0z" fill="black"></path><path d="M129 84 a3 3 0 1 0 6 0 a3 3 0 1 0 -6 0zM345 300 a3 3 0 1 0 6 0 a3 3 0 1 0 -6 0z" fill="black"></path><path d="M249 636 a3 3 0 1 0 6 0 a3 3 0 1 0 -6 0zM297 804 a3 3 0 1 0 6 0 a3 3 0 1 0 -6 0z" fill="black"></path><path d="M153 228 a3 3 0 1 0 6 0 a3 3 0 1 0 -6 0zM177 420 a3 3 0 1 0 6 0 a3 3 0 1 0 -6 0z" fill="black"></path><path d="M153 636 a3 3 0 1 0 6 0 a3 3 0 1 0 -6 0zM9 756 a3 3 0 1 0 6 0 a3 3 0 1 0 -6 0z" fill="black"></path><path d="M993 348 a3 3 0 1 0 6 0 a3 3 0 1 0 -6 0zM1041 372 a3 3 0 1 0 6 0 a3 3 0 1 0 -6 0z" fill="black"></path><path d="M513 444 a3 3 0 1 0 6 0 a3 3 0 1 0 -6 0zM465 348 a3 3 0 1 0 6 0 a3 3 0 1 0 -6 0z" fill="black"></path><path d="M561 492 a3 3 0 1 0 6 0 a3 3 0 1 0 -6 0zM633 540 a3 3 0 1 0 6 0 a3 3 0 1 0 -6 0z" fill="black"></path><path d="M633 612 a3 3 0 1 0 6 0 a3 3 0 1 0 -6 0zM705 684 a3 3 0 1 0 6 0 a3 3 0 1 0 -6 0z" fill="black"></path><path d="M33 612 a3 3 0 1 0 6 0 a3 3 0 1 0 -6 0zM33 516 a3 3 0 1 0 6 0 a3 3 0 1 0 -6 0z" fill="black"></path><path d="M537 564 a3 3 0 1 0 6 0 a3 3 0 1 0 -6 0zM393 468 a3 3 0 1 0 6 0 a3 3 0 1 0 -6 0z" fill="black"></path><path d="M561 684 a3 3 0 1 0 6 0 a3 3 0 1 0 -6 0zM681 732 a3 3 0 1 0 6 0 a3 3 0 1 0 -6 0z" fill="black"></path><path d="M129 708 a3 3 0 1 0 6 0 a3 3 0 1 0 -6 0zM57 756 a3 3 0 1 0 6 0 a3 3 0 1 0 -6 0z" fill="black"></path><path d="M249 516 a3 3 0 1 0 6 0 a3 3 0 1 0 -6 0zM369 564 a3 3 0 1 0 6 0 a3 3 0 1 0 -6 0z" fill="black"></path><path d="M1257 444 a3 3 0 1 0 6 0 a3 3 0 1 0 -6 0zM1305 444 a3 3 0 1 0 6 0 a3 3 0 1 0 -6 0z" fill="black"></path><path d="M1449 492 a3 3 0 1 0 6 0 a3 3 0 1 0 -6 0zM1353 540 a3 3 0 1 0 6 0 a3 3 0 1 0 -6 0z" fill="black"></path><path d="M1041 516 a3 3 0 1 0 6 0 a3 3 0 1 0 -6 0zM1041 444 a3 3 0 1 0 6 0 a3 3 0 1 0 -6 0z" fill="black"></path><path d="M177 84 a3 3 0 1 0 6 0 a3 3 0 1 0 -6 0zM273 156 a3 3 0 1 0 6 0 a3 3 0 1 0 -6 0z" fill="black"></path><path d="M1425 324 a3 3 0 1 0 6 0 a3 3 0 1 0 -6 0zM1497 156 a3 3 0 1 0 6 0 a3 3 0 1 0 -6 0z" fill="black"></path><path d="M945 228 a3 3 0 1 0 6 0 a3 3 0 1 0 -6 0zM801 300 a3 3 0 1 0 6 0 a3 3 0 1 0 -6 0z" fill="black"></path><path d="M417 804 a3 3 0 1 0 6 0 a3 3 0 1 0 -6 0zM321 684 a3 3 0 1 0 6 0 a3 3 0 1 0 -6 0z" fill="black"></path><path d="M105 60 a3 3 0 1 0 6 0 a3 3 0 1 0 -6 0zM9 180 a3 3 0 1 0 6 0 a3 3 0 1 0 -6 0z" fill="black"></path><path d="M1113 276 a3 3 0 1 0 6 0 a3 3 0 1 0 -6 0zM1209 468 a3 3 0 1 0 6 0 a3 3 0 1 0 -6 0z" fill="black"></path><path d="M705 108 a3 3 0 1 0 6 0 a3 3 0 1 0 -6 0zM633 396 a3 3 0 1 0 6 0 a3 3 0 1 0 -6 0z" fill="black"></path><path d="M177 348 a3 3 0 1 0 6 0 a3 3 0 1 0 -6 0zM177 252 a3 3 0 1 0 6 0 a3 3 0 1 0 -6 0z" fill="black"></path><path d="M873 300 a3 3 0 1 0 6 0 a3 3 0 1 0 -6 0zM945 252 a3 3 0 1 0 6 0 a3 3 0 1 0 -6 0z" fill="black"></path><path d="M321 252 a3 3 0 1 0 6 0 a3 3 0 1 0 -6 0zM297 204 a3 3 0 1 0 6 0 a3 3 0 1 0 -6 0z" fill="black"></path><path d="M1449 36 a3 3 0 1 0 6 0 a3 3 0 1 0 -6 0zM1065 12 a3 3 0 1 0 6 0 a3 3 0 1 0 -6 0z" fill="black"></path><path d="M873 684 a3 3 0 1 0 6 0 a3 3 0 1 0 -6 0zM873 516 a3 3 0 1 0 6 0 a3 3 0 1 0 -6 0z" fill="black"></path><path d="M1401 636 a3 3 0 1 0 6 0 a3 3 0 1 0 -6 0zM1401 516 a3 3 0 1 0 6 0 a3 3 0 1 0 -6 0z" fill="black"></path><path d="M345 804 a3 3 0 1 0 6 0 a3 3 0 1 0 -6 0zM393 780 a3 3 0 1 0 6 0 a3 3 0 1 0 -6 0z" fill="black"></path><path d="M1017 132 a3 3 0 1 0 6 0 a3 3 0 1 0 -6 0zM897 60 a3 3 0 1 0 6 0 a3 3 0 1 0 -6 0z" fill="black"></path><path d="M825 636 a3 3 0 1 0 6 0 a3 3 0 1 0 -6 0zM873 660 a3 3 0 1 0 6 0 a3 3 0 1 0 -6 0z" fill="black"></path><path d="M129 132 a3 3 0 1 0 6 0 a3 3 0 1 0 -6 0zM105 84 a3 3 0 1 0 6 0 a3 3 0 1 0 -6 0z" fill="black"></path><path d="M849 804 a3 3 0 1 0 6 0 a3 3 0 1 0 -6 0zM777 732 a3 3 0 1 0 6 0 a3 3 0 1 0 -6 0z" fill="black"></path><path d="M1065 276 a3 3 0 1 0 6 0 a3 3 0 1 0 -6 0zM1017 300 a3 3 0 1 0 6 0 a3 3 0 1 0 -6 0z" fill="black"></path><path d="M465 84 a3 3 0 1 0 6 0 a3 3 0 1 0 -6 0zM393 132 a3 3 0 1 0 6 0 a3 3 0 1 0 -6 0z" fill="black"></path><path d="M1329 84 a3 3 0 1 0 6 0 a3 3 0 1 0 -6 0zM1425 12 a3 3 0 1 0 6 0 a3 3 0 1 0 -6 0z" fill="black"></path><path d="M1377 564 a3 3 0 1 0 6 0 a3 3 0 1 0 -6 0zM1377 708 a3 3 0 1 0 6 0 a3 3 0 1 0 -6 0z" fill="black"></path><path d="M705 132 a3 3 0 1 0 6 0 a3 3 0 1 0 -6 0zM633 324 a3 3 0 1 0 6 0 a3 3 0 1 0 -6 0z" fill="black"></path><path d="M1065 156 a3 3 0 1 0 6 0 a3 3 0 1 0 -6 0zM1113 180 a3 3 0 1 0 6 0 a3 3 0 1 0 -6 0z" fill="black"></path><path d="M1377 324 a3 3 0 1 0 6 0 a3 3 0 1 0 -6 0zM1497 348 a3 3 0 1 0 6 0 a3 3 0 1 0 -6 0z" fill="black"></path><path d="M1449 684 a3 3 0 1 0 6 0 a3 3 0 1 0 -6 0zM1473 804 a3 3 0 1 0 6 0 a3 3 0 1 0 -6 0z" fill="black"></path><path d="M897 372 a3 3 0 1 0 6 0 a3 3 0 1 0 -6 0zM993 372 a3 3 0 1 0 6 0 a3 3 0 1 0 -6 0z" fill="black"></path><path d="M657 156 a3 3 0 1 0 6 0 a3 3 0 1 0 -6 0zM657 36 a3 3 0 1 0 6 0 a3 3 0 1 0 -6 0z" fill="black"></path><path d="M1137 324 a3 3 0 1 0 6 0 a3 3 0 1 0 -6 0zM1281 396 a3 3 0 1 0 6 0 a3 3 0 1 0 -6 0z" fill="black"></path><path d="M105 156 a3 3 0 1 0 6 0 a3 3 0 1 0 -6 0zM201 180 a3 3 0 1 0 6 0 a3 3 0 1 0 -6 0z" fill="black"></path><path d="M945 612 a3 3 0 1 0 6 0 a3 3 0 1 0 -6 0zM801 636 a3 3 0 1 0 6 0 a3 3 0 1 0 -6 0z" fill="black"></path><path d="M465 732 a3 3 0 1 0 6 0 a3 3 0 1 0 -6 0zM489 660 a3 3 0 1 0 6 0 a3 3 0 1 0 -6 0z" fill="black"></path><path d="M1233 372 a3 3 0 1 0 6 0 a3 3 0 1 0 -6 0zM1065 228 a3 3 0 1 0 6 0 a3 3 0 1 0 -6 0z" fill="black"></path><path d="M225 756 a3 3 0 1 0 6 0 a3 3 0 1 0 -6 0zM177 780 a3 3 0 1 0 6 0 a3 3 0 1 0 -6 0z" fill="black"></path><path d="M1161 36 a3 3 0 1 0 6 0 a3 3 0 1 0 -6 0zM1089 84 a3 3 0 1 0 6 0 a3 3 0 1 0 -6 0z" fill="black"></path><path d="M1185 684 a3 3 0 1 0 6 0 a3 3 0 1 0 -6 0zM1305 732 a3 3 0 1 0 6 0 a3 3 0 1 0 -6 0z" fill="black"></path><path d="M1257 204 a3 3 0 1 0 6 0 a3 3 0 1 0 -6 0zM1449 132 a3 3 0 1 0 6 0 a3 3 0 1 0 -6 0z" fill="black"></path><path d="M321 84 a3 3 0 1 0 6 0 a3 3 0 1 0 -6 0zM321 156 a3 3 0 1 0 6 0 a3 3 0 1 0 -6 0z" fill="black"></path><path d="M753 444 a3 3 0 1 0 6 0 a3 3 0 1 0 -6 0zM753 540 a3 3 0 1 0 6 0 a3 3 0 1 0 -6 0z" fill="black"></path><path d="M393 60 a3 3 0 1 0 6 0 a3 3 0 1 0 -6 0zM393 12 a3 3 0 1 0 6 0 a3 3 0 1 0 -6 0z" fill="black"></path><path d="M225 732 a3 3 0 1 0 6 0 a3 3 0 1 0 -6 0zM153 660 a3 3 0 1 0 6 0 a3 3 0 1 0 -6 0z" fill="black"></path><path d="M537 228 a3 3 0 1 0 6 0 a3 3 0 1 0 -6 0zM513 156 a3 3 0 1 0 6 0 a3 3 0 1 0 -6 0z" fill="black"></path><path d="M561 612 a3 3 0 1 0 6 0 a3 3 0 1 0 -6 0zM681 708 a3 3 0 1 0 6 0 a3 3 0 1 0 -6 0z" fill="black"></path><path d="M1401 180 a3 3 0 1 0 6 0 a3 3 0 1 0 -6 0zM1257 228 a3 3 0 1 0 6 0 a3 3 0 1 0 -6 0z" fill="black"></path><path d="M441 204 a3 3 0 1 0 6 0 a3 3 0 1 0 -6 0zM393 180 a3 3 0 1 0 6 0 a3 3 0 1 0 -6 0z" fill="black"></path><path d="M9 732 a3 3 0 1 0 6 0 a3 3 0 1 0 -6 0zM201 564 a3 3 0 1 0 6 0 a3 3 0 1 0 -6 0z" fill="black"></path><path d="M1329 612 a3 3 0 1 0 6 0 a3 3 0 1 0 -6 0zM1329 564 a3 3 0 1 0 6 0 a3 3 0 1 0 -6 0z" fill="black"></path><path d="M849 108 a3 3 0 1 0 6 0 a3 3 0 1 0 -6 0zM993 204 a3 3 0 1 0 6 0 a3 3 0 1 0 -6 0z" fill="black"></path><path d="M105 636 a3 3 0 1 0 6 0 a3 3 0 1 0 -6 0zM57 516 a3 3 0 1 0 6 0 a3 3 0 1 0 -6 0z" fill="black"></path><path d="M273 228 a3 3 0 1 0 6 0 a3 3 0 1 0 -6 0zM201 300 a3 3 0 1 0 6 0 a3 3 0 1 0 -6 0z" fill="black"></path><path d="M921 684 a3 3 0 1 0 6 0 a3 3 0 1 0 -6 0zM969 636 a3 3 0 1 0 6 0 a3 3 0 1 0 -6 0z" fill="black"></path><path d="M705 516 a3 3 0 1 0 6 0 a3 3 0 1 0 -6 0zM681 396 a3 3 0 1 0 6 0 a3 3 0 1 0 -6 0z" fill="black"></path><path d="M681 804 a3 3 0 1 0 6 0 a3 3 0 1 0 -6 0zM777 780 a3 3 0 1 0 6 0 a3 3 0 1 0 -6 0z" fill="black"></path><path d="M1089 36 a3 3 0 1 0 6 0 a3 3 0 1 0 -6 0zM1377 12 a3 3 0 1 0 6 0 a3 3 0 1 0 -6 0z" fill="black"></path><path d="M273 564 a3 3 0 1 0 6 0 a3 3 0 1 0 -6 0zM345 516 a3 3 0 1 0 6 0 a3 3 0 1 0 -6 0z" fill="black"></path><path d="M105 228 a3 3 0 1 0 6 0 a3 3 0 1 0 -6 0zM57 228 a3 3 0 1 0 6 0 a3 3 0 1 0 -6 0z" fill="black"></path><path d="M969 444 a3 3 0 1 0 6 0 a3 3 0 1 0 -6 0zM873 468 a3 3 0 1 0 6 0 a3 3 0 1 0 -6 0z" fill="black"></path><path d="M537 372 a3 3 0 1 0 6 0 a3 3 0 1 0 -6 0zM537 300 a3 3 0 1 0 6 0 a3 3 0 1 0 -6 0z" fill="black"></path><path d="M1065 780 a3 3 0 1 0 6 0 a3 3 0 1 0 -6 0zM1233 804 a3 3 0 1 0 6 0 a3 3 0 1 0 -6 0z" fill="black"></path><path d="M1065 252 a3 3 0 1 0 6 0 a3 3 0 1 0 -6 0zM1065 348 a3 3 0 1 0 6 0 a3 3 0 1 0 -6 0z" fill="black"></path><path d="M1449 276 a3 3 0 1 0 6 0 a3 3 0 1 0 -6 0zM1497 276 a3 3 0 1 0 6 0 a3 3 0 1 0 -6 0z" fill="black"></path><path d="M1281 612 a3 3 0 1 0 6 0 a3 3 0 1 0 -6 0zM1209 684 a3 3 0 1 0 6 0 a3 3 0 1 0 -6 0z" fill="black"></path><path d="M1065 756 a3 3 0 1 0 6 0 a3 3 0 1 0 -6 0zM969 804 a3 3 0 1 0 6 0 a3 3 0 1 0 -6 0z" fill="black"></path><path d="M1305 300 a3 3 0 1 0 6 0 a3 3 0 1 0 -6 0zM1497 420 a3 3 0 1 0 6 0 a3 3 0 1 0 -6 0z" fill="black"></path><path d="M561 348 a3 3 0 1 0 6 0 a3 3 0 1 0 -6 0zM561 300 a3 3 0 1 0 6 0 a3 3 0 1 0 -6 0z" fill="black"></path><path d="M1209 84 a3 3 0 1 0 6 0 a3 3 0 1 0 -6 0zM1137 84 a3 3 0 1 0 6 0 a3 3 0 1 0 -6 0z" fill="black"></path><path d="M249 228 a3 3 0 1 0 6 0 a3 3 0 1 0 -6 0zM201 276 a3 3 0 1 0 6 0 a3 3 0 1 0 -6 0z" fill="black"></path><path d="M681 228 a3 3 0 1 0 6 0 a3 3 0 1 0 -6 0zM633 300 a3 3 0 1 0 6 0 a3 3 0 1 0 -6 0z" fill="black"></path><path d="M585 684 a3 3 0 1 0 6 0 a3 3 0 1 0 -6 0zM561 636 a3 3 0 1 0 6 0 a3 3 0 1 0 -6 0z" fill="black"></path><path d="M441 420 a3 3 0 1 0 6 0 a3 3 0 1 0 -6 0zM465 372 a3 3 0 1 0 6 0 a3 3 0 1 0 -6 0z" fill="black"></path><path d="M1065 732 a3 3 0 1 0 6 0 a3 3 0 1 0 -6 0zM1185 636 a3 3 0 1 0 6 0 a3 3 0 1 0 -6 0z" fill="black"></path><path d="M1209 60 a3 3 0 1 0 6 0 a3 3 0 1 0 -6 0zM1353 36 a3 3 0 1 0 6 0 a3 3 0 1 0 -6 0z" fill="black"></path><path d="M81 588 a3 3 0 1 0 6 0 a3 3 0 1 0 -6 0zM33 708 a3 3 0 1 0 6 0 a3 3 0 1 0 -6 0z" fill="black"></path><path d="M57 300 a3 3 0 1 0 6 0 a3 3 0 1 0 -6 0zM9 276 a3 3 0 1 0 6 0 a3 3 0 1 0 -6 0z" fill="black"></path><path d="M633 252 a3 3 0 1 0 6 0 a3 3 0 1 0 -6 0zM729 36 a3 3 0 1 0 6 0 a3 3 0 1 0 -6 0z" fill="black"></path><path d="M81 612 a3 3 0 1 0 6 0 a3 3 0 1 0 -6 0zM153 540 a3 3 0 1 0 6 0 a3 3 0 1 0 -6 0z" fill="black"></path><path d="M153 180 a3 3 0 1 0 6 0 a3 3 0 1 0 -6 0zM81 180 a3 3 0 1 0 6 0 a3 3 0 1 0 -6 0z" fill="black"></path><path d="M249 492 a3 3 0 1 0 6 0 a3 3 0 1 0 -6 0zM249 444 a3 3 0 1 0 6 0 a3 3 0 1 0 -6 0z" fill="black"></path><path d="M489 60 a3 3 0 1 0 6 0 a3 3 0 1 0 -6 0zM561 108 a3 3 0 1 0 6 0 a3 3 0 1 0 -6 0z" fill="black"></path><path d="M849 132 a3 3 0 1 0 6 0 a3 3 0 1 0 -6 0zM849 204 a3 3 0 1 0 6 0 a3 3 0 1 0 -6 0z" fill="black"></path><path d="M33 36 a3 3 0 1 0 6 0 a3 3 0 1 0 -6 0zM177 60 a3 3 0 1 0 6 0 a3 3 0 1 0 -6 0z" fill="black"></path><path d="M537 492 a3 3 0 1 0 6 0 a3 3 0 1 0 -6 0zM537 420 a3 3 0 1 0 6 0 a3 3 0 1 0 -6 0z" fill="black"></path><path d="M249 132 a3 3 0 1 0 6 0 a3 3 0 1 0 -6 0zM201 84 a3 3 0 1 0 6 0 a3 3 0 1 0 -6 0z" fill="black"></path><path d="M369 324 a3 3 0 1 0 6 0 a3 3 0 1 0 -6 0zM321 372 a3 3 0 1 0 6 0 a3 3 0 1 0 -6 0z" fill="black"></path><path d="M921 492 a3 3 0 1 0 6 0 a3 3 0 1 0 -6 0zM969 468 a3 3 0 1 0 6 0 a3 3 0 1 0 -6 0z" fill="black"></path><path d="M441 564 a3 3 0 1 0 6 0 a3 3 0 1 0 -6 0zM441 516 a3 3 0 1 0 6 0 a3 3 0 1 0 -6 0z" fill="black"></path><path d="M585 612 a3 3 0 1 0 6 0 a3 3 0 1 0 -6 0zM657 660 a3 3 0 1 0 6 0 a3 3 0 1 0 -6 0z" fill="black"></path><path d="M297 492 a3 3 0 1 0 6 0 a3 3 0 1 0 -6 0zM273 444 a3 3 0 1 0 6 0 a3 3 0 1 0 -6 0z" fill="black"></path><path d="M273 540 a3 3 0 1 0 6 0 a3 3 0 1 0 -6 0zM273 468 a3 3 0 1 0 6 0 a3 3 0 1 0 -6 0z" fill="black"></path><path d="M129 396 a3 3 0 1 0 6 0 a3 3 0 1 0 -6 0zM129 228 a3 3 0 1 0 6 0 a3 3 0 1 0 -6 0z" fill="black"></path><path d="M1089 780 a3 3 0 1 0 6 0 a3 3 0 1 0 -6 0zM1137 804 a3 3 0 1 0 6 0 a3 3 0 1 0 -6 0z" fill="black"></path><path d="M1209 324 a3 3 0 1 0 6 0 a3 3 0 1 0 -6 0zM1185 372 a3 3 0 1 0 6 0 a3 3 0 1 0 -6 0z" fill="black"></path><path d="M81 540 a3 3 0 1 0 6 0 a3 3 0 1 0 -6 0zM57 588 a3 3 0 1 0 6 0 a3 3 0 1 0 -6 0z" fill="black"></path><path d="M273 60 a3 3 0 1 0 6 0 a3 3 0 1 0 -6 0zM321 12 a3 3 0 1 0 6 0 a3 3 0 1 0 -6 0z" fill="black"></path><path d="M393 708 a3 3 0 1 0 6 0 a3 3 0 1 0 -6 0zM345 636 a3 3 0 1 0 6 0 a3 3 0 1 0 -6 0z" fill="black"></path><path d="M273 660 a3 3 0 1 0 6 0 a3 3 0 1 0 -6 0zM201 684 a3 3 0 1 0 6 0 a3 3 0 1 0 -6 0z" fill="black"></path><path d="M321 60 a3 3 0 1 0 6 0 a3 3 0 1 0 -6 0zM273 108 a3 3 0 1 0 6 0 a3 3 0 1 0 -6 0z" fill="black"></path><path d="M969 228 a3 3 0 1 0 6 0 a3 3 0 1 0 -6 0zM945 180 a3 3 0 1 0 6 0 a3 3 0 1 0 -6 0z" fill="black"></path><path d="M9 348 a3 3 0 1 0 6 0 a3 3 0 1 0 -6 0zM153 420 a3 3 0 1 0 6 0 a3 3 0 1 0 -6 0z" fill="black"></path><path d="M441 660 a3 3 0 1 0 6 0 a3 3 0 1 0 -6 0zM441 756 a3 3 0 1 0 6 0 a3 3 0 1 0 -6 0z" fill="black"></path><path d="M633 84 a3 3 0 1 0 6 0 a3 3 0 1 0 -6 0zM633 156 a3 3 0 1 0 6 0 a3 3 0 1 0 -6 0z" fill="black"></path><path d="M57 324 a3 3 0 1 0 6 0 a3 3 0 1 0 -6 0zM33 444 a3 3 0 1 0 6 0 a3 3 0 1 0 -6 0z" fill="black"></path><path d="M1161 708 a3 3 0 1 0 6 0 a3 3 0 1 0 -6 0zM1089 732 a3 3 0 1 0 6 0 a3 3 0 1 0 -6 0z" fill="black"></path><path d="M1257 684 a3 3 0 1 0 6 0 a3 3 0 1 0 -6 0zM1305 708 a3 3 0 1 0 6 0 a3 3 0 1 0 -6 0z" fill="black"></path><path d="M873 564 a3 3 0 1 0 6 0 a3 3 0 1 0 -6 0zM873 636 a3 3 0 1 0 6 0 a3 3 0 1 0 -6 0z" fill="black"></path><path d="M1401 156 a3 3 0 1 0 6 0 a3 3 0 1 0 -6 0zM1353 180 a3 3 0 1 0 6 0 a3 3 0 1 0 -6 0z" fill="black"></path><path d="M561 756 a3 3 0 1 0 6 0 a3 3 0 1 0 -6 0zM609 780 a3 3 0 1 0 6 0 a3 3 0 1 0 -6 0z" fill="black"></path><path d="M1257 132 a3 3 0 1 0 6 0 a3 3 0 1 0 -6 0zM1305 132 a3 3 0 1 0 6 0 a3 3 0 1 0 -6 0z" fill="black"></path><path d="M81 372 a3 3 0 1 0 6 0 a3 3 0 1 0 -6 0zM81 444 a3 3 0 1 0 6 0 a3 3 0 1 0 -6 0z" fill="black"></path><path d="M105 132 a3 3 0 1 0 6 0 a3 3 0 1 0 -6 0zM57 132 a3 3 0 1 0 6 0 a3 3 0 1 0 -6 0z" fill="black"></path><path d="M1233 36 a3 3 0 1 0 6 0 a3 3 0 1 0 -6 0zM1305 36 a3 3 0 1 0 6 0 a3 3 0 1 0 -6 0z" fill="black"></path><path d="M1137 684 a3 3 0 1 0 6 0 a3 3 0 1 0 -6 0zM1089 708 a3 3 0 1 0 6 0 a3 3 0 1 0 -6 0z" fill="black"></path><path d="M369 12 a3 3 0 1 0 6 0 a3 3 0 1 0 -6 0zM369 108 a3 3 0 1 0 6 0 a3 3 0 1 0 -6 0z" fill="black"></path><path d="M1065 132 a3 3 0 1 0 6 0 a3 3 0 1 0 -6 0zM969 36 a3 3 0 1 0 6 0 a3 3 0 1 0 -6 0z" fill="black"></path><path d="M465 132 a3 3 0 1 0 6 0 a3 3 0 1 0 -6 0zM417 132 a3 3 0 1 0 6 0 a3 3 0 1 0 -6 0z" fill="black"></path><path d="M801 420 a3 3 0 1 0 6 0 a3 3 0 1 0 -6 0zM849 372 a3 3 0 1 0 6 0 a3 3 0 1 0 -6 0z" fill="black"></path><path d="M81 324 a3 3 0 1 0 6 0 a3 3 0 1 0 -6 0zM57 372 a3 3 0 1 0 6 0 a3 3 0 1 0 -6 0z" fill="black"></path><path d="M657 468 a3 3 0 1 0 6 0 a3 3 0 1 0 -6 0zM681 516 a3 3 0 1 0 6 0 a3 3 0 1 0 -6 0z" fill="black"></path><path d="M57 60 a3 3 0 1 0 6 0 a3 3 0 1 0 -6 0zM9 108 a3 3 0 1 0 6 0 a3 3 0 1 0 -6 0z" fill="black"></path><path d="M1065 492 a3 3 0 1 0 6 0 a3 3 0 1 0 -6 0zM1065 540 a3 3 0 1 0 6 0 a3 3 0 1 0 -6 0z" fill="black"></path><path d="M441 612 a3 3 0 1 0 6 0 a3 3 0 1 0 -6 0zM369 612 a3 3 0 1 0 6 0 a3 3 0 1 0 -6 0z" fill="black"></path><path d="M201 396 a3 3 0 1 0 6 0 a3 3 0 1 0 -6 0zM249 348 a3 3 0 1 0 6 0 a3 3 0 1 0 -6 0z" fill="black"></path><path d="M657 588 a3 3 0 1 0 6 0 a3 3 0 1 0 -6 0zM609 588 a3 3 0 1 0 6 0 a3 3 0 1 0 -6 0z" fill="black"></path><path d="M1401 804 a3 3 0 1 0 6 0 a3 3 0 1 0 -6 0zM1401 732 a3 3 0 1 0 6 0 a3 3 0 1 0 -6 0z" fill="black"></path><path d="M249 612 a3 3 0 1 0 6 0 a3 3 0 1 0 -6 0zM201 612 a3 3 0 1 0 6 0 a3 3 0 1 0 -6 0z" fill="black"></path></mask></defs></svg>