<svg xmlns="http://www.w3.org/2000/svg" version="1.1" xmlns:xlink="http://www.w3.org/1999/xlink" xmlns:svgjs="http://svgjs.dev/svgjs" width="800" height="1500" preserveAspectRatio="none" viewBox="0 0 800 1500"><g mask="url(&quot;#SvgjsMask1080&quot;)" fill="none"><rect width="800" height="1500" x="0" y="0" fill="rgba(5, 4, 8, 1)"></rect><g mask="url(&quot;#SvgjsMask1081&quot;)"><path d="M660 1164L708 1116L708 924L804 828L804 708" stroke-width="4" stroke="rgba(46, 30, 57, 0.53)"></path><path d="M654 1164 a6 6 0 1 0 12 0 a6 6 0 1 0 -12 0zM798 708 a6 6 0 1 0 12 0 a6 6 0 1 0 -12 0z" fill="rgba(46, 30, 57, 0.53)"></path><path d="M372 804L684 1116" stroke-width="4" stroke="rgba(46, 30, 57, 0.53)"></path><path d="M366 804 a6 6 0 1 0 12 0 a6 6 0 1 0 -12 0zM678 1116 a6 6 0 1 0 12 0 a6 6 0 1 0 -12 0z" fill="rgba(46, 30, 57, 0.53)"></path><path d="M588 900L348 660L132 660" stroke-width="4" stroke="rgba(46, 30, 57, 0.53)"></path><path d="M582 900 a6 6 0 1 0 12 0 a6 6 0 1 0 -12 0zM126 660 a6 6 0 1 0 12 0 a6 6 0 1 0 -12 0z" fill="rgba(46, 30, 57, 0.53)"></path><path d="M468 108L372 12L12 12" stroke-width="4" stroke="rgba(46, 30, 57, 0.53)"></path><path d="M462 108 a6 6 0 1 0 12 0 a6 6 0 1 0 -12 0zM6 12 a6 6 0 1 0 12 0 a6 6 0 1 0 -12 0z" fill="rgba(46, 30, 57, 0.53)"></path><path d="M468 708L516 660L804 660" stroke-width="4" stroke="rgba(46, 30, 57, 0.53)"></path><path d="M462 708 a6 6 0 1 0 12 0 a6 6 0 1 0 -12 0zM798 660 a6 6 0 1 0 12 0 a6 6 0 1 0 -12 0z" fill="rgba(46, 30, 57, 0.53)"></path><path d="M252 780L252 996L180 1068L108 1068L12 1164" stroke-width="4" stroke="rgba(46, 30, 57, 0.53)"></path><path d="M246 780 a6 6 0 1 0 12 0 a6 6 0 1 0 -12 0zM6 1164 a6 6 0 1 0 12 0 a6 6 0 1 0 -12 0z" fill="rgba(46, 30, 57, 0.53)"></path><path d="M180 612L180 516L84 420L12 420" stroke-width="4" stroke="rgba(46, 30, 57, 0.53)"></path><path d="M174 612 a6 6 0 1 0 12 0 a6 6 0 1 0 -12 0zM6 420 a6 6 0 1 0 12 0 a6 6 0 1 0 -12 0z" fill="rgba(46, 30, 57, 0.53)"></path><path d="M444 780L420 804L396 804L276 684L228 684L180 732L12 732" stroke-width="4" stroke="rgba(46, 30, 57, 0.53)"></path><path d="M438 780 a6 6 0 1 0 12 0 a6 6 0 1 0 -12 0zM6 732 a6 6 0 1 0 12 0 a6 6 0 1 0 -12 0z" fill="rgba(46, 30, 57, 0.53)"></path><path d="M780 900L780 1236L660 1356" stroke-width="4" stroke="rgba(46, 30, 57, 0.53)"></path><path d="M774 900 a6 6 0 1 0 12 0 a6 6 0 1 0 -12 0zM654 1356 a6 6 0 1 0 12 0 a6 6 0 1 0 -12 0z" fill="rgba(46, 30, 57, 0.53)"></path><path d="M156 276L156 420L132 444" stroke-width="4" stroke="rgba(46, 30, 57, 0.53)"></path><path d="M150 276 a6 6 0 1 0 12 0 a6 6 0 1 0 -12 0zM126 444 a6 6 0 1 0 12 0 a6 6 0 1 0 -12 0z" fill="rgba(46, 30, 57, 0.53)"></path><path d="M372 1236L12 1236" stroke-width="4" stroke="rgba(46, 30, 57, 0.53)"></path><path d="M366 1236 a6 6 0 1 0 12 0 a6 6 0 1 0 -12 0zM6 1236 a6 6 0 1 0 12 0 a6 6 0 1 0 -12 0z" fill="rgba(46, 30, 57, 0.53)"></path><path d="M12 1380L132 1500L468 1500" stroke-width="4" stroke="rgba(46, 30, 57, 0.53)"></path><path d="M6 1380 a6 6 0 1 0 12 0 a6 6 0 1 0 -12 0zM462 1500 a6 6 0 1 0 12 0 a6 6 0 1 0 -12 0z" fill="rgba(46, 30, 57, 0.53)"></path><path d="M588 1476L564 1500L492 1500L444 1452L372 1452L348 1476L132 1476" stroke-width="4" stroke="rgba(46, 30, 57, 0.53)"></path><path d="M582 1476 a6 6 0 1 0 12 0 a6 6 0 1 0 -12 0zM126 1476 a6 6 0 1 0 12 0 a6 6 0 1 0 -12 0z" fill="rgba(46, 30, 57, 0.53)"></path><path d="M444 1356L444 1212L492 1164L636 1164L660 1140L660 1116L588 1044" stroke-width="4" stroke="rgba(46, 30, 57, 0.53)"></path><path d="M438 1356 a6 6 0 1 0 12 0 a6 6 0 1 0 -12 0zM582 1044 a6 6 0 1 0 12 0 a6 6 0 1 0 -12 0z" fill="rgba(46, 30, 57, 0.53)"></path><path d="M372 180L12 180" stroke-width="4" stroke="rgba(46, 30, 57, 0.53)"></path><path d="M366 180 a6 6 0 1 0 12 0 a6 6 0 1 0 -12 0zM6 180 a6 6 0 1 0 12 0 a6 6 0 1 0 -12 0z" fill="rgba(46, 30, 57, 0.53)"></path><path d="M84 396L108 420L132 420" stroke-width="4" stroke="rgba(46, 30, 57, 0.53)"></path><path d="M78 396 a6 6 0 1 0 12 0 a6 6 0 1 0 -12 0zM126 420 a6 6 0 1 0 12 0 a6 6 0 1 0 -12 0z" fill="rgba(46, 30, 57, 0.53)"></path><path d="M588 684L516 684L468 732L444 732L300 588L300 468L252 420" stroke-width="4" stroke="rgba(46, 30, 57, 0.53)"></path><path d="M582 684 a6 6 0 1 0 12 0 a6 6 0 1 0 -12 0zM246 420 a6 6 0 1 0 12 0 a6 6 0 1 0 -12 0z" fill="rgba(46, 30, 57, 0.53)"></path><path d="M516 996L372 996L276 900L276 708" stroke-width="4" stroke="rgba(46, 30, 57, 0.53)"></path><path d="M510 996 a6 6 0 1 0 12 0 a6 6 0 1 0 -12 0zM270 708 a6 6 0 1 0 12 0 a6 6 0 1 0 -12 0z" fill="rgba(46, 30, 57, 0.53)"></path><path d="M348 420L348 612L444 708" stroke-width="4" stroke="rgba(46, 30, 57, 0.53)"></path><path d="M342 420 a6 6 0 1 0 12 0 a6 6 0 1 0 -12 0zM438 708 a6 6 0 1 0 12 0 a6 6 0 1 0 -12 0z" fill="rgba(46, 30, 57, 0.53)"></path><path d="M396 12L636 252L636 468" stroke-width="4" stroke="rgba(46, 30, 57, 0.53)"></path><path d="M390 12 a6 6 0 1 0 12 0 a6 6 0 1 0 -12 0zM630 468 a6 6 0 1 0 12 0 a6 6 0 1 0 -12 0z" fill="rgba(46, 30, 57, 0.53)"></path><path d="M252 516L204 564L204 636" stroke-width="4" stroke="rgba(46, 30, 57, 0.53)"></path><path d="M246 516 a6 6 0 1 0 12 0 a6 6 0 1 0 -12 0zM198 636 a6 6 0 1 0 12 0 a6 6 0 1 0 -12 0z" fill="rgba(46, 30, 57, 0.53)"></path><path d="M36 540L84 588L84 708" stroke-width="4" stroke="rgba(46, 30, 57, 0.53)"></path><path d="M30 540 a6 6 0 1 0 12 0 a6 6 0 1 0 -12 0zM78 708 a6 6 0 1 0 12 0 a6 6 0 1 0 -12 0z" fill="rgba(46, 30, 57, 0.53)"></path><path d="M612 420L492 540L492 660L468 684L444 684L372 612L372 516" stroke-width="4" stroke="rgba(46, 30, 57, 0.53)"></path><path d="M606 420 a6 6 0 1 0 12 0 a6 6 0 1 0 -12 0zM366 516 a6 6 0 1 0 12 0 a6 6 0 1 0 -12 0z" fill="rgba(46, 30, 57, 0.53)"></path><path d="M516 444L468 492L468 540L444 564L444 660" stroke-width="4" stroke="rgba(46, 30, 57, 0.53)"></path><path d="M510 444 a6 6 0 1 0 12 0 a6 6 0 1 0 -12 0zM438 660 a6 6 0 1 0 12 0 a6 6 0 1 0 -12 0z" fill="rgba(46, 30, 57, 0.53)"></path><path d="M276 300L444 468L468 468L612 324L612 252L564 204" stroke-width="4" stroke="rgba(46, 30, 57, 0.53)"></path><path d="M270 300 a6 6 0 1 0 12 0 a6 6 0 1 0 -12 0zM558 204 a6 6 0 1 0 12 0 a6 6 0 1 0 -12 0z" fill="rgba(46, 30, 57, 0.53)"></path><path d="M780 588L732 636L516 636" stroke-width="4" stroke="rgba(46, 30, 57, 0.53)"></path><path d="M774 588 a6 6 0 1 0 12 0 a6 6 0 1 0 -12 0zM510 636 a6 6 0 1 0 12 0 a6 6 0 1 0 -12 0z" fill="rgba(46, 30, 57, 0.53)"></path><path d="M228 828L12 1044L12 1140" stroke-width="4" stroke="rgba(46, 30, 57, 0.53)"></path><path d="M222 828 a6 6 0 1 0 12 0 a6 6 0 1 0 -12 0zM6 1140 a6 6 0 1 0 12 0 a6 6 0 1 0 -12 0z" fill="rgba(46, 30, 57, 0.53)"></path><path d="M252 1380L708 1380" stroke-width="4" stroke="rgba(46, 30, 57, 0.53)"></path><path d="M246 1380 a6 6 0 1 0 12 0 a6 6 0 1 0 -12 0zM702 1380 a6 6 0 1 0 12 0 a6 6 0 1 0 -12 0z" fill="rgba(46, 30, 57, 0.53)"></path><path d="M348 876L324 852L324 756L300 732" stroke-width="4" stroke="rgba(46, 30, 57, 0.53)"></path><path d="M342 876 a6 6 0 1 0 12 0 a6 6 0 1 0 -12 0zM294 732 a6 6 0 1 0 12 0 a6 6 0 1 0 -12 0z" fill="rgba(46, 30, 57, 0.53)"></path><path d="M636 804L684 852L684 948L636 996L636 1044L684 1092" stroke-width="4" stroke="rgba(46, 30, 57, 0.53)"></path><path d="M630 804 a6 6 0 1 0 12 0 a6 6 0 1 0 -12 0zM678 1092 a6 6 0 1 0 12 0 a6 6 0 1 0 -12 0z" fill="rgba(46, 30, 57, 0.53)"></path><path d="M684 1476L684 1404" stroke-width="4" stroke="rgba(46, 30, 57, 0.53)"></path><path d="M678 1476 a6 6 0 1 0 12 0 a6 6 0 1 0 -12 0zM678 1404 a6 6 0 1 0 12 0 a6 6 0 1 0 -12 0z" fill="rgba(46, 30, 57, 0.53)"></path><path d="M684 108L684 60L708 36L804 36" stroke-width="4" stroke="rgba(46, 30, 57, 0.53)"></path><path d="M678 108 a6 6 0 1 0 12 0 a6 6 0 1 0 -12 0zM798 36 a6 6 0 1 0 12 0 a6 6 0 1 0 -12 0z" fill="rgba(46, 30, 57, 0.53)"></path><path d="M564 828L540 828L516 804L516 708" stroke-width="4" stroke="rgba(46, 30, 57, 0.53)"></path><path d="M558 828 a6 6 0 1 0 12 0 a6 6 0 1 0 -12 0zM510 708 a6 6 0 1 0 12 0 a6 6 0 1 0 -12 0z" fill="rgba(46, 30, 57, 0.53)"></path><path d="M420 156L516 156L540 180L540 228L564 252L564 276L420 420" stroke-width="4" stroke="rgba(46, 30, 57, 0.53)"></path><path d="M414 156 a6 6 0 1 0 12 0 a6 6 0 1 0 -12 0zM414 420 a6 6 0 1 0 12 0 a6 6 0 1 0 -12 0z" fill="rgba(46, 30, 57, 0.53)"></path><path d="M60 516L12 468L12 444" stroke-width="4" stroke="rgba(46, 30, 57, 0.53)"></path><path d="M54 516 a6 6 0 1 0 12 0 a6 6 0 1 0 -12 0zM6 444 a6 6 0 1 0 12 0 a6 6 0 1 0 -12 0z" fill="rgba(46, 30, 57, 0.53)"></path><path d="M444 1020L348 1020L276 948L276 924" stroke-width="4" stroke="rgba(46, 30, 57, 0.53)"></path><path d="M438 1020 a6 6 0 1 0 12 0 a6 6 0 1 0 -12 0zM270 924 a6 6 0 1 0 12 0 a6 6 0 1 0 -12 0z" fill="rgba(46, 30, 57, 0.53)"></path><path d="M516 492L516 468L540 444L564 444L612 396L612 348" stroke-width="4" stroke="rgba(46, 30, 57, 0.53)"></path><path d="M510 492 a6 6 0 1 0 12 0 a6 6 0 1 0 -12 0zM606 348 a6 6 0 1 0 12 0 a6 6 0 1 0 -12 0z" fill="rgba(46, 30, 57, 0.53)"></path><path d="M468 36L660 228L660 252L804 396L804 492" stroke-width="4" stroke="rgba(46, 30, 57, 0.53)"></path><path d="M462 36 a6 6 0 1 0 12 0 a6 6 0 1 0 -12 0zM798 492 a6 6 0 1 0 12 0 a6 6 0 1 0 -12 0z" fill="rgba(46, 30, 57, 0.53)"></path><path d="M180 372L276 276L276 204" stroke-width="4" stroke="rgba(46, 30, 57, 0.53)"></path><path d="M174 372 a6 6 0 1 0 12 0 a6 6 0 1 0 -12 0zM270 204 a6 6 0 1 0 12 0 a6 6 0 1 0 -12 0z" fill="rgba(46, 30, 57, 0.53)"></path><path d="M132 1452L324 1260L420 1260" stroke-width="4" stroke="rgba(46, 30, 57, 0.53)"></path><path d="M126 1452 a6 6 0 1 0 12 0 a6 6 0 1 0 -12 0zM414 1260 a6 6 0 1 0 12 0 a6 6 0 1 0 -12 0z" fill="rgba(46, 30, 57, 0.53)"></path><path d="M420 948L372 900L300 900" stroke-width="4" stroke="rgba(46, 30, 57, 0.53)"></path><path d="M414 948 a6 6 0 1 0 12 0 a6 6 0 1 0 -12 0zM294 900 a6 6 0 1 0 12 0 a6 6 0 1 0 -12 0z" fill="rgba(46, 30, 57, 0.53)"></path><path d="M756 852L612 708L612 684" stroke-width="4" stroke="rgba(46, 30, 57, 0.53)"></path><path d="M750 852 a6 6 0 1 0 12 0 a6 6 0 1 0 -12 0zM606 684 a6 6 0 1 0 12 0 a6 6 0 1 0 -12 0z" fill="rgba(46, 30, 57, 0.53)"></path><path d="M732 1380L804 1308L804 924" stroke-width="4" stroke="rgba(46, 30, 57, 0.53)"></path><path d="M726 1380 a6 6 0 1 0 12 0 a6 6 0 1 0 -12 0zM798 924 a6 6 0 1 0 12 0 a6 6 0 1 0 -12 0z" fill="rgba(46, 30, 57, 0.53)"></path><path d="M348 300L420 372L444 372L540 276L540 252L468 180L420 180L300 60" stroke-width="4" stroke="rgba(46, 30, 57, 0.53)"></path><path d="M342 300 a6 6 0 1 0 12 0 a6 6 0 1 0 -12 0zM294 60 a6 6 0 1 0 12 0 a6 6 0 1 0 -12 0z" fill="rgba(46, 30, 57, 0.53)"></path><path d="M804 540L732 612L516 612" stroke-width="4" stroke="rgba(46, 30, 57, 0.53)"></path><path d="M798 540 a6 6 0 1 0 12 0 a6 6 0 1 0 -12 0zM510 612 a6 6 0 1 0 12 0 a6 6 0 1 0 -12 0z" fill="rgba(46, 30, 57, 0.53)"></path><path d="M636 1356L756 1236L756 972L732 948L732 924L756 900" stroke-width="4" stroke="rgba(46, 30, 57, 0.53)"></path><path d="M630 1356 a6 6 0 1 0 12 0 a6 6 0 1 0 -12 0zM750 900 a6 6 0 1 0 12 0 a6 6 0 1 0 -12 0z" fill="rgba(46, 30, 57, 0.53)"></path><path d="M564 1308L564 1356" stroke-width="4" stroke="rgba(46, 30, 57, 0.53)"></path><path d="M558 1308 a6 6 0 1 0 12 0 a6 6 0 1 0 -12 0zM558 1356 a6 6 0 1 0 12 0 a6 6 0 1 0 -12 0z" fill="rgba(46, 30, 57, 0.53)"></path><path d="M732 348L780 396L780 540L732 588L516 588" stroke-width="4" stroke="rgba(46, 30, 57, 0.53)"></path><path d="M726 348 a6 6 0 1 0 12 0 a6 6 0 1 0 -12 0zM510 588 a6 6 0 1 0 12 0 a6 6 0 1 0 -12 0z" fill="rgba(46, 30, 57, 0.53)"></path><path d="M348 708L372 708L420 756L420 780" stroke-width="4" stroke="rgba(46, 30, 57, 0.53)"></path><path d="M342 708 a6 6 0 1 0 12 0 a6 6 0 1 0 -12 0zM414 780 a6 6 0 1 0 12 0 a6 6 0 1 0 -12 0z" fill="rgba(46, 30, 57, 0.53)"></path><path d="M564 1404L612 1404L660 1452L660 1500" stroke-width="4" stroke="rgba(46, 30, 57, 0.53)"></path><path d="M558 1404 a6 6 0 1 0 12 0 a6 6 0 1 0 -12 0zM654 1500 a6 6 0 1 0 12 0 a6 6 0 1 0 -12 0z" fill="rgba(46, 30, 57, 0.53)"></path><path d="M204 324L180 300L180 204" stroke-width="4" stroke="rgba(46, 30, 57, 0.53)"></path><path d="M198 324 a6 6 0 1 0 12 0 a6 6 0 1 0 -12 0zM174 204 a6 6 0 1 0 12 0 a6 6 0 1 0 -12 0z" fill="rgba(46, 30, 57, 0.53)"></path><path d="M684 972L660 996L660 1044" stroke-width="4" stroke="rgba(46, 30, 57, 0.53)"></path><path d="M678 972 a6 6 0 1 0 12 0 a6 6 0 1 0 -12 0zM654 1044 a6 6 0 1 0 12 0 a6 6 0 1 0 -12 0z" fill="rgba(46, 30, 57, 0.53)"></path><path d="M348 36L444 132L492 132" stroke-width="4" stroke="rgba(46, 30, 57, 0.53)"></path><path d="M342 36 a6 6 0 1 0 12 0 a6 6 0 1 0 -12 0zM486 132 a6 6 0 1 0 12 0 a6 6 0 1 0 -12 0z" fill="rgba(46, 30, 57, 0.53)"></path><path d="M588 804L636 756" stroke-width="4" stroke="rgba(46, 30, 57, 0.53)"></path><path d="M582 804 a6 6 0 1 0 12 0 a6 6 0 1 0 -12 0zM630 756 a6 6 0 1 0 12 0 a6 6 0 1 0 -12 0z" fill="rgba(46, 30, 57, 0.53)"></path><path d="M132 1212L228 1212L396 1044L516 1044L588 1116" stroke-width="4" stroke="rgba(46, 30, 57, 0.53)"></path><path d="M126 1212 a6 6 0 1 0 12 0 a6 6 0 1 0 -12 0zM582 1116 a6 6 0 1 0 12 0 a6 6 0 1 0 -12 0z" fill="rgba(46, 30, 57, 0.53)"></path><path d="M12 132L12 60L36 36L324 36L396 108" stroke-width="4" stroke="rgba(46, 30, 57, 0.53)"></path><path d="M6 132 a6 6 0 1 0 12 0 a6 6 0 1 0 -12 0zM390 108 a6 6 0 1 0 12 0 a6 6 0 1 0 -12 0z" fill="rgba(46, 30, 57, 0.53)"></path><path d="M780 1452L708 1452" stroke-width="4" stroke="rgba(46, 30, 57, 0.53)"></path><path d="M774 1452 a6 6 0 1 0 12 0 a6 6 0 1 0 -12 0zM702 1452 a6 6 0 1 0 12 0 a6 6 0 1 0 -12 0z" fill="rgba(46, 30, 57, 0.53)"></path><path d="M540 372L468 444L444 444" stroke-width="4" stroke="rgba(46, 30, 57, 0.53)"></path><path d="M534 372 a6 6 0 1 0 12 0 a6 6 0 1 0 -12 0zM438 444 a6 6 0 1 0 12 0 a6 6 0 1 0 -12 0z" fill="rgba(46, 30, 57, 0.53)"></path><path d="M228 1452L156 1452" stroke-width="4" stroke="rgba(46, 30, 57, 0.53)"></path><path d="M222 1452 a6 6 0 1 0 12 0 a6 6 0 1 0 -12 0zM150 1452 a6 6 0 1 0 12 0 a6 6 0 1 0 -12 0z" fill="rgba(46, 30, 57, 0.53)"></path><path d="M324 1332L300 1356L252 1356" stroke-width="4" stroke="rgba(46, 30, 57, 0.53)"></path><path d="M318 1332 a6 6 0 1 0 12 0 a6 6 0 1 0 -12 0zM246 1356 a6 6 0 1 0 12 0 a6 6 0 1 0 -12 0z" fill="rgba(46, 30, 57, 0.53)"></path><path d="M180 108L324 108L372 156" stroke-width="4" stroke="rgba(46, 30, 57, 0.53)"></path><path d="M174 108 a6 6 0 1 0 12 0 a6 6 0 1 0 -12 0zM366 156 a6 6 0 1 0 12 0 a6 6 0 1 0 -12 0z" fill="rgba(46, 30, 57, 0.53)"></path><path d="M780 156L780 108L804 84L804 60" stroke-width="4" stroke="rgba(46, 30, 57, 0.53)"></path><path d="M774 156 a6 6 0 1 0 12 0 a6 6 0 1 0 -12 0zM798 60 a6 6 0 1 0 12 0 a6 6 0 1 0 -12 0z" fill="rgba(46, 30, 57, 0.53)"></path><path d="M84 252L12 252" stroke-width="4" stroke="rgba(46, 30, 57, 0.53)"></path><path d="M78 252 a6 6 0 1 0 12 0 a6 6 0 1 0 -12 0zM6 252 a6 6 0 1 0 12 0 a6 6 0 1 0 -12 0z" fill="rgba(46, 30, 57, 0.53)"></path><path d="M396 1212L444 1164L468 1164L492 1140L492 1092L468 1068L396 1068L252 1212" stroke-width="4" stroke="rgba(46, 30, 57, 0.53)"></path><path d="M390 1212 a6 6 0 1 0 12 0 a6 6 0 1 0 -12 0zM246 1212 a6 6 0 1 0 12 0 a6 6 0 1 0 -12 0z" fill="rgba(46, 30, 57, 0.53)"></path><path d="M588 36L804 252L804 372" stroke-width="4" stroke="rgba(46, 30, 57, 0.53)"></path><path d="M582 36 a6 6 0 1 0 12 0 a6 6 0 1 0 -12 0zM798 372 a6 6 0 1 0 12 0 a6 6 0 1 0 -12 0z" fill="rgba(46, 30, 57, 0.53)"></path><path d="M108 1500L12 1404" stroke-width="4" stroke="rgba(46, 30, 57, 0.53)"></path><path d="M102 1500 a6 6 0 1 0 12 0 a6 6 0 1 0 -12 0zM6 1404 a6 6 0 1 0 12 0 a6 6 0 1 0 -12 0z" fill="rgba(46, 30, 57, 0.53)"></path><path d="M564 84L564 108L780 324L780 348" stroke-width="4" stroke="rgba(46, 30, 57, 0.53)"></path><path d="M558 84 a6 6 0 1 0 12 0 a6 6 0 1 0 -12 0zM774 348 a6 6 0 1 0 12 0 a6 6 0 1 0 -12 0z" fill="rgba(46, 30, 57, 0.53)"></path><path d="M636 132L780 276L780 300" stroke-width="4" stroke="rgba(46, 30, 57, 0.53)"></path><path d="M630 132 a6 6 0 1 0 12 0 a6 6 0 1 0 -12 0zM774 300 a6 6 0 1 0 12 0 a6 6 0 1 0 -12 0z" fill="rgba(46, 30, 57, 0.53)"></path><path d="M540 1188L732 1188" stroke-width="4" stroke="rgba(46, 30, 57, 0.53)"></path><path d="M534 1188 a6 6 0 1 0 12 0 a6 6 0 1 0 -12 0zM726 1188 a6 6 0 1 0 12 0 a6 6 0 1 0 -12 0z" fill="rgba(46, 30, 57, 0.53)"></path><path d="M204 540L204 516L228 492L276 492" stroke-width="4" stroke="rgba(46, 30, 57, 0.53)"></path><path d="M198 540 a6 6 0 1 0 12 0 a6 6 0 1 0 -12 0zM270 492 a6 6 0 1 0 12 0 a6 6 0 1 0 -12 0z" fill="rgba(46, 30, 57, 0.53)"></path><path d="M12 804L60 756L252 756" stroke-width="4" stroke="rgba(46, 30, 57, 0.53)"></path><path d="M6 804 a6 6 0 1 0 12 0 a6 6 0 1 0 -12 0zM246 756 a6 6 0 1 0 12 0 a6 6 0 1 0 -12 0z" fill="rgba(46, 30, 57, 0.53)"></path><path d="M372 1140L348 1140L276 1212" stroke-width="4" stroke="rgba(46, 30, 57, 0.53)"></path><path d="M366 1140 a6 6 0 1 0 12 0 a6 6 0 1 0 -12 0zM270 1212 a6 6 0 1 0 12 0 a6 6 0 1 0 -12 0z" fill="rgba(46, 30, 57, 0.53)"></path><path d="M732 516L660 444L660 276" stroke-width="4" stroke="rgba(46, 30, 57, 0.53)"></path><path d="M726 516 a6 6 0 1 0 12 0 a6 6 0 1 0 -12 0zM654 276 a6 6 0 1 0 12 0 a6 6 0 1 0 -12 0z" fill="rgba(46, 30, 57, 0.53)"></path><path d="M804 1452L804 1500" stroke-width="4" stroke="rgba(46, 30, 57, 0.53)"></path><path d="M798 1452 a6 6 0 1 0 12 0 a6 6 0 1 0 -12 0zM798 1500 a6 6 0 1 0 12 0 a6 6 0 1 0 -12 0z" fill="rgba(46, 30, 57, 0.53)"></path><path d="M420 564L420 636" stroke-width="4" stroke="rgba(46, 30, 57, 0.53)"></path><path d="M414 564 a6 6 0 1 0 12 0 a6 6 0 1 0 -12 0zM414 636 a6 6 0 1 0 12 0 a6 6 0 1 0 -12 0z" fill="rgba(46, 30, 57, 0.53)"></path><path d="M804 12L540 12L516 36L492 36L468 12L420 12" stroke-width="4" stroke="rgba(46, 30, 57, 0.53)"></path><path d="M798 12 a6 6 0 1 0 12 0 a6 6 0 1 0 -12 0zM414 12 a6 6 0 1 0 12 0 a6 6 0 1 0 -12 0z" fill="rgba(46, 30, 57, 0.53)"></path><path d="M156 1332L156 1284L132 1260L12 1260" stroke-width="4" stroke="rgba(46, 30, 57, 0.53)"></path><path d="M150 1332 a6 6 0 1 0 12 0 a6 6 0 1 0 -12 0zM6 1260 a6 6 0 1 0 12 0 a6 6 0 1 0 -12 0z" fill="rgba(46, 30, 57, 0.53)"></path><path d="M420 1356L324 1356" stroke-width="4" stroke="rgba(46, 30, 57, 0.53)"></path><path d="M414 1356 a6 6 0 1 0 12 0 a6 6 0 1 0 -12 0zM318 1356 a6 6 0 1 0 12 0 a6 6 0 1 0 -12 0z" fill="rgba(46, 30, 57, 0.53)"></path><path d="M708 108L756 60L780 60" stroke-width="4" stroke="rgba(46, 30, 57, 0.53)"></path><path d="M702 108 a6 6 0 1 0 12 0 a6 6 0 1 0 -12 0zM774 60 a6 6 0 1 0 12 0 a6 6 0 1 0 -12 0z" fill="rgba(46, 30, 57, 0.53)"></path><path d="M444 276L516 276" stroke-width="4" stroke="rgba(46, 30, 57, 0.53)"></path><path d="M438 276 a6 6 0 1 0 12 0 a6 6 0 1 0 -12 0zM510 276 a6 6 0 1 0 12 0 a6 6 0 1 0 -12 0z" fill="rgba(46, 30, 57, 0.53)"></path><path d="M732 780L732 804L756 828L780 828" stroke-width="4" stroke="rgba(46, 30, 57, 0.53)"></path><path d="M726 780 a6 6 0 1 0 12 0 a6 6 0 1 0 -12 0zM774 828 a6 6 0 1 0 12 0 a6 6 0 1 0 -12 0z" fill="rgba(46, 30, 57, 0.53)"></path><path d="M540 924L540 876L468 804L444 804L420 828" stroke-width="4" stroke="rgba(46, 30, 57, 0.53)"></path><path d="M534 924 a6 6 0 1 0 12 0 a6 6 0 1 0 -12 0zM414 828 a6 6 0 1 0 12 0 a6 6 0 1 0 -12 0z" fill="rgba(46, 30, 57, 0.53)"></path><path d="M324 1404L204 1404L180 1428" stroke-width="4" stroke="rgba(46, 30, 57, 0.53)"></path><path d="M318 1404 a6 6 0 1 0 12 0 a6 6 0 1 0 -12 0zM174 1428 a6 6 0 1 0 12 0 a6 6 0 1 0 -12 0z" fill="rgba(46, 30, 57, 0.53)"></path><path d="M108 396L108 348L132 324L132 228L108 204L12 204" stroke-width="4" stroke="rgba(46, 30, 57, 0.53)"></path><path d="M102 396 a6 6 0 1 0 12 0 a6 6 0 1 0 -12 0zM6 204 a6 6 0 1 0 12 0 a6 6 0 1 0 -12 0z" fill="rgba(46, 30, 57, 0.53)"></path><path d="M60 780L60 972L12 1020" stroke-width="4" stroke="rgba(46, 30, 57, 0.53)"></path><path d="M54 780 a6 6 0 1 0 12 0 a6 6 0 1 0 -12 0zM6 1020 a6 6 0 1 0 12 0 a6 6 0 1 0 -12 0z" fill="rgba(46, 30, 57, 0.53)"></path><path d="M180 1140L276 1140L372 1044" stroke-width="4" stroke="rgba(46, 30, 57, 0.53)"></path><path d="M174 1140 a6 6 0 1 0 12 0 a6 6 0 1 0 -12 0zM366 1044 a6 6 0 1 0 12 0 a6 6 0 1 0 -12 0z" fill="rgba(46, 30, 57, 0.53)"></path><path d="M468 588L468 660" stroke-width="4" stroke="rgba(46, 30, 57, 0.53)"></path><path d="M462 588 a6 6 0 1 0 12 0 a6 6 0 1 0 -12 0zM462 660 a6 6 0 1 0 12 0 a6 6 0 1 0 -12 0z" fill="rgba(46, 30, 57, 0.53)"></path><path d="M84 108L36 156L12 156" stroke-width="4" stroke="rgba(46, 30, 57, 0.53)"></path><path d="M78 108 a6 6 0 1 0 12 0 a6 6 0 1 0 -12 0zM6 156 a6 6 0 1 0 12 0 a6 6 0 1 0 -12 0z" fill="rgba(46, 30, 57, 0.53)"></path><path d="M60 1164L60 1140L108 1092L180 1092L276 996L300 996L348 1044" stroke-width="4" stroke="rgba(46, 30, 57, 0.53)"></path><path d="M54 1164 a6 6 0 1 0 12 0 a6 6 0 1 0 -12 0zM342 1044 a6 6 0 1 0 12 0 a6 6 0 1 0 -12 0z" fill="rgba(46, 30, 57, 0.53)"></path><path d="M636 564L636 492L660 468" stroke-width="4" stroke="rgba(46, 30, 57, 0.53)"></path><path d="M630 564 a6 6 0 1 0 12 0 a6 6 0 1 0 -12 0zM654 468 a6 6 0 1 0 12 0 a6 6 0 1 0 -12 0z" fill="rgba(46, 30, 57, 0.53)"></path><path d="M156 972L84 1044L84 1068L36 1116" stroke-width="4" stroke="rgba(46, 30, 57, 0.53)"></path><path d="M150 972 a6 6 0 1 0 12 0 a6 6 0 1 0 -12 0zM30 1116 a6 6 0 1 0 12 0 a6 6 0 1 0 -12 0z" fill="rgba(46, 30, 57, 0.53)"></path><path d="M468 1092L396 1092L372 1116" stroke-width="4" stroke="rgba(46, 30, 57, 0.53)"></path><path d="M462 1092 a6 6 0 1 0 12 0 a6 6 0 1 0 -12 0zM366 1116 a6 6 0 1 0 12 0 a6 6 0 1 0 -12 0z" fill="rgba(46, 30, 57, 0.53)"></path><path d="M444 252L516 252" stroke-width="4" stroke="rgba(46, 30, 57, 0.53)"></path><path d="M438 252 a6 6 0 1 0 12 0 a6 6 0 1 0 -12 0zM510 252 a6 6 0 1 0 12 0 a6 6 0 1 0 -12 0z" fill="rgba(46, 30, 57, 0.53)"></path><path d="M180 1380L300 1260" stroke-width="4" stroke="rgba(46, 30, 57, 0.53)"></path><path d="M174 1380 a6 6 0 1 0 12 0 a6 6 0 1 0 -12 0zM294 1260 a6 6 0 1 0 12 0 a6 6 0 1 0 -12 0z" fill="rgba(46, 30, 57, 0.53)"></path><path d="M36 636L36 708" stroke-width="4" stroke="rgba(46, 30, 57, 0.53)"></path><path d="M30 636 a6 6 0 1 0 12 0 a6 6 0 1 0 -12 0zM30 708 a6 6 0 1 0 12 0 a6 6 0 1 0 -12 0z" fill="rgba(46, 30, 57, 0.53)"></path><path d="M804 204L804 108" stroke-width="4" stroke="rgba(46, 30, 57, 0.53)"></path><path d="M798 204 a6 6 0 1 0 12 0 a6 6 0 1 0 -12 0zM798 108 a6 6 0 1 0 12 0 a6 6 0 1 0 -12 0z" fill="rgba(46, 30, 57, 0.53)"></path><path d="M60 1212L12 1212" stroke-width="4" stroke="rgba(46, 30, 57, 0.53)"></path><path d="M54 1212 a6 6 0 1 0 12 0 a6 6 0 1 0 -12 0zM6 1212 a6 6 0 1 0 12 0 a6 6 0 1 0 -12 0z" fill="rgba(46, 30, 57, 0.53)"></path><path d="M252 636L276 612L300 612L324 636" stroke-width="4" stroke="rgba(46, 30, 57, 0.53)"></path><path d="M246 636 a6 6 0 1 0 12 0 a6 6 0 1 0 -12 0zM318 636 a6 6 0 1 0 12 0 a6 6 0 1 0 -12 0z" fill="rgba(46, 30, 57, 0.53)"></path><path d="M108 996L36 1068L36 1092" stroke-width="4" stroke="rgba(46, 30, 57, 0.53)"></path><path d="M102 996 a6 6 0 1 0 12 0 a6 6 0 1 0 -12 0zM30 1092 a6 6 0 1 0 12 0 a6 6 0 1 0 -12 0z" fill="rgba(46, 30, 57, 0.53)"></path><path d="M756 540L660 540" stroke-width="4" stroke="rgba(46, 30, 57, 0.53)"></path><path d="M750 540 a6 6 0 1 0 12 0 a6 6 0 1 0 -12 0zM654 540 a6 6 0 1 0 12 0 a6 6 0 1 0 -12 0z" fill="rgba(46, 30, 57, 0.53)"></path><path d="M132 972L228 876L228 852" stroke-width="4" stroke="rgba(46, 30, 57, 0.53)"></path><path d="M126 972 a6 6 0 1 0 12 0 a6 6 0 1 0 -12 0zM222 852 a6 6 0 1 0 12 0 a6 6 0 1 0 -12 0z" fill="rgba(46, 30, 57, 0.53)"></path><path d="M132 852L84 900L84 948" stroke-width="4" stroke="rgba(46, 30, 57, 0.53)"></path><path d="M126 852 a6 6 0 1 0 12 0 a6 6 0 1 0 -12 0zM78 948 a6 6 0 1 0 12 0 a6 6 0 1 0 -12 0z" fill="rgba(46, 30, 57, 0.53)"></path><path d="M132 1164L108 1140L108 1116" stroke-width="4" stroke="rgba(46, 30, 57, 0.53)"></path><path d="M126 1164 a6 6 0 1 0 12 0 a6 6 0 1 0 -12 0zM102 1116 a6 6 0 1 0 12 0 a6 6 0 1 0 -12 0z" fill="rgba(46, 30, 57, 0.53)"></path><path d="M708 780L804 684" stroke-width="4" stroke="rgba(46, 30, 57, 0.53)"></path><path d="M702 780 a6 6 0 1 0 12 0 a6 6 0 1 0 -12 0zM798 684 a6 6 0 1 0 12 0 a6 6 0 1 0 -12 0z" fill="rgba(46, 30, 57, 0.53)"></path><path d="M804 1404L780 1380L756 1380L708 1428" stroke-width="4" stroke="rgba(46, 30, 57, 0.53)"></path><path d="M798 1404 a6 6 0 1 0 12 0 a6 6 0 1 0 -12 0zM702 1428 a6 6 0 1 0 12 0 a6 6 0 1 0 -12 0z" fill="rgba(46, 30, 57, 0.53)"></path><path d="M228 420L228 348L252 324" stroke-width="4" stroke="rgba(46, 30, 57, 0.53)"></path><path d="M222 420 a6 6 0 1 0 12 0 a6 6 0 1 0 -12 0zM246 324 a6 6 0 1 0 12 0 a6 6 0 1 0 -12 0z" fill="rgba(46, 30, 57, 0.53)"></path><path d="M492 1284L540 1332L540 1356" stroke-width="4" stroke="rgba(46, 30, 57, 0.53)"></path><path d="M486 1284 a6 6 0 1 0 12 0 a6 6 0 1 0 -12 0zM534 1356 a6 6 0 1 0 12 0 a6 6 0 1 0 -12 0z" fill="rgba(46, 30, 57, 0.53)"></path><path d="M588 1260L588 1356" stroke-width="4" stroke="rgba(46, 30, 57, 0.53)"></path><path d="M582 1260 a6 6 0 1 0 12 0 a6 6 0 1 0 -12 0zM582 1356 a6 6 0 1 0 12 0 a6 6 0 1 0 -12 0z" fill="rgba(46, 30, 57, 0.53)"></path><path d="M636 900L660 876L660 852L612 804" stroke-width="4" stroke="rgba(46, 30, 57, 0.53)"></path><path d="M630 900 a6 6 0 1 0 12 0 a6 6 0 1 0 -12 0zM606 804 a6 6 0 1 0 12 0 a6 6 0 1 0 -12 0z" fill="rgba(46, 30, 57, 0.53)"></path><path d="M84 84L156 156L252 156L276 132L324 132L348 156" stroke-width="4" stroke="rgba(46, 30, 57, 0.53)"></path><path d="M78 84 a6 6 0 1 0 12 0 a6 6 0 1 0 -12 0zM342 156 a6 6 0 1 0 12 0 a6 6 0 1 0 -12 0z" fill="rgba(46, 30, 57, 0.53)"></path><path d="M396 228L372 252L372 300L420 348L444 348L492 300" stroke-width="4" stroke="rgba(46, 30, 57, 0.53)"></path><path d="M390 228 a6 6 0 1 0 12 0 a6 6 0 1 0 -12 0zM486 300 a6 6 0 1 0 12 0 a6 6 0 1 0 -12 0z" fill="rgba(46, 30, 57, 0.53)"></path><path d="M468 1116L372 1212L300 1212" stroke-width="4" stroke="rgba(46, 30, 57, 0.53)"></path><path d="M462 1116 a6 6 0 1 0 12 0 a6 6 0 1 0 -12 0zM294 1212 a6 6 0 1 0 12 0 a6 6 0 1 0 -12 0z" fill="rgba(46, 30, 57, 0.53)"></path><path d="M732 1212L612 1332L612 1356" stroke-width="4" stroke="rgba(46, 30, 57, 0.53)"></path><path d="M726 1212 a6 6 0 1 0 12 0 a6 6 0 1 0 -12 0zM606 1356 a6 6 0 1 0 12 0 a6 6 0 1 0 -12 0z" fill="rgba(46, 30, 57, 0.53)"></path><path d="M756 1428L804 1428" stroke-width="4" stroke="rgba(46, 30, 57, 0.53)"></path><path d="M750 1428 a6 6 0 1 0 12 0 a6 6 0 1 0 -12 0zM798 1428 a6 6 0 1 0 12 0 a6 6 0 1 0 -12 0z" fill="rgba(46, 30, 57, 0.53)"></path><path d="M156 1188L228 1188L252 1164" stroke-width="4" stroke="rgba(46, 30, 57, 0.53)"></path><path d="M150 1188 a6 6 0 1 0 12 0 a6 6 0 1 0 -12 0zM246 1164 a6 6 0 1 0 12 0 a6 6 0 1 0 -12 0z" fill="rgba(46, 30, 57, 0.53)"></path><path d="M228 84L252 60L276 60L300 84" stroke-width="4" stroke="rgba(46, 30, 57, 0.53)"></path><path d="M222 84 a6 6 0 1 0 12 0 a6 6 0 1 0 -12 0zM294 84 a6 6 0 1 0 12 0 a6 6 0 1 0 -12 0z" fill="rgba(46, 30, 57, 0.53)"></path><path d="M84 60L228 60" stroke-width="4" stroke="rgba(46, 30, 57, 0.53)"></path><path d="M78 60 a6 6 0 1 0 12 0 a6 6 0 1 0 -12 0zM222 60 a6 6 0 1 0 12 0 a6 6 0 1 0 -12 0z" fill="rgba(46, 30, 57, 0.53)"></path><path d="M468 1428L444 1404L372 1404L348 1428" stroke-width="4" stroke="rgba(46, 30, 57, 0.53)"></path><path d="M462 1428 a6 6 0 1 0 12 0 a6 6 0 1 0 -12 0zM342 1428 a6 6 0 1 0 12 0 a6 6 0 1 0 -12 0z" fill="rgba(46, 30, 57, 0.53)"></path><path d="M420 1308L300 1308L276 1332" stroke-width="4" stroke="rgba(46, 30, 57, 0.53)"></path><path d="M414 1308 a6 6 0 1 0 12 0 a6 6 0 1 0 -12 0zM270 1332 a6 6 0 1 0 12 0 a6 6 0 1 0 -12 0z" fill="rgba(46, 30, 57, 0.53)"></path><path d="M420 972L468 924" stroke-width="4" stroke="rgba(46, 30, 57, 0.53)"></path><path d="M414 972 a6 6 0 1 0 12 0 a6 6 0 1 0 -12 0zM462 924 a6 6 0 1 0 12 0 a6 6 0 1 0 -12 0z" fill="rgba(46, 30, 57, 0.53)"></path><path d="M84 1380L132 1332L132 1284" stroke-width="4" stroke="rgba(46, 30, 57, 0.53)"></path><path d="M78 1380 a6 6 0 1 0 12 0 a6 6 0 1 0 -12 0zM126 1284 a6 6 0 1 0 12 0 a6 6 0 1 0 -12 0z" fill="rgba(46, 30, 57, 0.53)"></path><path d="M84 1284L12 1284" stroke-width="4" stroke="rgba(46, 30, 57, 0.53)"></path><path d="M78 1284 a6 6 0 1 0 12 0 a6 6 0 1 0 -12 0zM6 1284 a6 6 0 1 0 12 0 a6 6 0 1 0 -12 0z" fill="rgba(46, 30, 57, 0.53)"></path><path d="M60 1404L108 1452" stroke-width="4" stroke="rgba(46, 30, 57, 0.53)"></path><path d="M54 1404 a6 6 0 1 0 12 0 a6 6 0 1 0 -12 0zM102 1452 a6 6 0 1 0 12 0 a6 6 0 1 0 -12 0z" fill="rgba(46, 30, 57, 0.53)"></path><path d="M732 1332L708 1356L684 1356" stroke-width="4" stroke="rgba(46, 30, 57, 0.53)"></path><path d="M726 1332 a6 6 0 1 0 12 0 a6 6 0 1 0 -12 0zM678 1356 a6 6 0 1 0 12 0 a6 6 0 1 0 -12 0z" fill="rgba(46, 30, 57, 0.53)"></path><path d="M708 468L708 324L684 300" stroke-width="4" stroke="rgba(46, 30, 57, 0.53)"></path><path d="M702 468 a6 6 0 1 0 12 0 a6 6 0 1 0 -12 0zM678 300 a6 6 0 1 0 12 0 a6 6 0 1 0 -12 0z" fill="rgba(46, 30, 57, 0.53)"></path><path d="M228 276L228 204" stroke-width="4" stroke="rgba(46, 30, 57, 0.53)"></path><path d="M222 276 a6 6 0 1 0 12 0 a6 6 0 1 0 -12 0zM222 204 a6 6 0 1 0 12 0 a6 6 0 1 0 -12 0z" fill="rgba(46, 30, 57, 0.53)"></path><path d="M132 204L156 228L156 252" stroke-width="4" stroke="rgba(46, 30, 57, 0.53)"></path><path d="M126 204 a6 6 0 1 0 12 0 a6 6 0 1 0 -12 0zM150 252 a6 6 0 1 0 12 0 a6 6 0 1 0 -12 0z" fill="rgba(46, 30, 57, 0.53)"></path><path d="M588 84L612 84L636 108" stroke-width="4" stroke="rgba(46, 30, 57, 0.53)"></path><path d="M582 84 a6 6 0 1 0 12 0 a6 6 0 1 0 -12 0zM630 108 a6 6 0 1 0 12 0 a6 6 0 1 0 -12 0z" fill="rgba(46, 30, 57, 0.53)"></path><path d="M108 1404L108 1380L132 1356L180 1356L276 1260" stroke-width="4" stroke="rgba(46, 30, 57, 0.53)"></path><path d="M102 1404 a6 6 0 1 0 12 0 a6 6 0 1 0 -12 0zM270 1260 a6 6 0 1 0 12 0 a6 6 0 1 0 -12 0z" fill="rgba(46, 30, 57, 0.53)"></path><path d="M180 1332L180 1260" stroke-width="4" stroke="rgba(46, 30, 57, 0.53)"></path><path d="M174 1332 a6 6 0 1 0 12 0 a6 6 0 1 0 -12 0zM174 1260 a6 6 0 1 0 12 0 a6 6 0 1 0 -12 0z" fill="rgba(46, 30, 57, 0.53)"></path><path d="M36 876L36 804" stroke-width="4" stroke="rgba(46, 30, 57, 0.53)"></path><path d="M30 876 a6 6 0 1 0 12 0 a6 6 0 1 0 -12 0zM30 804 a6 6 0 1 0 12 0 a6 6 0 1 0 -12 0z" fill="rgba(46, 30, 57, 0.53)"></path><path d="M612 1236L684 1236L708 1212" stroke-width="4" stroke="rgba(46, 30, 57, 0.53)"></path><path d="M606 1236 a6 6 0 1 0 12 0 a6 6 0 1 0 -12 0zM702 1212 a6 6 0 1 0 12 0 a6 6 0 1 0 -12 0z" fill="rgba(46, 30, 57, 0.53)"></path><path d="M132 492L132 588L180 636" stroke-width="4" stroke="rgba(46, 30, 57, 0.53)"></path><path d="M126 492 a6 6 0 1 0 12 0 a6 6 0 1 0 -12 0zM174 636 a6 6 0 1 0 12 0 a6 6 0 1 0 -12 0z" fill="rgba(46, 30, 57, 0.53)"></path><path d="M756 108L732 108L708 132" stroke-width="4" stroke="rgba(46, 30, 57, 0.53)"></path><path d="M750 108 a6 6 0 1 0 12 0 a6 6 0 1 0 -12 0zM702 132 a6 6 0 1 0 12 0 a6 6 0 1 0 -12 0z" fill="rgba(46, 30, 57, 0.53)"></path><path d="M540 420L564 396L588 396" stroke-width="4" stroke="rgba(46, 30, 57, 0.53)"></path><path d="M534 420 a6 6 0 1 0 12 0 a6 6 0 1 0 -12 0zM582 396 a6 6 0 1 0 12 0 a6 6 0 1 0 -12 0z" fill="rgba(46, 30, 57, 0.53)"></path><path d="M684 708L684 756" stroke-width="4" stroke="rgba(46, 30, 57, 0.53)"></path><path d="M678 708 a6 6 0 1 0 12 0 a6 6 0 1 0 -12 0zM678 756 a6 6 0 1 0 12 0 a6 6 0 1 0 -12 0z" fill="rgba(46, 30, 57, 0.53)"></path><path d="M588 876L612 852L636 852" stroke-width="4" stroke="rgba(46, 30, 57, 0.53)"></path><path d="M582 876 a6 6 0 1 0 12 0 a6 6 0 1 0 -12 0zM630 852 a6 6 0 1 0 12 0 a6 6 0 1 0 -12 0z" fill="rgba(46, 30, 57, 0.53)"></path><path d="M60 300L84 324L108 324" stroke-width="4" stroke="rgba(46, 30, 57, 0.53)"></path><path d="M54 300 a6 6 0 1 0 12 0 a6 6 0 1 0 -12 0zM102 324 a6 6 0 1 0 12 0 a6 6 0 1 0 -12 0z" fill="rgba(46, 30, 57, 0.53)"></path><path d="M108 1332L60 1380L36 1380L12 1356L12 1308" stroke-width="4" stroke="rgba(46, 30, 57, 0.53)"></path><path d="M102 1332 a6 6 0 1 0 12 0 a6 6 0 1 0 -12 0zM6 1308 a6 6 0 1 0 12 0 a6 6 0 1 0 -12 0z" fill="rgba(46, 30, 57, 0.53)"></path><path d="M732 1068L732 1164" stroke-width="4" stroke="rgba(46, 30, 57, 0.53)"></path><path d="M726 1068 a6 6 0 1 0 12 0 a6 6 0 1 0 -12 0zM726 1164 a6 6 0 1 0 12 0 a6 6 0 1 0 -12 0z" fill="rgba(46, 30, 57, 0.53)"></path><path d="M180 780L84 780" stroke-width="4" stroke="rgba(46, 30, 57, 0.53)"></path><path d="M174 780 a6 6 0 1 0 12 0 a6 6 0 1 0 -12 0zM78 780 a6 6 0 1 0 12 0 a6 6 0 1 0 -12 0z" fill="rgba(46, 30, 57, 0.53)"></path><path d="M756 180L732 156L732 132" stroke-width="4" stroke="rgba(46, 30, 57, 0.53)"></path><path d="M750 180 a6 6 0 1 0 12 0 a6 6 0 1 0 -12 0zM726 132 a6 6 0 1 0 12 0 a6 6 0 1 0 -12 0z" fill="rgba(46, 30, 57, 0.53)"></path><path d="M180 684L108 684" stroke-width="4" stroke="rgba(46, 30, 57, 0.53)"></path><path d="M174 684 a6 6 0 1 0 12 0 a6 6 0 1 0 -12 0zM102 684 a6 6 0 1 0 12 0 a6 6 0 1 0 -12 0z" fill="rgba(46, 30, 57, 0.53)"></path><path d="M396 1140L420 1116L444 1116" stroke-width="4" stroke="rgba(46, 30, 57, 0.53)"></path><path d="M390 1140 a6 6 0 1 0 12 0 a6 6 0 1 0 -12 0zM438 1116 a6 6 0 1 0 12 0 a6 6 0 1 0 -12 0z" fill="rgba(46, 30, 57, 0.53)"></path><path d="M732 1020L732 972" stroke-width="4" stroke="rgba(46, 30, 57, 0.53)"></path><path d="M726 1020 a6 6 0 1 0 12 0 a6 6 0 1 0 -12 0zM726 972 a6 6 0 1 0 12 0 a6 6 0 1 0 -12 0z" fill="rgba(46, 30, 57, 0.53)"></path><path d="M612 948L612 1020" stroke-width="4" stroke="rgba(46, 30, 57, 0.53)"></path><path d="M606 948 a6 6 0 1 0 12 0 a6 6 0 1 0 -12 0zM606 1020 a6 6 0 1 0 12 0 a6 6 0 1 0 -12 0z" fill="rgba(46, 30, 57, 0.53)"></path><path d="M804 1380L804 1332" stroke-width="4" stroke="rgba(46, 30, 57, 0.53)"></path><path d="M798 1380 a6 6 0 1 0 12 0 a6 6 0 1 0 -12 0zM798 1332 a6 6 0 1 0 12 0 a6 6 0 1 0 -12 0z" fill="rgba(46, 30, 57, 0.53)"></path><path d="M612 516L612 564" stroke-width="4" stroke="rgba(46, 30, 57, 0.53)"></path><path d="M606 516 a6 6 0 1 0 12 0 a6 6 0 1 0 -12 0zM606 564 a6 6 0 1 0 12 0 a6 6 0 1 0 -12 0z" fill="rgba(46, 30, 57, 0.53)"></path><path d="M396 396L300 300L300 204" stroke-width="4" stroke="rgba(46, 30, 57, 0.53)"></path><path d="M390 396 a6 6 0 1 0 12 0 a6 6 0 1 0 -12 0zM294 204 a6 6 0 1 0 12 0 a6 6 0 1 0 -12 0z" fill="rgba(46, 30, 57, 0.53)"></path><path d="M444 324L420 324L396 300L396 252L444 204L468 204L492 228" stroke-width="4" stroke="rgba(46, 30, 57, 0.53)"></path><path d="M438 324 a6 6 0 1 0 12 0 a6 6 0 1 0 -12 0zM486 228 a6 6 0 1 0 12 0 a6 6 0 1 0 -12 0z" fill="rgba(46, 30, 57, 0.53)"></path><path d="M228 924L204 924L180 948L180 1044" stroke-width="4" stroke="rgba(46, 30, 57, 0.53)"></path><path d="M222 924 a6 6 0 1 0 12 0 a6 6 0 1 0 -12 0zM174 1044 a6 6 0 1 0 12 0 a6 6 0 1 0 -12 0z" fill="rgba(46, 30, 57, 0.53)"></path><path d="M276 1044L300 1068L300 1092L276 1116L132 1116" stroke-width="4" stroke="rgba(46, 30, 57, 0.53)"></path><path d="M270 1044 a6 6 0 1 0 12 0 a6 6 0 1 0 -12 0zM126 1116 a6 6 0 1 0 12 0 a6 6 0 1 0 -12 0z" fill="rgba(46, 30, 57, 0.53)"></path><path d="M204 444L204 372" stroke-width="4" stroke="rgba(46, 30, 57, 0.53)"></path><path d="M198 444 a6 6 0 1 0 12 0 a6 6 0 1 0 -12 0zM198 372 a6 6 0 1 0 12 0 a6 6 0 1 0 -12 0z" fill="rgba(46, 30, 57, 0.53)"></path><path d="M732 372L756 396L756 420" stroke-width="4" stroke="rgba(46, 30, 57, 0.53)"></path><path d="M726 372 a6 6 0 1 0 12 0 a6 6 0 1 0 -12 0zM750 420 a6 6 0 1 0 12 0 a6 6 0 1 0 -12 0z" fill="rgba(46, 30, 57, 0.53)"></path><path d="M84 852L84 804" stroke-width="4" stroke="rgba(46, 30, 57, 0.53)"></path><path d="M78 852 a6 6 0 1 0 12 0 a6 6 0 1 0 -12 0zM78 804 a6 6 0 1 0 12 0 a6 6 0 1 0 -12 0z" fill="rgba(46, 30, 57, 0.53)"></path><path d="M612 1140L540 1140L516 1116L516 1068" stroke-width="4" stroke="rgba(46, 30, 57, 0.53)"></path><path d="M606 1140 a6 6 0 1 0 12 0 a6 6 0 1 0 -12 0zM510 1068 a6 6 0 1 0 12 0 a6 6 0 1 0 -12 0z" fill="rgba(46, 30, 57, 0.53)"></path><path d="M372 444L396 444L444 492L444 540" stroke-width="4" stroke="rgba(46, 30, 57, 0.53)"></path><path d="M366 444 a6 6 0 1 0 12 0 a6 6 0 1 0 -12 0zM438 540 a6 6 0 1 0 12 0 a6 6 0 1 0 -12 0z" fill="rgba(46, 30, 57, 0.53)"></path><path d="M60 540L156 636" stroke-width="4" stroke="rgba(46, 30, 57, 0.53)"></path><path d="M54 540 a6 6 0 1 0 12 0 a6 6 0 1 0 -12 0zM150 636 a6 6 0 1 0 12 0 a6 6 0 1 0 -12 0z" fill="rgba(46, 30, 57, 0.53)"></path><path d="M12 660L12 708" stroke-width="4" stroke="rgba(46, 30, 57, 0.53)"></path><path d="M6 660 a6 6 0 1 0 12 0 a6 6 0 1 0 -12 0zM6 708 a6 6 0 1 0 12 0 a6 6 0 1 0 -12 0z" fill="rgba(46, 30, 57, 0.53)"></path><path d="M300 420L324 444L324 588" stroke-width="4" stroke="rgba(46, 30, 57, 0.53)"></path><path d="M294 420 a6 6 0 1 0 12 0 a6 6 0 1 0 -12 0zM318 588 a6 6 0 1 0 12 0 a6 6 0 1 0 -12 0z" fill="rgba(46, 30, 57, 0.53)"></path><path d="M588 492L588 564" stroke-width="4" stroke="rgba(46, 30, 57, 0.53)"></path><path d="M582 492 a6 6 0 1 0 12 0 a6 6 0 1 0 -12 0zM582 564 a6 6 0 1 0 12 0 a6 6 0 1 0 -12 0z" fill="rgba(46, 30, 57, 0.53)"></path><path d="M708 684L780 684" stroke-width="4" stroke="rgba(46, 30, 57, 0.53)"></path><path d="M702 684 a6 6 0 1 0 12 0 a6 6 0 1 0 -12 0zM774 684 a6 6 0 1 0 12 0 a6 6 0 1 0 -12 0z" fill="rgba(46, 30, 57, 0.53)"></path><path d="M348 1188L372 1188L396 1164" stroke-width="4" stroke="rgba(46, 30, 57, 0.53)"></path><path d="M342 1188 a6 6 0 1 0 12 0 a6 6 0 1 0 -12 0zM390 1164 a6 6 0 1 0 12 0 a6 6 0 1 0 -12 0z" fill="rgba(46, 30, 57, 0.53)"></path><path d="M564 1476L612 1428" stroke-width="4" stroke="rgba(46, 30, 57, 0.53)"></path><path d="M558 1476 a6 6 0 1 0 12 0 a6 6 0 1 0 -12 0zM606 1428 a6 6 0 1 0 12 0 a6 6 0 1 0 -12 0z" fill="rgba(46, 30, 57, 0.53)"></path><path d="M84 1308L84 1332L60 1356L36 1356" stroke-width="4" stroke="rgba(46, 30, 57, 0.53)"></path><path d="M78 1308 a6 6 0 1 0 12 0 a6 6 0 1 0 -12 0zM30 1356 a6 6 0 1 0 12 0 a6 6 0 1 0 -12 0z" fill="rgba(46, 30, 57, 0.53)"></path><path d="M228 804L108 804" stroke-width="4" stroke="rgba(46, 30, 57, 0.53)"></path><path d="M222 804 a6 6 0 1 0 12 0 a6 6 0 1 0 -12 0zM102 804 a6 6 0 1 0 12 0 a6 6 0 1 0 -12 0z" fill="rgba(46, 30, 57, 0.53)"></path><path d="M60 636L60 588L12 540L12 492" stroke-width="4" stroke="rgba(46, 30, 57, 0.53)"></path><path d="M54 636 a6 6 0 1 0 12 0 a6 6 0 1 0 -12 0zM6 492 a6 6 0 1 0 12 0 a6 6 0 1 0 -12 0z" fill="rgba(46, 30, 57, 0.53)"></path><path d="M468 876L444 852L444 828" stroke-width="4" stroke="rgba(46, 30, 57, 0.53)"></path><path d="M462 876 a6 6 0 1 0 12 0 a6 6 0 1 0 -12 0zM438 828 a6 6 0 1 0 12 0 a6 6 0 1 0 -12 0z" fill="rgba(46, 30, 57, 0.53)"></path><path d="M108 1044L156 996" stroke-width="4" stroke="rgba(46, 30, 57, 0.53)"></path><path d="M102 1044 a6 6 0 1 0 12 0 a6 6 0 1 0 -12 0zM150 996 a6 6 0 1 0 12 0 a6 6 0 1 0 -12 0z" fill="rgba(46, 30, 57, 0.53)"></path><path d="M348 852L348 780" stroke-width="4" stroke="rgba(46, 30, 57, 0.53)"></path><path d="M342 852 a6 6 0 1 0 12 0 a6 6 0 1 0 -12 0zM342 780 a6 6 0 1 0 12 0 a6 6 0 1 0 -12 0z" fill="rgba(46, 30, 57, 0.53)"></path><path d="M84 228L12 228" stroke-width="4" stroke="rgba(46, 30, 57, 0.53)"></path><path d="M78 228 a6 6 0 1 0 12 0 a6 6 0 1 0 -12 0zM6 228 a6 6 0 1 0 12 0 a6 6 0 1 0 -12 0z" fill="rgba(46, 30, 57, 0.53)"></path><path d="M708 708L756 708" stroke-width="4" stroke="rgba(46, 30, 57, 0.53)"></path><path d="M702 708 a6 6 0 1 0 12 0 a6 6 0 1 0 -12 0zM750 708 a6 6 0 1 0 12 0 a6 6 0 1 0 -12 0z" fill="rgba(46, 30, 57, 0.53)"></path><path d="M564 1428L540 1404L468 1404" stroke-width="4" stroke="rgba(46, 30, 57, 0.53)"></path><path d="M558 1428 a6 6 0 1 0 12 0 a6 6 0 1 0 -12 0zM462 1404 a6 6 0 1 0 12 0 a6 6 0 1 0 -12 0z" fill="rgba(46, 30, 57, 0.53)"></path><path d="M252 1452L276 1428L300 1428L324 1452" stroke-width="4" stroke="rgba(46, 30, 57, 0.53)"></path><path d="M246 1452 a6 6 0 1 0 12 0 a6 6 0 1 0 -12 0zM318 1452 a6 6 0 1 0 12 0 a6 6 0 1 0 -12 0z" fill="rgba(46, 30, 57, 0.53)"></path><path d="M516 1236L516 1260L540 1284L564 1284" stroke-width="4" stroke="rgba(46, 30, 57, 0.53)"></path><path d="M510 1236 a6 6 0 1 0 12 0 a6 6 0 1 0 -12 0zM558 1284 a6 6 0 1 0 12 0 a6 6 0 1 0 -12 0z" fill="rgba(46, 30, 57, 0.53)"></path><path d="M564 900L564 972" stroke-width="4" stroke="rgba(46, 30, 57, 0.53)"></path><path d="M558 900 a6 6 0 1 0 12 0 a6 6 0 1 0 -12 0zM558 972 a6 6 0 1 0 12 0 a6 6 0 1 0 -12 0z" fill="rgba(46, 30, 57, 0.53)"></path><path d="M492 1188L468 1212L468 1260" stroke-width="4" stroke="rgba(46, 30, 57, 0.53)"></path><path d="M486 1188 a6 6 0 1 0 12 0 a6 6 0 1 0 -12 0zM462 1260 a6 6 0 1 0 12 0 a6 6 0 1 0 -12 0z" fill="rgba(46, 30, 57, 0.53)"></path><path d="M36 444L36 468L108 540L108 564" stroke-width="4" stroke="rgba(46, 30, 57, 0.53)"></path><path d="M30 444 a6 6 0 1 0 12 0 a6 6 0 1 0 -12 0zM102 564 a6 6 0 1 0 12 0 a6 6 0 1 0 -12 0z" fill="rgba(46, 30, 57, 0.53)"></path><path d="M108 468L84 444L60 444" stroke-width="4" stroke="rgba(46, 30, 57, 0.53)"></path><path d="M102 468 a6 6 0 1 0 12 0 a6 6 0 1 0 -12 0zM54 444 a6 6 0 1 0 12 0 a6 6 0 1 0 -12 0z" fill="rgba(46, 30, 57, 0.53)"></path><path d="M180 420L180 444L156 468" stroke-width="4" stroke="rgba(46, 30, 57, 0.53)"></path><path d="M174 420 a6 6 0 1 0 12 0 a6 6 0 1 0 -12 0zM150 468 a6 6 0 1 0 12 0 a6 6 0 1 0 -12 0z" fill="rgba(46, 30, 57, 0.53)"></path><path d="M516 1428L492 1428L468 1452" stroke-width="4" stroke="rgba(46, 30, 57, 0.53)"></path><path d="M510 1428 a6 6 0 1 0 12 0 a6 6 0 1 0 -12 0zM462 1452 a6 6 0 1 0 12 0 a6 6 0 1 0 -12 0z" fill="rgba(46, 30, 57, 0.53)"></path><path d="M324 156L276 156" stroke-width="4" stroke="rgba(46, 30, 57, 0.53)"></path><path d="M318 156 a6 6 0 1 0 12 0 a6 6 0 1 0 -12 0zM270 156 a6 6 0 1 0 12 0 a6 6 0 1 0 -12 0z" fill="rgba(46, 30, 57, 0.53)"></path><path d="M60 108L36 84L36 60" stroke-width="4" stroke="rgba(46, 30, 57, 0.53)"></path><path d="M54 108 a6 6 0 1 0 12 0 a6 6 0 1 0 -12 0zM30 60 a6 6 0 1 0 12 0 a6 6 0 1 0 -12 0z" fill="rgba(46, 30, 57, 0.53)"></path><path d="M228 612L276 564L276 540" stroke-width="4" stroke="rgba(46, 30, 57, 0.53)"></path><path d="M222 612 a6 6 0 1 0 12 0 a6 6 0 1 0 -12 0zM270 540 a6 6 0 1 0 12 0 a6 6 0 1 0 -12 0z" fill="rgba(46, 30, 57, 0.53)"></path><path d="M204 828L108 828" stroke-width="4" stroke="rgba(46, 30, 57, 0.53)"></path><path d="M198 828 a6 6 0 1 0 12 0 a6 6 0 1 0 -12 0zM102 828 a6 6 0 1 0 12 0 a6 6 0 1 0 -12 0z" fill="rgba(46, 30, 57, 0.53)"></path><path d="M180 492L228 444L252 444" stroke-width="4" stroke="rgba(46, 30, 57, 0.53)"></path><path d="M174 492 a6 6 0 1 0 12 0 a6 6 0 1 0 -12 0zM246 444 a6 6 0 1 0 12 0 a6 6 0 1 0 -12 0z" fill="rgba(46, 30, 57, 0.53)"></path><path d="M564 348L588 324L588 252" stroke-width="4" stroke="rgba(46, 30, 57, 0.53)"></path><path d="M558 348 a6 6 0 1 0 12 0 a6 6 0 1 0 -12 0zM582 252 a6 6 0 1 0 12 0 a6 6 0 1 0 -12 0z" fill="rgba(46, 30, 57, 0.53)"></path><path d="M108 660L108 612" stroke-width="4" stroke="rgba(46, 30, 57, 0.53)"></path><path d="M102 660 a6 6 0 1 0 12 0 a6 6 0 1 0 -12 0zM102 612 a6 6 0 1 0 12 0 a6 6 0 1 0 -12 0z" fill="rgba(46, 30, 57, 0.53)"></path><path d="M84 1188L84 1140" stroke-width="4" stroke="rgba(46, 30, 57, 0.53)"></path><path d="M78 1188 a6 6 0 1 0 12 0 a6 6 0 1 0 -12 0zM78 1140 a6 6 0 1 0 12 0 a6 6 0 1 0 -12 0z" fill="rgba(46, 30, 57, 0.53)"></path><path d="M156 132L252 132" stroke-width="4" stroke="rgba(46, 30, 57, 0.53)"></path><path d="M150 132 a6 6 0 1 0 12 0 a6 6 0 1 0 -12 0zM246 132 a6 6 0 1 0 12 0 a6 6 0 1 0 -12 0z" fill="rgba(46, 30, 57, 0.53)"></path><path d="M636 780L660 780L684 804L684 828" stroke-width="4" stroke="rgba(46, 30, 57, 0.53)"></path><path d="M630 780 a6 6 0 1 0 12 0 a6 6 0 1 0 -12 0zM678 828 a6 6 0 1 0 12 0 a6 6 0 1 0 -12 0z" fill="rgba(46, 30, 57, 0.53)"></path><path d="M492 948L468 972L444 972" stroke-width="4" stroke="rgba(46, 30, 57, 0.53)"></path><path d="M486 948 a6 6 0 1 0 12 0 a6 6 0 1 0 -12 0zM438 972 a6 6 0 1 0 12 0 a6 6 0 1 0 -12 0z" fill="rgba(46, 30, 57, 0.53)"></path><path d="M108 900L132 900L180 852" stroke-width="4" stroke="rgba(46, 30, 57, 0.53)"></path><path d="M102 900 a6 6 0 1 0 12 0 a6 6 0 1 0 -12 0zM174 852 a6 6 0 1 0 12 0 a6 6 0 1 0 -12 0z" fill="rgba(46, 30, 57, 0.53)"></path><path d="M612 444L612 492" stroke-width="4" stroke="rgba(46, 30, 57, 0.53)"></path><path d="M606 444 a6 6 0 1 0 12 0 a6 6 0 1 0 -12 0zM606 492 a6 6 0 1 0 12 0 a6 6 0 1 0 -12 0z" fill="rgba(46, 30, 57, 0.53)"></path><path d="M588 780L588 708" stroke-width="4" stroke="rgba(46, 30, 57, 0.53)"></path><path d="M582 780 a6 6 0 1 0 12 0 a6 6 0 1 0 -12 0zM582 708 a6 6 0 1 0 12 0 a6 6 0 1 0 -12 0z" fill="rgba(46, 30, 57, 0.53)"></path><path d="M300 852L300 780" stroke-width="4" stroke="rgba(46, 30, 57, 0.53)"></path><path d="M294 852 a6 6 0 1 0 12 0 a6 6 0 1 0 -12 0zM294 780 a6 6 0 1 0 12 0 a6 6 0 1 0 -12 0z" fill="rgba(46, 30, 57, 0.53)"></path><path d="M540 36L564 36L588 60" stroke-width="4" stroke="rgba(46, 30, 57, 0.53)"></path><path d="M534 36 a6 6 0 1 0 12 0 a6 6 0 1 0 -12 0zM582 60 a6 6 0 1 0 12 0 a6 6 0 1 0 -12 0z" fill="rgba(46, 30, 57, 0.53)"></path><path d="M564 1068L612 1116L636 1116" stroke-width="4" stroke="rgba(46, 30, 57, 0.53)"></path><path d="M558 1068 a6 6 0 1 0 12 0 a6 6 0 1 0 -12 0zM630 1116 a6 6 0 1 0 12 0 a6 6 0 1 0 -12 0z" fill="rgba(46, 30, 57, 0.53)"></path><path d="M780 636L804 612L804 564" stroke-width="4" stroke="rgba(46, 30, 57, 0.53)"></path><path d="M774 636 a6 6 0 1 0 12 0 a6 6 0 1 0 -12 0zM798 564 a6 6 0 1 0 12 0 a6 6 0 1 0 -12 0z" fill="rgba(46, 30, 57, 0.53)"></path><path d="M444 924L420 924L396 900L396 852" stroke-width="4" stroke="rgba(46, 30, 57, 0.53)"></path><path d="M438 924 a6 6 0 1 0 12 0 a6 6 0 1 0 -12 0zM390 852 a6 6 0 1 0 12 0 a6 6 0 1 0 -12 0z" fill="rgba(46, 30, 57, 0.53)"></path><path d="M588 1236L612 1212L684 1212" stroke-width="4" stroke="rgba(46, 30, 57, 0.53)"></path><path d="M582 1236 a6 6 0 1 0 12 0 a6 6 0 1 0 -12 0zM678 1212 a6 6 0 1 0 12 0 a6 6 0 1 0 -12 0z" fill="rgba(46, 30, 57, 0.53)"></path><path d="M684 324L684 444" stroke-width="4" stroke="rgba(46, 30, 57, 0.53)"></path><path d="M678 324 a6 6 0 1 0 12 0 a6 6 0 1 0 -12 0zM678 444 a6 6 0 1 0 12 0 a6 6 0 1 0 -12 0z" fill="rgba(46, 30, 57, 0.53)"></path><path d="M540 1236L564 1212L588 1212" stroke-width="4" stroke="rgba(46, 30, 57, 0.53)"></path><path d="M534 1236 a6 6 0 1 0 12 0 a6 6 0 1 0 -12 0zM582 1212 a6 6 0 1 0 12 0 a6 6 0 1 0 -12 0z" fill="rgba(46, 30, 57, 0.53)"></path><path d="M516 1332L492 1308L468 1308" stroke-width="4" stroke="rgba(46, 30, 57, 0.53)"></path><path d="M510 1332 a6 6 0 1 0 12 0 a6 6 0 1 0 -12 0zM462 1308 a6 6 0 1 0 12 0 a6 6 0 1 0 -12 0z" fill="rgba(46, 30, 57, 0.53)"></path><path d="M12 852L12 900" stroke-width="4" stroke="rgba(46, 30, 57, 0.53)"></path><path d="M6 852 a6 6 0 1 0 12 0 a6 6 0 1 0 -12 0zM6 900 a6 6 0 1 0 12 0 a6 6 0 1 0 -12 0z" fill="rgba(46, 30, 57, 0.53)"></path><path d="M396 612L396 564" stroke-width="4" stroke="rgba(46, 30, 57, 0.53)"></path><path d="M390 612 a6 6 0 1 0 12 0 a6 6 0 1 0 -12 0zM390 564 a6 6 0 1 0 12 0 a6 6 0 1 0 -12 0z" fill="rgba(46, 30, 57, 0.53)"></path><path d="M132 708L180 708" stroke-width="4" stroke="rgba(46, 30, 57, 0.53)"></path><path d="M126 708 a6 6 0 1 0 12 0 a6 6 0 1 0 -12 0zM174 708 a6 6 0 1 0 12 0 a6 6 0 1 0 -12 0z" fill="rgba(46, 30, 57, 0.53)"></path><path d="M348 228L372 228L396 204L420 204" stroke-width="4" stroke="rgba(46, 30, 57, 0.53)"></path><path d="M342 228 a6 6 0 1 0 12 0 a6 6 0 1 0 -12 0zM414 204 a6 6 0 1 0 12 0 a6 6 0 1 0 -12 0z" fill="rgba(46, 30, 57, 0.53)"></path><path d="M204 1428L252 1428" stroke-width="4" stroke="rgba(46, 30, 57, 0.53)"></path><path d="M198 1428 a6 6 0 1 0 12 0 a6 6 0 1 0 -12 0zM246 1428 a6 6 0 1 0 12 0 a6 6 0 1 0 -12 0z" fill="rgba(46, 30, 57, 0.53)"></path><path d="M12 372L60 324" stroke-width="4" stroke="rgba(46, 30, 57, 0.53)"></path><path d="M6 372 a6 6 0 1 0 12 0 a6 6 0 1 0 -12 0zM54 324 a6 6 0 1 0 12 0 a6 6 0 1 0 -12 0z" fill="rgba(46, 30, 57, 0.53)"></path><path d="M492 1452L564 1452" stroke-width="4" stroke="rgba(46, 30, 57, 0.53)"></path><path d="M486 1452 a6 6 0 1 0 12 0 a6 6 0 1 0 -12 0zM558 1452 a6 6 0 1 0 12 0 a6 6 0 1 0 -12 0z" fill="rgba(46, 30, 57, 0.53)"></path><path d="M612 1452L636 1476L636 1500" stroke-width="4" stroke="rgba(46, 30, 57, 0.53)"></path><path d="M606 1452 a6 6 0 1 0 12 0 a6 6 0 1 0 -12 0zM630 1500 a6 6 0 1 0 12 0 a6 6 0 1 0 -12 0z" fill="rgba(46, 30, 57, 0.53)"></path><path d="M732 1308L780 1308" stroke-width="4" stroke="rgba(46, 30, 57, 0.53)"></path><path d="M726 1308 a6 6 0 1 0 12 0 a6 6 0 1 0 -12 0zM774 1308 a6 6 0 1 0 12 0 a6 6 0 1 0 -12 0z" fill="rgba(46, 30, 57, 0.53)"></path><path d="M588 972L588 924L636 876" stroke-width="4" stroke="rgba(46, 30, 57, 0.53)"></path><path d="M582 972 a6 6 0 1 0 12 0 a6 6 0 1 0 -12 0zM630 876 a6 6 0 1 0 12 0 a6 6 0 1 0 -12 0z" fill="rgba(46, 30, 57, 0.53)"></path><path d="M492 396L468 396L444 420" stroke-width="4" stroke="rgba(46, 30, 57, 0.53)"></path><path d="M486 396 a6 6 0 1 0 12 0 a6 6 0 1 0 -12 0zM438 420 a6 6 0 1 0 12 0 a6 6 0 1 0 -12 0z" fill="rgba(46, 30, 57, 0.53)"></path><path d="M420 252L420 300" stroke-width="4" stroke="rgba(46, 30, 57, 0.53)"></path><path d="M414 252 a6 6 0 1 0 12 0 a6 6 0 1 0 -12 0zM414 300 a6 6 0 1 0 12 0 a6 6 0 1 0 -12 0z" fill="rgba(46, 30, 57, 0.53)"></path><path d="M396 1284L324 1284" stroke-width="4" stroke="rgba(46, 30, 57, 0.53)"></path><path d="M390 1284 a6 6 0 1 0 12 0 a6 6 0 1 0 -12 0zM318 1284 a6 6 0 1 0 12 0 a6 6 0 1 0 -12 0z" fill="rgba(46, 30, 57, 0.53)"></path></g></g><defs><mask id="SvgjsMask1080"><rect width="800" height="1500" fill="#ffffff"></rect></mask><mask id="SvgjsMask1081"><rect width="800" height="1500" fill="white"></rect><path d="M657 1164 a3 3 0 1 0 6 0 a3 3 0 1 0 -6 0zM801 708 a3 3 0 1 0 6 0 a3 3 0 1 0 -6 0z" fill="black"></path><path d="M369 804 a3 3 0 1 0 6 0 a3 3 0 1 0 -6 0zM681 1116 a3 3 0 1 0 6 0 a3 3 0 1 0 -6 0z" fill="black"></path><path d="M585 900 a3 3 0 1 0 6 0 a3 3 0 1 0 -6 0zM129 660 a3 3 0 1 0 6 0 a3 3 0 1 0 -6 0z" fill="black"></path><path d="M465 108 a3 3 0 1 0 6 0 a3 3 0 1 0 -6 0zM9 12 a3 3 0 1 0 6 0 a3 3 0 1 0 -6 0z" fill="black"></path><path d="M465 708 a3 3 0 1 0 6 0 a3 3 0 1 0 -6 0zM801 660 a3 3 0 1 0 6 0 a3 3 0 1 0 -6 0z" fill="black"></path><path d="M249 780 a3 3 0 1 0 6 0 a3 3 0 1 0 -6 0zM9 1164 a3 3 0 1 0 6 0 a3 3 0 1 0 -6 0z" fill="black"></path><path d="M177 612 a3 3 0 1 0 6 0 a3 3 0 1 0 -6 0zM9 420 a3 3 0 1 0 6 0 a3 3 0 1 0 -6 0z" fill="black"></path><path d="M441 780 a3 3 0 1 0 6 0 a3 3 0 1 0 -6 0zM9 732 a3 3 0 1 0 6 0 a3 3 0 1 0 -6 0z" fill="black"></path><path d="M777 900 a3 3 0 1 0 6 0 a3 3 0 1 0 -6 0zM657 1356 a3 3 0 1 0 6 0 a3 3 0 1 0 -6 0z" fill="black"></path><path d="M153 276 a3 3 0 1 0 6 0 a3 3 0 1 0 -6 0zM129 444 a3 3 0 1 0 6 0 a3 3 0 1 0 -6 0z" fill="black"></path><path d="M369 1236 a3 3 0 1 0 6 0 a3 3 0 1 0 -6 0zM9 1236 a3 3 0 1 0 6 0 a3 3 0 1 0 -6 0z" fill="black"></path><path d="M9 1380 a3 3 0 1 0 6 0 a3 3 0 1 0 -6 0zM465 1500 a3 3 0 1 0 6 0 a3 3 0 1 0 -6 0z" fill="black"></path><path d="M585 1476 a3 3 0 1 0 6 0 a3 3 0 1 0 -6 0zM129 1476 a3 3 0 1 0 6 0 a3 3 0 1 0 -6 0z" fill="black"></path><path d="M441 1356 a3 3 0 1 0 6 0 a3 3 0 1 0 -6 0zM585 1044 a3 3 0 1 0 6 0 a3 3 0 1 0 -6 0z" fill="black"></path><path d="M369 180 a3 3 0 1 0 6 0 a3 3 0 1 0 -6 0zM9 180 a3 3 0 1 0 6 0 a3 3 0 1 0 -6 0z" fill="black"></path><path d="M81 396 a3 3 0 1 0 6 0 a3 3 0 1 0 -6 0zM129 420 a3 3 0 1 0 6 0 a3 3 0 1 0 -6 0z" fill="black"></path><path d="M585 684 a3 3 0 1 0 6 0 a3 3 0 1 0 -6 0zM249 420 a3 3 0 1 0 6 0 a3 3 0 1 0 -6 0z" fill="black"></path><path d="M513 996 a3 3 0 1 0 6 0 a3 3 0 1 0 -6 0zM273 708 a3 3 0 1 0 6 0 a3 3 0 1 0 -6 0z" fill="black"></path><path d="M345 420 a3 3 0 1 0 6 0 a3 3 0 1 0 -6 0zM441 708 a3 3 0 1 0 6 0 a3 3 0 1 0 -6 0z" fill="black"></path><path d="M393 12 a3 3 0 1 0 6 0 a3 3 0 1 0 -6 0zM633 468 a3 3 0 1 0 6 0 a3 3 0 1 0 -6 0z" fill="black"></path><path d="M249 516 a3 3 0 1 0 6 0 a3 3 0 1 0 -6 0zM201 636 a3 3 0 1 0 6 0 a3 3 0 1 0 -6 0z" fill="black"></path><path d="M33 540 a3 3 0 1 0 6 0 a3 3 0 1 0 -6 0zM81 708 a3 3 0 1 0 6 0 a3 3 0 1 0 -6 0z" fill="black"></path><path d="M609 420 a3 3 0 1 0 6 0 a3 3 0 1 0 -6 0zM369 516 a3 3 0 1 0 6 0 a3 3 0 1 0 -6 0z" fill="black"></path><path d="M513 444 a3 3 0 1 0 6 0 a3 3 0 1 0 -6 0zM441 660 a3 3 0 1 0 6 0 a3 3 0 1 0 -6 0z" fill="black"></path><path d="M273 300 a3 3 0 1 0 6 0 a3 3 0 1 0 -6 0zM561 204 a3 3 0 1 0 6 0 a3 3 0 1 0 -6 0z" fill="black"></path><path d="M777 588 a3 3 0 1 0 6 0 a3 3 0 1 0 -6 0zM513 636 a3 3 0 1 0 6 0 a3 3 0 1 0 -6 0z" fill="black"></path><path d="M225 828 a3 3 0 1 0 6 0 a3 3 0 1 0 -6 0zM9 1140 a3 3 0 1 0 6 0 a3 3 0 1 0 -6 0z" fill="black"></path><path d="M249 1380 a3 3 0 1 0 6 0 a3 3 0 1 0 -6 0zM705 1380 a3 3 0 1 0 6 0 a3 3 0 1 0 -6 0z" fill="black"></path><path d="M345 876 a3 3 0 1 0 6 0 a3 3 0 1 0 -6 0zM297 732 a3 3 0 1 0 6 0 a3 3 0 1 0 -6 0z" fill="black"></path><path d="M633 804 a3 3 0 1 0 6 0 a3 3 0 1 0 -6 0zM681 1092 a3 3 0 1 0 6 0 a3 3 0 1 0 -6 0z" fill="black"></path><path d="M681 1476 a3 3 0 1 0 6 0 a3 3 0 1 0 -6 0zM681 1404 a3 3 0 1 0 6 0 a3 3 0 1 0 -6 0z" fill="black"></path><path d="M681 108 a3 3 0 1 0 6 0 a3 3 0 1 0 -6 0zM801 36 a3 3 0 1 0 6 0 a3 3 0 1 0 -6 0z" fill="black"></path><path d="M561 828 a3 3 0 1 0 6 0 a3 3 0 1 0 -6 0zM513 708 a3 3 0 1 0 6 0 a3 3 0 1 0 -6 0z" fill="black"></path><path d="M417 156 a3 3 0 1 0 6 0 a3 3 0 1 0 -6 0zM417 420 a3 3 0 1 0 6 0 a3 3 0 1 0 -6 0z" fill="black"></path><path d="M57 516 a3 3 0 1 0 6 0 a3 3 0 1 0 -6 0zM9 444 a3 3 0 1 0 6 0 a3 3 0 1 0 -6 0z" fill="black"></path><path d="M441 1020 a3 3 0 1 0 6 0 a3 3 0 1 0 -6 0zM273 924 a3 3 0 1 0 6 0 a3 3 0 1 0 -6 0z" fill="black"></path><path d="M513 492 a3 3 0 1 0 6 0 a3 3 0 1 0 -6 0zM609 348 a3 3 0 1 0 6 0 a3 3 0 1 0 -6 0z" fill="black"></path><path d="M465 36 a3 3 0 1 0 6 0 a3 3 0 1 0 -6 0zM801 492 a3 3 0 1 0 6 0 a3 3 0 1 0 -6 0z" fill="black"></path><path d="M177 372 a3 3 0 1 0 6 0 a3 3 0 1 0 -6 0zM273 204 a3 3 0 1 0 6 0 a3 3 0 1 0 -6 0z" fill="black"></path><path d="M129 1452 a3 3 0 1 0 6 0 a3 3 0 1 0 -6 0zM417 1260 a3 3 0 1 0 6 0 a3 3 0 1 0 -6 0z" fill="black"></path><path d="M417 948 a3 3 0 1 0 6 0 a3 3 0 1 0 -6 0zM297 900 a3 3 0 1 0 6 0 a3 3 0 1 0 -6 0z" fill="black"></path><path d="M753 852 a3 3 0 1 0 6 0 a3 3 0 1 0 -6 0zM609 684 a3 3 0 1 0 6 0 a3 3 0 1 0 -6 0z" fill="black"></path><path d="M729 1380 a3 3 0 1 0 6 0 a3 3 0 1 0 -6 0zM801 924 a3 3 0 1 0 6 0 a3 3 0 1 0 -6 0z" fill="black"></path><path d="M345 300 a3 3 0 1 0 6 0 a3 3 0 1 0 -6 0zM297 60 a3 3 0 1 0 6 0 a3 3 0 1 0 -6 0z" fill="black"></path><path d="M801 540 a3 3 0 1 0 6 0 a3 3 0 1 0 -6 0zM513 612 a3 3 0 1 0 6 0 a3 3 0 1 0 -6 0z" fill="black"></path><path d="M633 1356 a3 3 0 1 0 6 0 a3 3 0 1 0 -6 0zM753 900 a3 3 0 1 0 6 0 a3 3 0 1 0 -6 0z" fill="black"></path><path d="M561 1308 a3 3 0 1 0 6 0 a3 3 0 1 0 -6 0zM561 1356 a3 3 0 1 0 6 0 a3 3 0 1 0 -6 0z" fill="black"></path><path d="M729 348 a3 3 0 1 0 6 0 a3 3 0 1 0 -6 0zM513 588 a3 3 0 1 0 6 0 a3 3 0 1 0 -6 0z" fill="black"></path><path d="M345 708 a3 3 0 1 0 6 0 a3 3 0 1 0 -6 0zM417 780 a3 3 0 1 0 6 0 a3 3 0 1 0 -6 0z" fill="black"></path><path d="M561 1404 a3 3 0 1 0 6 0 a3 3 0 1 0 -6 0zM657 1500 a3 3 0 1 0 6 0 a3 3 0 1 0 -6 0z" fill="black"></path><path d="M201 324 a3 3 0 1 0 6 0 a3 3 0 1 0 -6 0zM177 204 a3 3 0 1 0 6 0 a3 3 0 1 0 -6 0z" fill="black"></path><path d="M681 972 a3 3 0 1 0 6 0 a3 3 0 1 0 -6 0zM657 1044 a3 3 0 1 0 6 0 a3 3 0 1 0 -6 0z" fill="black"></path><path d="M345 36 a3 3 0 1 0 6 0 a3 3 0 1 0 -6 0zM489 132 a3 3 0 1 0 6 0 a3 3 0 1 0 -6 0z" fill="black"></path><path d="M585 804 a3 3 0 1 0 6 0 a3 3 0 1 0 -6 0zM633 756 a3 3 0 1 0 6 0 a3 3 0 1 0 -6 0z" fill="black"></path><path d="M129 1212 a3 3 0 1 0 6 0 a3 3 0 1 0 -6 0zM585 1116 a3 3 0 1 0 6 0 a3 3 0 1 0 -6 0z" fill="black"></path><path d="M9 132 a3 3 0 1 0 6 0 a3 3 0 1 0 -6 0zM393 108 a3 3 0 1 0 6 0 a3 3 0 1 0 -6 0z" fill="black"></path><path d="M777 1452 a3 3 0 1 0 6 0 a3 3 0 1 0 -6 0zM705 1452 a3 3 0 1 0 6 0 a3 3 0 1 0 -6 0z" fill="black"></path><path d="M537 372 a3 3 0 1 0 6 0 a3 3 0 1 0 -6 0zM441 444 a3 3 0 1 0 6 0 a3 3 0 1 0 -6 0z" fill="black"></path><path d="M225 1452 a3 3 0 1 0 6 0 a3 3 0 1 0 -6 0zM153 1452 a3 3 0 1 0 6 0 a3 3 0 1 0 -6 0z" fill="black"></path><path d="M321 1332 a3 3 0 1 0 6 0 a3 3 0 1 0 -6 0zM249 1356 a3 3 0 1 0 6 0 a3 3 0 1 0 -6 0z" fill="black"></path><path d="M177 108 a3 3 0 1 0 6 0 a3 3 0 1 0 -6 0zM369 156 a3 3 0 1 0 6 0 a3 3 0 1 0 -6 0z" fill="black"></path><path d="M777 156 a3 3 0 1 0 6 0 a3 3 0 1 0 -6 0zM801 60 a3 3 0 1 0 6 0 a3 3 0 1 0 -6 0z" fill="black"></path><path d="M81 252 a3 3 0 1 0 6 0 a3 3 0 1 0 -6 0zM9 252 a3 3 0 1 0 6 0 a3 3 0 1 0 -6 0z" fill="black"></path><path d="M393 1212 a3 3 0 1 0 6 0 a3 3 0 1 0 -6 0zM249 1212 a3 3 0 1 0 6 0 a3 3 0 1 0 -6 0z" fill="black"></path><path d="M585 36 a3 3 0 1 0 6 0 a3 3 0 1 0 -6 0zM801 372 a3 3 0 1 0 6 0 a3 3 0 1 0 -6 0z" fill="black"></path><path d="M105 1500 a3 3 0 1 0 6 0 a3 3 0 1 0 -6 0zM9 1404 a3 3 0 1 0 6 0 a3 3 0 1 0 -6 0z" fill="black"></path><path d="M561 84 a3 3 0 1 0 6 0 a3 3 0 1 0 -6 0zM777 348 a3 3 0 1 0 6 0 a3 3 0 1 0 -6 0z" fill="black"></path><path d="M633 132 a3 3 0 1 0 6 0 a3 3 0 1 0 -6 0zM777 300 a3 3 0 1 0 6 0 a3 3 0 1 0 -6 0z" fill="black"></path><path d="M537 1188 a3 3 0 1 0 6 0 a3 3 0 1 0 -6 0zM729 1188 a3 3 0 1 0 6 0 a3 3 0 1 0 -6 0z" fill="black"></path><path d="M201 540 a3 3 0 1 0 6 0 a3 3 0 1 0 -6 0zM273 492 a3 3 0 1 0 6 0 a3 3 0 1 0 -6 0z" fill="black"></path><path d="M9 804 a3 3 0 1 0 6 0 a3 3 0 1 0 -6 0zM249 756 a3 3 0 1 0 6 0 a3 3 0 1 0 -6 0z" fill="black"></path><path d="M369 1140 a3 3 0 1 0 6 0 a3 3 0 1 0 -6 0zM273 1212 a3 3 0 1 0 6 0 a3 3 0 1 0 -6 0z" fill="black"></path><path d="M729 516 a3 3 0 1 0 6 0 a3 3 0 1 0 -6 0zM657 276 a3 3 0 1 0 6 0 a3 3 0 1 0 -6 0z" fill="black"></path><path d="M801 1452 a3 3 0 1 0 6 0 a3 3 0 1 0 -6 0zM801 1500 a3 3 0 1 0 6 0 a3 3 0 1 0 -6 0z" fill="black"></path><path d="M417 564 a3 3 0 1 0 6 0 a3 3 0 1 0 -6 0zM417 636 a3 3 0 1 0 6 0 a3 3 0 1 0 -6 0z" fill="black"></path><path d="M801 12 a3 3 0 1 0 6 0 a3 3 0 1 0 -6 0zM417 12 a3 3 0 1 0 6 0 a3 3 0 1 0 -6 0z" fill="black"></path><path d="M153 1332 a3 3 0 1 0 6 0 a3 3 0 1 0 -6 0zM9 1260 a3 3 0 1 0 6 0 a3 3 0 1 0 -6 0z" fill="black"></path><path d="M417 1356 a3 3 0 1 0 6 0 a3 3 0 1 0 -6 0zM321 1356 a3 3 0 1 0 6 0 a3 3 0 1 0 -6 0z" fill="black"></path><path d="M705 108 a3 3 0 1 0 6 0 a3 3 0 1 0 -6 0zM777 60 a3 3 0 1 0 6 0 a3 3 0 1 0 -6 0z" fill="black"></path><path d="M441 276 a3 3 0 1 0 6 0 a3 3 0 1 0 -6 0zM513 276 a3 3 0 1 0 6 0 a3 3 0 1 0 -6 0z" fill="black"></path><path d="M729 780 a3 3 0 1 0 6 0 a3 3 0 1 0 -6 0zM777 828 a3 3 0 1 0 6 0 a3 3 0 1 0 -6 0z" fill="black"></path><path d="M537 924 a3 3 0 1 0 6 0 a3 3 0 1 0 -6 0zM417 828 a3 3 0 1 0 6 0 a3 3 0 1 0 -6 0z" fill="black"></path><path d="M321 1404 a3 3 0 1 0 6 0 a3 3 0 1 0 -6 0zM177 1428 a3 3 0 1 0 6 0 a3 3 0 1 0 -6 0z" fill="black"></path><path d="M105 396 a3 3 0 1 0 6 0 a3 3 0 1 0 -6 0zM9 204 a3 3 0 1 0 6 0 a3 3 0 1 0 -6 0z" fill="black"></path><path d="M57 780 a3 3 0 1 0 6 0 a3 3 0 1 0 -6 0zM9 1020 a3 3 0 1 0 6 0 a3 3 0 1 0 -6 0z" fill="black"></path><path d="M177 1140 a3 3 0 1 0 6 0 a3 3 0 1 0 -6 0zM369 1044 a3 3 0 1 0 6 0 a3 3 0 1 0 -6 0z" fill="black"></path><path d="M465 588 a3 3 0 1 0 6 0 a3 3 0 1 0 -6 0zM465 660 a3 3 0 1 0 6 0 a3 3 0 1 0 -6 0z" fill="black"></path><path d="M81 108 a3 3 0 1 0 6 0 a3 3 0 1 0 -6 0zM9 156 a3 3 0 1 0 6 0 a3 3 0 1 0 -6 0z" fill="black"></path><path d="M57 1164 a3 3 0 1 0 6 0 a3 3 0 1 0 -6 0zM345 1044 a3 3 0 1 0 6 0 a3 3 0 1 0 -6 0z" fill="black"></path><path d="M633 564 a3 3 0 1 0 6 0 a3 3 0 1 0 -6 0zM657 468 a3 3 0 1 0 6 0 a3 3 0 1 0 -6 0z" fill="black"></path><path d="M153 972 a3 3 0 1 0 6 0 a3 3 0 1 0 -6 0zM33 1116 a3 3 0 1 0 6 0 a3 3 0 1 0 -6 0z" fill="black"></path><path d="M465 1092 a3 3 0 1 0 6 0 a3 3 0 1 0 -6 0zM369 1116 a3 3 0 1 0 6 0 a3 3 0 1 0 -6 0z" fill="black"></path><path d="M441 252 a3 3 0 1 0 6 0 a3 3 0 1 0 -6 0zM513 252 a3 3 0 1 0 6 0 a3 3 0 1 0 -6 0z" fill="black"></path><path d="M177 1380 a3 3 0 1 0 6 0 a3 3 0 1 0 -6 0zM297 1260 a3 3 0 1 0 6 0 a3 3 0 1 0 -6 0z" fill="black"></path><path d="M33 636 a3 3 0 1 0 6 0 a3 3 0 1 0 -6 0zM33 708 a3 3 0 1 0 6 0 a3 3 0 1 0 -6 0z" fill="black"></path><path d="M801 204 a3 3 0 1 0 6 0 a3 3 0 1 0 -6 0zM801 108 a3 3 0 1 0 6 0 a3 3 0 1 0 -6 0z" fill="black"></path><path d="M57 1212 a3 3 0 1 0 6 0 a3 3 0 1 0 -6 0zM9 1212 a3 3 0 1 0 6 0 a3 3 0 1 0 -6 0z" fill="black"></path><path d="M249 636 a3 3 0 1 0 6 0 a3 3 0 1 0 -6 0zM321 636 a3 3 0 1 0 6 0 a3 3 0 1 0 -6 0z" fill="black"></path><path d="M105 996 a3 3 0 1 0 6 0 a3 3 0 1 0 -6 0zM33 1092 a3 3 0 1 0 6 0 a3 3 0 1 0 -6 0z" fill="black"></path><path d="M753 540 a3 3 0 1 0 6 0 a3 3 0 1 0 -6 0zM657 540 a3 3 0 1 0 6 0 a3 3 0 1 0 -6 0z" fill="black"></path><path d="M129 972 a3 3 0 1 0 6 0 a3 3 0 1 0 -6 0zM225 852 a3 3 0 1 0 6 0 a3 3 0 1 0 -6 0z" fill="black"></path><path d="M129 852 a3 3 0 1 0 6 0 a3 3 0 1 0 -6 0zM81 948 a3 3 0 1 0 6 0 a3 3 0 1 0 -6 0z" fill="black"></path><path d="M129 1164 a3 3 0 1 0 6 0 a3 3 0 1 0 -6 0zM105 1116 a3 3 0 1 0 6 0 a3 3 0 1 0 -6 0z" fill="black"></path><path d="M705 780 a3 3 0 1 0 6 0 a3 3 0 1 0 -6 0zM801 684 a3 3 0 1 0 6 0 a3 3 0 1 0 -6 0z" fill="black"></path><path d="M801 1404 a3 3 0 1 0 6 0 a3 3 0 1 0 -6 0zM705 1428 a3 3 0 1 0 6 0 a3 3 0 1 0 -6 0z" fill="black"></path><path d="M225 420 a3 3 0 1 0 6 0 a3 3 0 1 0 -6 0zM249 324 a3 3 0 1 0 6 0 a3 3 0 1 0 -6 0z" fill="black"></path><path d="M489 1284 a3 3 0 1 0 6 0 a3 3 0 1 0 -6 0zM537 1356 a3 3 0 1 0 6 0 a3 3 0 1 0 -6 0z" fill="black"></path><path d="M585 1260 a3 3 0 1 0 6 0 a3 3 0 1 0 -6 0zM585 1356 a3 3 0 1 0 6 0 a3 3 0 1 0 -6 0z" fill="black"></path><path d="M633 900 a3 3 0 1 0 6 0 a3 3 0 1 0 -6 0zM609 804 a3 3 0 1 0 6 0 a3 3 0 1 0 -6 0z" fill="black"></path><path d="M81 84 a3 3 0 1 0 6 0 a3 3 0 1 0 -6 0zM345 156 a3 3 0 1 0 6 0 a3 3 0 1 0 -6 0z" fill="black"></path><path d="M393 228 a3 3 0 1 0 6 0 a3 3 0 1 0 -6 0zM489 300 a3 3 0 1 0 6 0 a3 3 0 1 0 -6 0z" fill="black"></path><path d="M465 1116 a3 3 0 1 0 6 0 a3 3 0 1 0 -6 0zM297 1212 a3 3 0 1 0 6 0 a3 3 0 1 0 -6 0z" fill="black"></path><path d="M729 1212 a3 3 0 1 0 6 0 a3 3 0 1 0 -6 0zM609 1356 a3 3 0 1 0 6 0 a3 3 0 1 0 -6 0z" fill="black"></path><path d="M753 1428 a3 3 0 1 0 6 0 a3 3 0 1 0 -6 0zM801 1428 a3 3 0 1 0 6 0 a3 3 0 1 0 -6 0z" fill="black"></path><path d="M153 1188 a3 3 0 1 0 6 0 a3 3 0 1 0 -6 0zM249 1164 a3 3 0 1 0 6 0 a3 3 0 1 0 -6 0z" fill="black"></path><path d="M225 84 a3 3 0 1 0 6 0 a3 3 0 1 0 -6 0zM297 84 a3 3 0 1 0 6 0 a3 3 0 1 0 -6 0z" fill="black"></path><path d="M81 60 a3 3 0 1 0 6 0 a3 3 0 1 0 -6 0zM225 60 a3 3 0 1 0 6 0 a3 3 0 1 0 -6 0z" fill="black"></path><path d="M465 1428 a3 3 0 1 0 6 0 a3 3 0 1 0 -6 0zM345 1428 a3 3 0 1 0 6 0 a3 3 0 1 0 -6 0z" fill="black"></path><path d="M417 1308 a3 3 0 1 0 6 0 a3 3 0 1 0 -6 0zM273 1332 a3 3 0 1 0 6 0 a3 3 0 1 0 -6 0z" fill="black"></path><path d="M417 972 a3 3 0 1 0 6 0 a3 3 0 1 0 -6 0zM465 924 a3 3 0 1 0 6 0 a3 3 0 1 0 -6 0z" fill="black"></path><path d="M81 1380 a3 3 0 1 0 6 0 a3 3 0 1 0 -6 0zM129 1284 a3 3 0 1 0 6 0 a3 3 0 1 0 -6 0z" fill="black"></path><path d="M81 1284 a3 3 0 1 0 6 0 a3 3 0 1 0 -6 0zM9 1284 a3 3 0 1 0 6 0 a3 3 0 1 0 -6 0z" fill="black"></path><path d="M57 1404 a3 3 0 1 0 6 0 a3 3 0 1 0 -6 0zM105 1452 a3 3 0 1 0 6 0 a3 3 0 1 0 -6 0z" fill="black"></path><path d="M729 1332 a3 3 0 1 0 6 0 a3 3 0 1 0 -6 0zM681 1356 a3 3 0 1 0 6 0 a3 3 0 1 0 -6 0z" fill="black"></path><path d="M705 468 a3 3 0 1 0 6 0 a3 3 0 1 0 -6 0zM681 300 a3 3 0 1 0 6 0 a3 3 0 1 0 -6 0z" fill="black"></path><path d="M225 276 a3 3 0 1 0 6 0 a3 3 0 1 0 -6 0zM225 204 a3 3 0 1 0 6 0 a3 3 0 1 0 -6 0z" fill="black"></path><path d="M129 204 a3 3 0 1 0 6 0 a3 3 0 1 0 -6 0zM153 252 a3 3 0 1 0 6 0 a3 3 0 1 0 -6 0z" fill="black"></path><path d="M585 84 a3 3 0 1 0 6 0 a3 3 0 1 0 -6 0zM633 108 a3 3 0 1 0 6 0 a3 3 0 1 0 -6 0z" fill="black"></path><path d="M105 1404 a3 3 0 1 0 6 0 a3 3 0 1 0 -6 0zM273 1260 a3 3 0 1 0 6 0 a3 3 0 1 0 -6 0z" fill="black"></path><path d="M177 1332 a3 3 0 1 0 6 0 a3 3 0 1 0 -6 0zM177 1260 a3 3 0 1 0 6 0 a3 3 0 1 0 -6 0z" fill="black"></path><path d="M33 876 a3 3 0 1 0 6 0 a3 3 0 1 0 -6 0zM33 804 a3 3 0 1 0 6 0 a3 3 0 1 0 -6 0z" fill="black"></path><path d="M609 1236 a3 3 0 1 0 6 0 a3 3 0 1 0 -6 0zM705 1212 a3 3 0 1 0 6 0 a3 3 0 1 0 -6 0z" fill="black"></path><path d="M129 492 a3 3 0 1 0 6 0 a3 3 0 1 0 -6 0zM177 636 a3 3 0 1 0 6 0 a3 3 0 1 0 -6 0z" fill="black"></path><path d="M753 108 a3 3 0 1 0 6 0 a3 3 0 1 0 -6 0zM705 132 a3 3 0 1 0 6 0 a3 3 0 1 0 -6 0z" fill="black"></path><path d="M537 420 a3 3 0 1 0 6 0 a3 3 0 1 0 -6 0zM585 396 a3 3 0 1 0 6 0 a3 3 0 1 0 -6 0z" fill="black"></path><path d="M681 708 a3 3 0 1 0 6 0 a3 3 0 1 0 -6 0zM681 756 a3 3 0 1 0 6 0 a3 3 0 1 0 -6 0z" fill="black"></path><path d="M585 876 a3 3 0 1 0 6 0 a3 3 0 1 0 -6 0zM633 852 a3 3 0 1 0 6 0 a3 3 0 1 0 -6 0z" fill="black"></path><path d="M57 300 a3 3 0 1 0 6 0 a3 3 0 1 0 -6 0zM105 324 a3 3 0 1 0 6 0 a3 3 0 1 0 -6 0z" fill="black"></path><path d="M105 1332 a3 3 0 1 0 6 0 a3 3 0 1 0 -6 0zM9 1308 a3 3 0 1 0 6 0 a3 3 0 1 0 -6 0z" fill="black"></path><path d="M729 1068 a3 3 0 1 0 6 0 a3 3 0 1 0 -6 0zM729 1164 a3 3 0 1 0 6 0 a3 3 0 1 0 -6 0z" fill="black"></path><path d="M177 780 a3 3 0 1 0 6 0 a3 3 0 1 0 -6 0zM81 780 a3 3 0 1 0 6 0 a3 3 0 1 0 -6 0z" fill="black"></path><path d="M753 180 a3 3 0 1 0 6 0 a3 3 0 1 0 -6 0zM729 132 a3 3 0 1 0 6 0 a3 3 0 1 0 -6 0z" fill="black"></path><path d="M177 684 a3 3 0 1 0 6 0 a3 3 0 1 0 -6 0zM105 684 a3 3 0 1 0 6 0 a3 3 0 1 0 -6 0z" fill="black"></path><path d="M393 1140 a3 3 0 1 0 6 0 a3 3 0 1 0 -6 0zM441 1116 a3 3 0 1 0 6 0 a3 3 0 1 0 -6 0z" fill="black"></path><path d="M729 1020 a3 3 0 1 0 6 0 a3 3 0 1 0 -6 0zM729 972 a3 3 0 1 0 6 0 a3 3 0 1 0 -6 0z" fill="black"></path><path d="M609 948 a3 3 0 1 0 6 0 a3 3 0 1 0 -6 0zM609 1020 a3 3 0 1 0 6 0 a3 3 0 1 0 -6 0z" fill="black"></path><path d="M801 1380 a3 3 0 1 0 6 0 a3 3 0 1 0 -6 0zM801 1332 a3 3 0 1 0 6 0 a3 3 0 1 0 -6 0z" fill="black"></path><path d="M609 516 a3 3 0 1 0 6 0 a3 3 0 1 0 -6 0zM609 564 a3 3 0 1 0 6 0 a3 3 0 1 0 -6 0z" fill="black"></path><path d="M393 396 a3 3 0 1 0 6 0 a3 3 0 1 0 -6 0zM297 204 a3 3 0 1 0 6 0 a3 3 0 1 0 -6 0z" fill="black"></path><path d="M441 324 a3 3 0 1 0 6 0 a3 3 0 1 0 -6 0zM489 228 a3 3 0 1 0 6 0 a3 3 0 1 0 -6 0z" fill="black"></path><path d="M225 924 a3 3 0 1 0 6 0 a3 3 0 1 0 -6 0zM177 1044 a3 3 0 1 0 6 0 a3 3 0 1 0 -6 0z" fill="black"></path><path d="M273 1044 a3 3 0 1 0 6 0 a3 3 0 1 0 -6 0zM129 1116 a3 3 0 1 0 6 0 a3 3 0 1 0 -6 0z" fill="black"></path><path d="M201 444 a3 3 0 1 0 6 0 a3 3 0 1 0 -6 0zM201 372 a3 3 0 1 0 6 0 a3 3 0 1 0 -6 0z" fill="black"></path><path d="M729 372 a3 3 0 1 0 6 0 a3 3 0 1 0 -6 0zM753 420 a3 3 0 1 0 6 0 a3 3 0 1 0 -6 0z" fill="black"></path><path d="M81 852 a3 3 0 1 0 6 0 a3 3 0 1 0 -6 0zM81 804 a3 3 0 1 0 6 0 a3 3 0 1 0 -6 0z" fill="black"></path><path d="M609 1140 a3 3 0 1 0 6 0 a3 3 0 1 0 -6 0zM513 1068 a3 3 0 1 0 6 0 a3 3 0 1 0 -6 0z" fill="black"></path><path d="M369 444 a3 3 0 1 0 6 0 a3 3 0 1 0 -6 0zM441 540 a3 3 0 1 0 6 0 a3 3 0 1 0 -6 0z" fill="black"></path><path d="M57 540 a3 3 0 1 0 6 0 a3 3 0 1 0 -6 0zM153 636 a3 3 0 1 0 6 0 a3 3 0 1 0 -6 0z" fill="black"></path><path d="M9 660 a3 3 0 1 0 6 0 a3 3 0 1 0 -6 0zM9 708 a3 3 0 1 0 6 0 a3 3 0 1 0 -6 0z" fill="black"></path><path d="M297 420 a3 3 0 1 0 6 0 a3 3 0 1 0 -6 0zM321 588 a3 3 0 1 0 6 0 a3 3 0 1 0 -6 0z" fill="black"></path><path d="M585 492 a3 3 0 1 0 6 0 a3 3 0 1 0 -6 0zM585 564 a3 3 0 1 0 6 0 a3 3 0 1 0 -6 0z" fill="black"></path><path d="M705 684 a3 3 0 1 0 6 0 a3 3 0 1 0 -6 0zM777 684 a3 3 0 1 0 6 0 a3 3 0 1 0 -6 0z" fill="black"></path><path d="M345 1188 a3 3 0 1 0 6 0 a3 3 0 1 0 -6 0zM393 1164 a3 3 0 1 0 6 0 a3 3 0 1 0 -6 0z" fill="black"></path><path d="M561 1476 a3 3 0 1 0 6 0 a3 3 0 1 0 -6 0zM609 1428 a3 3 0 1 0 6 0 a3 3 0 1 0 -6 0z" fill="black"></path><path d="M81 1308 a3 3 0 1 0 6 0 a3 3 0 1 0 -6 0zM33 1356 a3 3 0 1 0 6 0 a3 3 0 1 0 -6 0z" fill="black"></path><path d="M225 804 a3 3 0 1 0 6 0 a3 3 0 1 0 -6 0zM105 804 a3 3 0 1 0 6 0 a3 3 0 1 0 -6 0z" fill="black"></path><path d="M57 636 a3 3 0 1 0 6 0 a3 3 0 1 0 -6 0zM9 492 a3 3 0 1 0 6 0 a3 3 0 1 0 -6 0z" fill="black"></path><path d="M465 876 a3 3 0 1 0 6 0 a3 3 0 1 0 -6 0zM441 828 a3 3 0 1 0 6 0 a3 3 0 1 0 -6 0z" fill="black"></path><path d="M105 1044 a3 3 0 1 0 6 0 a3 3 0 1 0 -6 0zM153 996 a3 3 0 1 0 6 0 a3 3 0 1 0 -6 0z" fill="black"></path><path d="M345 852 a3 3 0 1 0 6 0 a3 3 0 1 0 -6 0zM345 780 a3 3 0 1 0 6 0 a3 3 0 1 0 -6 0z" fill="black"></path><path d="M81 228 a3 3 0 1 0 6 0 a3 3 0 1 0 -6 0zM9 228 a3 3 0 1 0 6 0 a3 3 0 1 0 -6 0z" fill="black"></path><path d="M705 708 a3 3 0 1 0 6 0 a3 3 0 1 0 -6 0zM753 708 a3 3 0 1 0 6 0 a3 3 0 1 0 -6 0z" fill="black"></path><path d="M561 1428 a3 3 0 1 0 6 0 a3 3 0 1 0 -6 0zM465 1404 a3 3 0 1 0 6 0 a3 3 0 1 0 -6 0z" fill="black"></path><path d="M249 1452 a3 3 0 1 0 6 0 a3 3 0 1 0 -6 0zM321 1452 a3 3 0 1 0 6 0 a3 3 0 1 0 -6 0z" fill="black"></path><path d="M513 1236 a3 3 0 1 0 6 0 a3 3 0 1 0 -6 0zM561 1284 a3 3 0 1 0 6 0 a3 3 0 1 0 -6 0z" fill="black"></path><path d="M561 900 a3 3 0 1 0 6 0 a3 3 0 1 0 -6 0zM561 972 a3 3 0 1 0 6 0 a3 3 0 1 0 -6 0z" fill="black"></path><path d="M489 1188 a3 3 0 1 0 6 0 a3 3 0 1 0 -6 0zM465 1260 a3 3 0 1 0 6 0 a3 3 0 1 0 -6 0z" fill="black"></path><path d="M33 444 a3 3 0 1 0 6 0 a3 3 0 1 0 -6 0zM105 564 a3 3 0 1 0 6 0 a3 3 0 1 0 -6 0z" fill="black"></path><path d="M105 468 a3 3 0 1 0 6 0 a3 3 0 1 0 -6 0zM57 444 a3 3 0 1 0 6 0 a3 3 0 1 0 -6 0z" fill="black"></path><path d="M177 420 a3 3 0 1 0 6 0 a3 3 0 1 0 -6 0zM153 468 a3 3 0 1 0 6 0 a3 3 0 1 0 -6 0z" fill="black"></path><path d="M513 1428 a3 3 0 1 0 6 0 a3 3 0 1 0 -6 0zM465 1452 a3 3 0 1 0 6 0 a3 3 0 1 0 -6 0z" fill="black"></path><path d="M321 156 a3 3 0 1 0 6 0 a3 3 0 1 0 -6 0zM273 156 a3 3 0 1 0 6 0 a3 3 0 1 0 -6 0z" fill="black"></path><path d="M57 108 a3 3 0 1 0 6 0 a3 3 0 1 0 -6 0zM33 60 a3 3 0 1 0 6 0 a3 3 0 1 0 -6 0z" fill="black"></path><path d="M225 612 a3 3 0 1 0 6 0 a3 3 0 1 0 -6 0zM273 540 a3 3 0 1 0 6 0 a3 3 0 1 0 -6 0z" fill="black"></path><path d="M201 828 a3 3 0 1 0 6 0 a3 3 0 1 0 -6 0zM105 828 a3 3 0 1 0 6 0 a3 3 0 1 0 -6 0z" fill="black"></path><path d="M177 492 a3 3 0 1 0 6 0 a3 3 0 1 0 -6 0zM249 444 a3 3 0 1 0 6 0 a3 3 0 1 0 -6 0z" fill="black"></path><path d="M561 348 a3 3 0 1 0 6 0 a3 3 0 1 0 -6 0zM585 252 a3 3 0 1 0 6 0 a3 3 0 1 0 -6 0z" fill="black"></path><path d="M105 660 a3 3 0 1 0 6 0 a3 3 0 1 0 -6 0zM105 612 a3 3 0 1 0 6 0 a3 3 0 1 0 -6 0z" fill="black"></path><path d="M81 1188 a3 3 0 1 0 6 0 a3 3 0 1 0 -6 0zM81 1140 a3 3 0 1 0 6 0 a3 3 0 1 0 -6 0z" fill="black"></path><path d="M153 132 a3 3 0 1 0 6 0 a3 3 0 1 0 -6 0zM249 132 a3 3 0 1 0 6 0 a3 3 0 1 0 -6 0z" fill="black"></path><path d="M633 780 a3 3 0 1 0 6 0 a3 3 0 1 0 -6 0zM681 828 a3 3 0 1 0 6 0 a3 3 0 1 0 -6 0z" fill="black"></path><path d="M489 948 a3 3 0 1 0 6 0 a3 3 0 1 0 -6 0zM441 972 a3 3 0 1 0 6 0 a3 3 0 1 0 -6 0z" fill="black"></path><path d="M105 900 a3 3 0 1 0 6 0 a3 3 0 1 0 -6 0zM177 852 a3 3 0 1 0 6 0 a3 3 0 1 0 -6 0z" fill="black"></path><path d="M609 444 a3 3 0 1 0 6 0 a3 3 0 1 0 -6 0zM609 492 a3 3 0 1 0 6 0 a3 3 0 1 0 -6 0z" fill="black"></path><path d="M585 780 a3 3 0 1 0 6 0 a3 3 0 1 0 -6 0zM585 708 a3 3 0 1 0 6 0 a3 3 0 1 0 -6 0z" fill="black"></path><path d="M297 852 a3 3 0 1 0 6 0 a3 3 0 1 0 -6 0zM297 780 a3 3 0 1 0 6 0 a3 3 0 1 0 -6 0z" fill="black"></path><path d="M537 36 a3 3 0 1 0 6 0 a3 3 0 1 0 -6 0zM585 60 a3 3 0 1 0 6 0 a3 3 0 1 0 -6 0z" fill="black"></path><path d="M561 1068 a3 3 0 1 0 6 0 a3 3 0 1 0 -6 0zM633 1116 a3 3 0 1 0 6 0 a3 3 0 1 0 -6 0z" fill="black"></path><path d="M777 636 a3 3 0 1 0 6 0 a3 3 0 1 0 -6 0zM801 564 a3 3 0 1 0 6 0 a3 3 0 1 0 -6 0z" fill="black"></path><path d="M441 924 a3 3 0 1 0 6 0 a3 3 0 1 0 -6 0zM393 852 a3 3 0 1 0 6 0 a3 3 0 1 0 -6 0z" fill="black"></path><path d="M585 1236 a3 3 0 1 0 6 0 a3 3 0 1 0 -6 0zM681 1212 a3 3 0 1 0 6 0 a3 3 0 1 0 -6 0z" fill="black"></path><path d="M681 324 a3 3 0 1 0 6 0 a3 3 0 1 0 -6 0zM681 444 a3 3 0 1 0 6 0 a3 3 0 1 0 -6 0z" fill="black"></path><path d="M537 1236 a3 3 0 1 0 6 0 a3 3 0 1 0 -6 0zM585 1212 a3 3 0 1 0 6 0 a3 3 0 1 0 -6 0z" fill="black"></path><path d="M513 1332 a3 3 0 1 0 6 0 a3 3 0 1 0 -6 0zM465 1308 a3 3 0 1 0 6 0 a3 3 0 1 0 -6 0z" fill="black"></path><path d="M9 852 a3 3 0 1 0 6 0 a3 3 0 1 0 -6 0zM9 900 a3 3 0 1 0 6 0 a3 3 0 1 0 -6 0z" fill="black"></path><path d="M393 612 a3 3 0 1 0 6 0 a3 3 0 1 0 -6 0zM393 564 a3 3 0 1 0 6 0 a3 3 0 1 0 -6 0z" fill="black"></path><path d="M129 708 a3 3 0 1 0 6 0 a3 3 0 1 0 -6 0zM177 708 a3 3 0 1 0 6 0 a3 3 0 1 0 -6 0z" fill="black"></path><path d="M345 228 a3 3 0 1 0 6 0 a3 3 0 1 0 -6 0zM417 204 a3 3 0 1 0 6 0 a3 3 0 1 0 -6 0z" fill="black"></path><path d="M201 1428 a3 3 0 1 0 6 0 a3 3 0 1 0 -6 0zM249 1428 a3 3 0 1 0 6 0 a3 3 0 1 0 -6 0z" fill="black"></path><path d="M9 372 a3 3 0 1 0 6 0 a3 3 0 1 0 -6 0zM57 324 a3 3 0 1 0 6 0 a3 3 0 1 0 -6 0z" fill="black"></path><path d="M489 1452 a3 3 0 1 0 6 0 a3 3 0 1 0 -6 0zM561 1452 a3 3 0 1 0 6 0 a3 3 0 1 0 -6 0z" fill="black"></path><path d="M609 1452 a3 3 0 1 0 6 0 a3 3 0 1 0 -6 0zM633 1500 a3 3 0 1 0 6 0 a3 3 0 1 0 -6 0z" fill="black"></path><path d="M729 1308 a3 3 0 1 0 6 0 a3 3 0 1 0 -6 0zM777 1308 a3 3 0 1 0 6 0 a3 3 0 1 0 -6 0z" fill="black"></path><path d="M585 972 a3 3 0 1 0 6 0 a3 3 0 1 0 -6 0zM633 876 a3 3 0 1 0 6 0 a3 3 0 1 0 -6 0z" fill="black"></path><path d="M489 396 a3 3 0 1 0 6 0 a3 3 0 1 0 -6 0zM441 420 a3 3 0 1 0 6 0 a3 3 0 1 0 -6 0z" fill="black"></path><path d="M417 252 a3 3 0 1 0 6 0 a3 3 0 1 0 -6 0zM417 300 a3 3 0 1 0 6 0 a3 3 0 1 0 -6 0z" fill="black"></path><path d="M393 1284 a3 3 0 1 0 6 0 a3 3 0 1 0 -6 0zM321 1284 a3 3 0 1 0 6 0 a3 3 0 1 0 -6 0z" fill="black"></path></mask></defs></svg>